<svg xmlns="http://www.w3.org/2000/svg" version="1.1" xmlns:xlink="http://www.w3.org/1999/xlink" xmlns:svgjs="http://svgjs.dev/svgjs" viewBox="0 0 19.10719319893286 3.2770765133190656"><g transform="matrix(1,0,0,1,2.793315714981553,0.655419506659533)"><g><path d=" M 0.921 0.2639999999999998 L 0.615 0.2639999999999998 L 0.615 1.0739999999999998 L 0.3225 1.0739999999999998 L 0.3225 0.2639999999999998 L 0.015 0.2639999999999998 L 0.015 0.008999999999999897 L 0.921 0.008999999999999897 L 0.921 0.2639999999999998 M 1.0260351562499999 1.0739999999999998 L 1.0260351562499999 0.008999999999999897 L 1.51503515625 0.008999999999999897 Q 1.59303515625 0.008999999999999897 1.6590351562499999 0.04049999999999976 Q 1.72503515625 0.07199999999999984 1.77303515625 0.12524999999999986 Q 1.82103515625 0.17849999999999977 1.84728515625 0.24449999999999983 Q 1.87353515625 0.3104999999999998 1.87353515625 0.3779999999999998 Q 1.87353515625 0.4394999999999998 1.85553515625 0.49649999999999983 Q 1.83753515625 0.5534999999999999 1.80303515625 0.6007499999999999 Q 1.76853515625 0.6479999999999999 1.72053515625 0.6824999999999999 L 1.94553515625 1.0739999999999998 L 1.62453515625 1.0739999999999998 L 1.43703515625 0.7469999999999999 L 1.3185351562499998 0.7469999999999999 L 1.3185351562499998 1.0739999999999998 L 1.0260351562499999 1.0739999999999998 M 1.3185351562499998 0.4919999999999999 L 1.50303515625 0.4919999999999999 Q 1.52103515625 0.4919999999999999 1.53753515625 0.4784999999999998 Q 1.5540351562499999 0.46499999999999986 1.5652851562499999 0.4394999999999998 Q 1.5765351562499998 0.4139999999999998 1.5765351562499998 0.3779999999999998 Q 1.5765351562499998 0.3404999999999998 1.5637851562499998 0.31574999999999986 Q 1.55103515625 0.2909999999999998 1.53228515625 0.27749999999999986 Q 1.51353515625 0.2639999999999998 1.4955351562499999 0.2639999999999998 L 1.3185351562499998 0.2639999999999998 L 1.3185351562499998 0.4919999999999999 M 2.283016845703125 0.008999999999999897 L 2.6100168457031248 0.008999999999999897 L 2.9490168457031247 1.0739999999999998 L 2.652016845703125 1.0739999999999998 L 2.587516845703125 0.8654999999999998 L 2.3040168457031247 0.8654999999999998 L 2.241016845703125 1.0739999999999998 L 1.942516845703125 1.0739999999999998 L 2.283016845703125 0.008999999999999897 M 2.541016845703125 0.6704999999999999 L 2.4465168457031248 0.2954999999999999 L 2.347516845703125 0.6704999999999999 L 2.541016845703125 0.6704999999999999 M 3.3285051269531247 0.5504999999999999 L 3.3285051269531247 1.0739999999999998 L 3.0360051269531247 1.0739999999999998 L 3.0360051269531247 0.008999999999999897 L 3.264005126953125 0.008999999999999897 L 3.6915051269531247 0.5504999999999999 L 3.6915051269531247 0.008999999999999897 L 3.984005126953125 0.008999999999999897 L 3.984005126953125 1.0739999999999998 L 3.7515051269531248 1.0739999999999998 L 3.3285051269531247 0.5504999999999999 M 4.810547607421875 0.3569999999999999 Q 4.810547607421875 0.3569999999999999 4.785047607421875 0.34199999999999986 Q 4.759547607421875 0.32699999999999985 4.717547607421874 0.3082499999999998 Q 4.6755476074218745 0.28949999999999987 4.626047607421874 0.27449999999999986 Q 4.576547607421875 0.25949999999999984 4.528547607421875 0.25949999999999984 Q 4.491047607421875 0.25949999999999984 4.467047607421875 0.27149999999999985 Q 4.4430476074218745 0.28349999999999986 4.4430476074218745 0.31199999999999983 Q 4.4430476074218745 0.33899999999999986 4.467047607421875 0.3554999999999998 Q 4.491047607421875 0.3719999999999998 4.5352976074218745 0.38549999999999984 Q 4.579547607421874 0.3989999999999998 4.641047607421875 0.41849999999999987 Q 4.740047607421875 0.4484999999999998 4.812047607421874 0.4874999999999998 Q 4.884047607421875 0.5264999999999999 4.923047607421875 0.5872499999999998 Q 4.962047607421875 0.6479999999999999 4.962047607421875 0.7484999999999998 Q 4.962047607421875 0.8444999999999998 4.927547607421875 0.9097499999999998 Q 4.893047607421875 0.9749999999999999 4.834547607421875 1.0139999999999998 Q 4.776047607421875 1.053 4.704047607421875 1.07025 Q 4.632047607421875 1.0875 4.557047607421874 1.0875 Q 4.480547607421875 1.0875 4.397297607421875 1.0717499999999998 Q 4.314047607421875 1.0559999999999998 4.236047607421875 1.0282499999999999 Q 4.158047607421874 1.0005 4.093547607421875 0.9629999999999999 L 4.219547607421875 0.7064999999999999 Q 4.219547607421875 0.7064999999999999 4.249547607421875 0.7244999999999998 Q 4.279547607421875 0.7424999999999998 4.329047607421875 0.7649999999999999 Q 4.378547607421875 0.7874999999999999 4.439297607421874 0.8054999999999999 Q 4.500047607421875 0.8234999999999999 4.561547607421875 0.8234999999999999 Q 4.609547607421875 0.8234999999999999 4.6282976074218745 0.8107499999999999 Q 4.647047607421875 0.7979999999999998 4.647047607421875 0.7769999999999999 Q 4.647047607421875 0.7454999999999998 4.614047607421875 0.7282499999999998 Q 4.5810476074218744 0.7109999999999999 4.527797607421875 0.6952499999999998 Q 4.474547607421875 0.6794999999999998 4.410047607421875 0.6584999999999999 Q 4.317047607421875 0.6269999999999998 4.257047607421875 0.5872499999999998 Q 4.197047607421875 0.5474999999999999 4.168547607421875 0.4927499999999998 Q 4.140047607421875 0.43799999999999983 4.140047607421875 0.3599999999999999 Q 4.140047607421875 0.24149999999999983 4.195547607421875 0.1619999999999998 Q 4.251047607421874 0.0824999999999998 4.341797607421875 0.04124999999999979 Q 4.432547607421875 -2.220446049250313e-16 4.537547607421875 -2.220446049250313e-16 Q 4.615547607421875 -2.220446049250313e-16 4.688297607421875 0.018749999999999822 Q 4.761047607421875 0.03749999999999987 4.824797607421875 0.06449999999999978 Q 4.8885476074218746 0.0914999999999998 4.936547607421875 0.11549999999999983 L 4.810547607421875 0.3569999999999999 M 5.08955419921875 1.0739999999999998 L 5.08955419921875 0.008999999999999897 L 5.548554199218749 0.008999999999999897 Q 5.6265541992187496 0.008999999999999897 5.692554199218749 0.04049999999999976 Q 5.75855419921875 0.07199999999999984 5.80655419921875 0.12524999999999986 Q 5.85455419921875 0.17849999999999977 5.880804199218749 0.24449999999999983 Q 5.9070541992187495 0.3104999999999998 5.9070541992187495 0.3779999999999998 Q 5.9070541992187495 0.4724999999999998 5.86280419921875 0.5564999999999999 Q 5.81855419921875 0.6404999999999998 5.739804199218749 0.6937499999999999 Q 5.66105419921875 0.7469999999999999 5.5560541992187495 0.7469999999999999 L 5.38205419921875 0.7469999999999999 L 5.38205419921875 1.0739999999999998 L 5.08955419921875 1.0739999999999998 M 5.38205419921875 0.4919999999999999 L 5.53655419921875 0.4919999999999999 Q 5.5545541992187495 0.4919999999999999 5.57105419921875 0.4814999999999998 Q 5.58755419921875 0.47099999999999986 5.598804199218749 0.4454999999999998 Q 5.61005419921875 0.4199999999999998 5.61005419921875 0.3779999999999998 Q 5.61005419921875 0.33299999999999985 5.597304199218749 0.3082499999999998 Q 5.58455419921875 0.28349999999999986 5.56580419921875 0.2737499999999998 Q 5.54705419921875 0.2639999999999998 5.529054199218749 0.2639999999999998 L 5.38205419921875 0.2639999999999998 L 5.38205419921875 0.4919999999999999 M 6.190530029296875 0.008999999999999897 L 6.517530029296875 0.008999999999999897 L 6.8565300292968745 1.0739999999999998 L 6.559530029296875 1.0739999999999998 L 6.495030029296875 0.8654999999999998 L 6.211530029296875 0.8654999999999998 L 6.148530029296874 1.0739999999999998 L 5.8500300292968745 1.0739999999999998 L 6.190530029296875 0.008999999999999897 M 6.448530029296875 0.6704999999999999 L 6.354030029296875 0.2954999999999999 L 6.255030029296875 0.6704999999999999 L 6.448530029296875 0.6704999999999999 M 6.9435183105468745 1.0739999999999998 L 6.9435183105468745 0.008999999999999897 L 7.432518310546874 0.008999999999999897 Q 7.510518310546875 0.008999999999999897 7.5765183105468745 0.04049999999999976 Q 7.642518310546874 0.07199999999999984 7.690518310546874 0.12524999999999986 Q 7.7385183105468744 0.17849999999999977 7.7647683105468746 0.24449999999999983 Q 7.791018310546875 0.3104999999999998 7.791018310546875 0.3779999999999998 Q 7.791018310546875 0.4394999999999998 7.773018310546875 0.49649999999999983 Q 7.755018310546875 0.5534999999999999 7.720518310546875 0.6007499999999999 Q 7.686018310546874 0.6479999999999999 7.638018310546874 0.6824999999999999 L 7.863018310546875 1.0739999999999998 L 7.542018310546875 1.0739999999999998 L 7.354518310546875 0.7469999999999999 L 7.236018310546875 0.7469999999999999 L 7.236018310546875 1.0739999999999998 L 6.9435183105468745 1.0739999999999998 M 7.236018310546875 0.4919999999999999 L 7.420518310546875 0.4919999999999999 Q 7.438518310546875 0.4919999999999999 7.455018310546874 0.4784999999999998 Q 7.471518310546875 0.46499999999999986 7.4827683105468745 0.4394999999999998 Q 7.494018310546875 0.4139999999999998 7.494018310546875 0.3779999999999998 Q 7.494018310546875 0.3404999999999998 7.4812683105468745 0.31574999999999986 Q 7.468518310546875 0.2909999999999998 7.449768310546874 0.27749999999999986 Q 7.431018310546874 0.2639999999999998 7.4130183105468745 0.2639999999999998 L 7.236018310546875 0.2639999999999998 L 7.236018310546875 0.4919999999999999 M 8.7135 0.8189999999999998 L 8.7135 1.0739999999999998 L 7.9544999999999995 1.0739999999999998 L 7.9544999999999995 0.008999999999999897 L 8.7 0.008999999999999897 L 8.7 0.2639999999999998 L 8.247 0.2639999999999998 L 8.247 0.4139999999999998 L 8.634 0.4139999999999998 L 8.634 0.6509999999999998 L 8.247 0.6509999999999998 L 8.247 0.8189999999999998 L 8.7135 0.8189999999999998 M 9.140977294921875 0.5504999999999999 L 9.140977294921875 1.0739999999999998 L 8.848477294921874 1.0739999999999998 L 8.848477294921874 0.008999999999999897 L 9.076477294921874 0.008999999999999897 L 9.503977294921874 0.5504999999999999 L 9.503977294921874 0.008999999999999897 L 9.796477294921875 0.008999999999999897 L 9.796477294921875 1.0739999999999998 L 9.563977294921875 1.0739999999999998 L 9.140977294921875 0.5504999999999999 M 9.919519775390624 0.5324999999999999 Q 9.919519775390624 0.43499999999999983 9.956269775390625 0.34124999999999983 Q 9.993019775390625 0.24749999999999983 10.063519775390624 0.17099999999999982 Q 10.134019775390625 0.0944999999999998 10.235269775390625 0.04874999999999985 Q 10.336519775390624 0.0029999999999998916 10.464019775390625 0.0029999999999998916 Q 10.617019775390624 0.0029999999999998916 10.731019775390624 0.06674999999999986 Q 10.845019775390625 0.13049999999999984 10.900519775390624 0.23549999999999982 L 10.677019775390624 0.39449999999999985 Q 10.657519775390625 0.34199999999999986 10.620769775390624 0.3134999999999998 Q 10.584019775390624 0.2849999999999998 10.541269775390624 0.2737499999999998 Q 10.498519775390625 0.26249999999999984 10.458019775390625 0.26249999999999984 Q 10.395019775390624 0.26249999999999984 10.349269775390624 0.2872499999999998 Q 10.303519775390624 0.31199999999999983 10.274269775390625 0.3524999999999998 Q 10.245019775390624 0.3929999999999998 10.230769775390625 0.4424999999999998 Q 10.216519775390625 0.4919999999999999 10.216519775390625 0.5414999999999999 Q 10.216519775390625 0.5969999999999998 10.233019775390625 0.6479999999999999 Q 10.249519775390624 0.6989999999999998 10.281019775390625 0.7387499999999998 Q 10.312519775390625 0.7784999999999999 10.358269775390625 0.8009999999999998 Q 10.404019775390625 0.8234999999999999 10.461019775390625 0.8234999999999999 Q 10.501519775390625 0.8234999999999999 10.543519775390624 0.8107499999999999 Q 10.585519775390624 0.7979999999999998 10.620019775390624 0.7694999999999999 Q 10.654519775390625 0.7409999999999999 10.672519775390624 0.6929999999999998 L 10.911019775390624 0.8354999999999998 Q 10.879519775390625 0.9134999999999999 10.806019775390624 0.9689999999999999 Q 10.732519775390625 1.0244999999999997 10.639519775390625 1.0537499999999997 Q 10.546519775390625 1.0829999999999997 10.455019775390625 1.0829999999999997 Q 10.336519775390624 1.0829999999999997 10.238269775390624 1.03575 Q 10.140019775390625 0.9884999999999998 10.068769775390624 0.9097499999999998 Q 9.997519775390625 0.8309999999999998 9.958519775390624 0.7327499999999998 Q 9.919519775390624 0.6344999999999998 9.919519775390624 0.5324999999999999 M 11.201980224609374 0.008999999999999897 L 11.392480224609374 0.44399999999999984 L 11.587480224609374 0.008999999999999897 L 11.905480224609374 0.008999999999999897 L 11.537980224609374 0.7214999999999998 L 11.537980224609374 1.0739999999999998 L 11.246980224609374 1.0739999999999998 L 11.246980224609374 0.7184999999999999 L 10.885480224609374 0.008999999999999897 L 11.201980224609374 0.008999999999999897 M 12.889503662109375 0.8009999999999998 Q 12.889503662109375 0.8969999999999998 12.837753662109375 0.9569999999999999 Q 12.786003662109374 1.017 12.699003662109375 1.0454999999999999 Q 12.612003662109375 1.0739999999999998 12.507003662109375 1.0739999999999998 L 11.983503662109374 1.0739999999999998 L 11.983503662109374 0.008999999999999897 L 12.601503662109375 0.008999999999999897 Q 12.676503662109374 0.008999999999999897 12.731253662109374 0.04874999999999985 Q 12.786003662109374 0.0884999999999998 12.815253662109374 0.15149999999999986 Q 12.844503662109375 0.2144999999999998 12.844503662109375 0.2819999999999998 Q 12.844503662109375 0.3554999999999998 12.806253662109373 0.4244999999999999 Q 12.768003662109374 0.4934999999999998 12.691503662109374 0.5279999999999998 Q 12.783003662109374 0.5549999999999998 12.836253662109375 0.6224999999999998 Q 12.889503662109375 0.6899999999999998 12.889503662109375 0.8009999999999998 M 12.592503662109374 0.7409999999999999 Q 12.592503662109374 0.7139999999999999 12.582753662109374 0.6937499999999999 Q 12.573003662109375 0.6734999999999998 12.556503662109375 0.6614999999999998 Q 12.540003662109374 0.6494999999999999 12.517503662109375 0.6494999999999999 L 12.276003662109375 0.6494999999999999 L 12.276003662109375 0.8279999999999998 L 12.507003662109375 0.8279999999999998 Q 12.531003662109374 0.8279999999999998 12.550503662109374 0.8174999999999999 Q 12.570003662109375 0.8069999999999998 12.581253662109374 0.7874999999999999 Q 12.592503662109374 0.7679999999999998 12.592503662109374 0.7409999999999999 M 12.276003662109375 0.2579999999999998 L 12.276003662109375 0.4214999999999999 L 12.475503662109375 0.4214999999999999 Q 12.495003662109374 0.4214999999999999 12.513003662109375 0.41474999999999984 Q 12.531003662109374 0.4079999999999998 12.543003662109374 0.3899999999999998 Q 12.555003662109375 0.3719999999999998 12.555003662109375 0.33899999999999986 Q 12.555003662109375 0.30899999999999983 12.545253662109374 0.29174999999999984 Q 12.535503662109374 0.27449999999999986 12.519753662109375 0.2662499999999999 Q 12.504003662109374 0.2579999999999998 12.484503662109374 0.2579999999999998 L 12.276003662109375 0.2579999999999998 M 13.237464111328125 0.008999999999999897 L 13.564464111328125 0.008999999999999897 L 13.903464111328125 1.0739999999999998 L 13.606464111328124 1.0739999999999998 L 13.541964111328124 0.8654999999999998 L 13.258464111328124 0.8654999999999998 L 13.195464111328125 1.0739999999999998 L 12.896964111328124 1.0739999999999998 L 13.237464111328125 0.008999999999999897 M 13.495464111328124 0.6704999999999999 L 13.400964111328124 0.2954999999999999 L 13.301964111328124 0.6704999999999999 L 13.495464111328124 0.6704999999999999 M 14.623458984374999 0.3569999999999999 Q 14.623458984374999 0.3569999999999999 14.597958984375 0.34199999999999986 Q 14.572458984374999 0.32699999999999985 14.530458984374999 0.3082499999999998 Q 14.488458984374999 0.28949999999999987 14.438958984374999 0.27449999999999986 Q 14.389458984374999 0.25949999999999984 14.341458984374999 0.25949999999999984 Q 14.303958984374999 0.25949999999999984 14.279958984375 0.27149999999999985 Q 14.255958984374999 0.28349999999999986 14.255958984374999 0.31199999999999983 Q 14.255958984374999 0.33899999999999986 14.279958984375 0.3554999999999998 Q 14.303958984374999 0.3719999999999998 14.348208984374999 0.38549999999999984 Q 14.392458984374999 0.3989999999999998 14.453958984375 0.41849999999999987 Q 14.552958984375 0.4484999999999998 14.624958984374999 0.4874999999999998 Q 14.696958984375 0.5264999999999999 14.735958984375 0.5872499999999998 Q 14.774958984374999 0.6479999999999999 14.774958984374999 0.7484999999999998 Q 14.774958984374999 0.8444999999999998 14.740458984375 0.9097499999999998 Q 14.705958984375 0.9749999999999999 14.647458984375 1.0139999999999998 Q 14.588958984375 1.053 14.516958984375 1.07025 Q 14.444958984374999 1.0875 14.369958984375 1.0875 Q 14.293458984374999 1.0875 14.210208984374999 1.0717499999999998 Q 14.126958984375 1.0559999999999998 14.048958984375 1.0282499999999999 Q 13.970958984374999 1.0005 13.906458984375 0.9629999999999999 L 14.032458984375 0.7064999999999999 Q 14.032458984375 0.7064999999999999 14.062458984374999 0.7244999999999998 Q 14.092458984375 0.7424999999999998 14.141958984375 0.7649999999999999 Q 14.191458984375 0.7874999999999999 14.252208984374999 0.8054999999999999 Q 14.312958984375 0.8234999999999999 14.374458984375 0.8234999999999999 Q 14.422458984375 0.8234999999999999 14.441208984374999 0.8107499999999999 Q 14.459958984375 0.7979999999999998 14.459958984375 0.7769999999999999 Q 14.459958984375 0.7454999999999998 14.426958984374998 0.7282499999999998 Q 14.393958984374999 0.7109999999999999 14.340708984374999 0.6952499999999998 Q 14.287458984374998 0.6794999999999998 14.222958984375 0.6584999999999999 Q 14.129958984375 0.6269999999999998 14.069958984374999 0.5872499999999998 Q 14.009958984374999 0.5474999999999999 13.981458984375 0.4927499999999998 Q 13.952958984375 0.43799999999999983 13.952958984375 0.3599999999999999 Q 13.952958984375 0.24149999999999983 14.008458984374998 0.1619999999999998 Q 14.063958984374999 0.0824999999999998 14.154708984374999 0.04124999999999979 Q 14.245458984374999 -2.220446049250313e-16 14.350458984374999 -2.220446049250313e-16 Q 14.428458984374998 -2.220446049250313e-16 14.501208984375 0.018749999999999822 Q 14.573958984374999 0.03749999999999987 14.637708984375 0.06449999999999978 Q 14.701458984375 0.0914999999999998 14.749458984375 0.11549999999999983 L 14.623458984374999 0.3569999999999999 M 15.661465576171874 0.8189999999999998 L 15.661465576171874 1.0739999999999998 L 14.902465576171874 1.0739999999999998 L 14.902465576171874 0.008999999999999897 L 15.647965576171874 0.008999999999999897 L 15.647965576171874 0.2639999999999998 L 15.194965576171874 0.2639999999999998 L 15.194965576171874 0.4139999999999998 L 15.581965576171875 0.4139999999999998 L 15.581965576171875 0.6509999999999998 L 15.194965576171874 0.6509999999999998 L 15.194965576171874 0.8189999999999998 L 15.661465576171874 0.8189999999999998" fill="#ffffff" fill-rule="nonzero"></path></g><g><path d=" M 0.28125 1.9699874999999996 Q 0.225 1.9699874999999996 0.17925 1.9474874999999996 Q 0.1335 1.9249874999999996 0.1005 1.8863624999999997 Q 0.0675 1.8477374999999996 0.0495 1.7993624999999995 Q 0.0315 1.7509874999999997 0.0315 1.6999874999999998 Q 0.0315 1.6467374999999995 0.05025 1.5983624999999997 Q 0.069 1.5499874999999996 0.10312500000000001 1.5121124999999997 Q 0.13725 1.4742374999999996 0.183 1.4521124999999997 Q 0.22875 1.4299874999999997 0.28200000000000003 1.4299874999999997 Q 0.33825 1.4299874999999997 0.384 1.4532374999999997 Q 0.42975 1.4764874999999997 0.46237500000000004 1.5154874999999997 Q 0.495 1.5544874999999996 0.513 1.6024874999999996 Q 0.531 1.6504874999999997 0.531 1.7007374999999996 Q 0.531 1.7539874999999996 0.51225 1.8023624999999996 Q 0.4935 1.8507374999999997 0.45975 1.8886124999999996 Q 0.426 1.9264874999999997 0.38025000000000003 1.9482374999999996 Q 0.3345 1.9699874999999996 0.28125 1.9699874999999996 M 0.084 1.6999874999999998 Q 0.084 1.7434874999999996 0.09825 1.7836124999999996 Q 0.1125 1.8237374999999996 0.13875 1.8548624999999996 Q 0.165 1.8859874999999997 0.201375 1.9043624999999997 Q 0.23775000000000002 1.9227374999999995 0.28125 1.9227374999999995 Q 0.327 1.9227374999999995 0.363375 1.9036124999999997 Q 0.39975 1.8844874999999996 0.42562500000000003 1.8526124999999996 Q 0.4515 1.8207374999999997 0.465 1.7809874999999997 Q 0.47850000000000004 1.7412374999999995 0.47850000000000004 1.6999874999999998 Q 0.47850000000000004 1.6564874999999997 0.46425 1.6167374999999997 Q 0.45 1.5769874999999995 0.423375 1.5454874999999997 Q 0.39675 1.5139874999999996 0.36075 1.4959874999999996 Q 0.32475 1.4779874999999996 0.28125 1.4779874999999996 Q 0.23625000000000002 1.4779874999999996 0.199875 1.4967374999999996 Q 0.1635 1.5154874999999997 0.137625 1.5473624999999998 Q 0.11175 1.5792374999999996 0.097875 1.6189874999999996 Q 0.084 1.6587374999999995 0.084 1.6999874999999998 M 0.6299824218749999 1.9662374999999996 L 0.6299824218749999 1.4337374999999997 L 0.8504824218749999 1.4337374999999997 Q 0.8849824218749999 1.4337374999999997 0.913857421875 1.4479874999999995 Q 0.942732421875 1.4622374999999996 0.9637324218749999 1.4866124999999997 Q 0.9847324218749999 1.5109874999999997 0.9967324218749999 1.5406124999999995 Q 1.008732421875 1.5702374999999997 1.008732421875 1.6009874999999996 Q 1.008732421875 1.6444874999999997 0.989607421875 1.6831124999999996 Q 0.9704824218749999 1.7217374999999997 0.9359824218749999 1.7457374999999997 Q 0.9014824218749999 1.7697374999999997 0.854982421875 1.7697374999999997 L 0.6824824218749999 1.7697374999999997 L 0.6824824218749999 1.9662374999999996 L 0.6299824218749999 1.9662374999999996 M 0.6824824218749999 1.7232374999999998 L 0.8527324218749999 1.7232374999999998 Q 0.884232421875 1.7232374999999998 0.907482421875 1.7059874999999995 Q 0.9307324218749999 1.6887374999999996 0.943482421875 1.6609874999999996 Q 0.9562324218749999 1.6332374999999997 0.9562324218749999 1.6009874999999996 Q 0.9562324218749999 1.5679874999999996 0.9412324218749999 1.5402374999999997 Q 0.9262324218749999 1.5124874999999998 0.901857421875 1.4963624999999996 Q 0.8774824218749999 1.4802374999999997 0.8482324218749999 1.4802374999999997 L 0.6824824218749999 1.4802374999999997 L 0.6824824218749999 1.7232374999999998 M 1.4542393798828126 1.9197374999999997 L 1.4542393798828126 1.9662374999999996 L 1.0964893798828126 1.9662374999999996 L 1.0964893798828126 1.4337374999999997 L 1.4474893798828126 1.4337374999999997 L 1.4474893798828126 1.4802374999999997 L 1.1489893798828126 1.4802374999999997 L 1.1489893798828126 1.6722374999999996 L 1.4092393798828124 1.6722374999999996 L 1.4092393798828124 1.7164874999999997 L 1.1489893798828126 1.7164874999999997 L 1.1489893798828126 1.9197374999999997 L 1.4542393798828126 1.9197374999999997 M 1.6057459716796876 1.5304874999999996 L 1.6057459716796876 1.9662374999999996 L 1.5532459716796876 1.9662374999999996 L 1.5532459716796876 1.4337374999999997 L 1.5967459716796875 1.4337374999999997 L 1.9462459716796876 1.8777374999999996 L 1.9462459716796876 1.4344874999999995 L 1.9987459716796874 1.4344874999999995 L 1.9987459716796874 1.9662374999999996 L 1.9499959716796875 1.9662374999999996 L 1.6057459716796876 1.5304874999999996 M 2.1847254638671876 1.5304874999999996 L 2.1847254638671876 1.9662374999999996 L 2.1322254638671874 1.9662374999999996 L 2.1322254638671874 1.4337374999999997 L 2.1757254638671877 1.4337374999999997 L 2.5252254638671876 1.8777374999999996 L 2.5252254638671876 1.4344874999999995 L 2.5777254638671874 1.4344874999999995 L 2.5777254638671874 1.9662374999999996 L 2.5289754638671873 1.9662374999999996 L 2.1847254638671876 1.5304874999999996 M 3.0689549560546876 1.9197374999999997 L 3.0689549560546876 1.9662374999999996 L 2.7112049560546874 1.9662374999999996 L 2.7112049560546874 1.4337374999999997 L 3.0622049560546873 1.4337374999999997 L 3.0622049560546873 1.4802374999999997 L 2.7637049560546876 1.4802374999999997 L 2.7637049560546876 1.6722374999999996 L 3.0239549560546877 1.6722374999999996 L 3.0239549560546877 1.7164874999999997 L 2.7637049560546876 1.7164874999999997 L 2.7637049560546876 1.9197374999999997 L 3.0689549560546876 1.9197374999999997 M 3.4761903076171876 1.5334874999999997 Q 3.4649403076171876 1.5207374999999996 3.4499403076171875 1.5106124999999997 Q 3.4349403076171874 1.5004874999999998 3.4161903076171876 1.4929874999999997 Q 3.3974403076171873 1.4854874999999996 3.3760653076171874 1.4809874999999997 Q 3.3546903076171875 1.4764874999999997 3.3306903076171874 1.4764874999999997 Q 3.2609403076171875 1.4764874999999997 3.2283153076171875 1.5031124999999996 Q 3.1956903076171876 1.5297374999999995 3.1956903076171876 1.5754874999999997 Q 3.1956903076171876 1.6069874999999996 3.2110653076171873 1.6249874999999996 Q 3.2264403076171875 1.6429874999999996 3.2594403076171874 1.6542374999999996 Q 3.2924403076171873 1.6654874999999996 3.3434403076171875 1.6774874999999996 Q 3.4004403076171874 1.6894874999999996 3.4416903076171876 1.7059874999999995 Q 3.4829403076171874 1.7224874999999997 3.5054403076171874 1.7506124999999997 Q 3.5279403076171874 1.7787374999999996 3.5279403076171874 1.8267374999999997 Q 3.5279403076171874 1.8634874999999997 3.5136903076171877 1.8904874999999997 Q 3.4994403076171876 1.9174874999999996 3.4739403076171875 1.9354874999999996 Q 3.4484403076171875 1.9534874999999996 3.4131903076171874 1.9621124999999997 Q 3.3779403076171874 1.9707374999999996 3.3359403076171876 1.9707374999999996 Q 3.2946903076171874 1.9707374999999996 3.2568153076171873 1.9621124999999997 Q 3.2189403076171876 1.9534874999999996 3.1851903076171877 1.9366124999999996 Q 3.1514403076171873 1.9197374999999997 3.1221903076171875 1.8934874999999995 L 3.1484403076171876 1.8507374999999997 Q 3.1626903076171873 1.8657374999999996 3.1825653076171876 1.8788624999999997 Q 3.2024403076171875 1.8919874999999997 3.2268153076171875 1.9024874999999997 Q 3.2511903076171875 1.9129874999999996 3.2793153076171877 1.9186124999999996 Q 3.3074403076171874 1.9242374999999996 3.3374403076171877 1.9242374999999996 Q 3.4011903076171874 1.9242374999999996 3.4368153076171875 1.9009874999999996 Q 3.4724403076171875 1.8777374999999996 3.4724403076171875 1.8319874999999997 Q 3.4724403076171875 1.7989874999999995 3.4544403076171877 1.7791124999999997 Q 3.4364403076171874 1.7592374999999996 3.4004403076171874 1.7464874999999997 Q 3.3644403076171874 1.7337374999999997 3.3119403076171876 1.7217374999999997 Q 3.2564403076171873 1.7089874999999997 3.2181903076171876 1.6932374999999995 Q 3.1799403076171875 1.6774874999999996 3.1608153076171877 1.6516124999999997 Q 3.1416903076171874 1.6257374999999996 3.1416903076171874 1.5829874999999995 Q 3.1416903076171874 1.5334874999999997 3.1660653076171874 1.4993624999999997 Q 3.1904403076171874 1.4652374999999997 3.2331903076171873 1.4476124999999995 Q 3.2759403076171876 1.4299874999999997 3.3314403076171875 1.4299874999999997 Q 3.3666903076171875 1.4299874999999997 3.3970653076171873 1.4371124999999996 Q 3.4274403076171875 1.4442374999999996 3.4533153076171876 1.4577374999999995 Q 3.4791903076171877 1.4712374999999995 3.5016903076171877 1.4914874999999996 L 3.4761903076171876 1.5334874999999997 M 3.931436279296875 1.5334874999999997 Q 3.920186279296875 1.5207374999999996 3.905186279296875 1.5106124999999997 Q 3.890186279296875 1.5004874999999998 3.871436279296875 1.4929874999999997 Q 3.852686279296875 1.4854874999999996 3.831311279296875 1.4809874999999997 Q 3.809936279296875 1.4764874999999997 3.785936279296875 1.4764874999999997 Q 3.716186279296875 1.4764874999999997 3.683561279296875 1.5031124999999996 Q 3.650936279296875 1.5297374999999995 3.650936279296875 1.5754874999999997 Q 3.650936279296875 1.6069874999999996 3.666311279296875 1.6249874999999996 Q 3.681686279296875 1.6429874999999996 3.714686279296875 1.6542374999999996 Q 3.747686279296875 1.6654874999999996 3.798686279296875 1.6774874999999996 Q 3.855686279296875 1.6894874999999996 3.896936279296875 1.7059874999999995 Q 3.938186279296875 1.7224874999999997 3.960686279296875 1.7506124999999997 Q 3.983186279296875 1.7787374999999996 3.983186279296875 1.8267374999999997 Q 3.983186279296875 1.8634874999999997 3.968936279296875 1.8904874999999997 Q 3.954686279296875 1.9174874999999996 3.929186279296875 1.9354874999999996 Q 3.903686279296875 1.9534874999999996 3.868436279296875 1.9621124999999997 Q 3.833186279296875 1.9707374999999996 3.791186279296875 1.9707374999999996 Q 3.749936279296875 1.9707374999999996 3.712061279296875 1.9621124999999997 Q 3.674186279296875 1.9534874999999996 3.640436279296875 1.9366124999999996 Q 3.606686279296875 1.9197374999999997 3.577436279296875 1.8934874999999995 L 3.603686279296875 1.8507374999999997 Q 3.617936279296875 1.8657374999999996 3.637811279296875 1.8788624999999997 Q 3.657686279296875 1.8919874999999997 3.682061279296875 1.9024874999999997 Q 3.706436279296875 1.9129874999999996 3.734561279296875 1.9186124999999996 Q 3.762686279296875 1.9242374999999996 3.792686279296875 1.9242374999999996 Q 3.856436279296875 1.9242374999999996 3.892061279296875 1.9009874999999996 Q 3.927686279296875 1.8777374999999996 3.927686279296875 1.8319874999999997 Q 3.927686279296875 1.7989874999999995 3.909686279296875 1.7791124999999997 Q 3.891686279296875 1.7592374999999996 3.855686279296875 1.7464874999999997 Q 3.819686279296875 1.7337374999999997 3.767186279296875 1.7217374999999997 Q 3.711686279296875 1.7089874999999997 3.673436279296875 1.6932374999999995 Q 3.635186279296875 1.6774874999999996 3.616061279296875 1.6516124999999997 Q 3.596936279296875 1.6257374999999996 3.596936279296875 1.5829874999999995 Q 3.596936279296875 1.5334874999999997 3.621311279296875 1.4993624999999997 Q 3.645686279296875 1.4652374999999997 3.688436279296875 1.4476124999999995 Q 3.731186279296875 1.4299874999999997 3.786686279296875 1.4299874999999997 Q 3.821936279296875 1.4299874999999997 3.852311279296875 1.4371124999999996 Q 3.882686279296875 1.4442374999999996 3.908561279296875 1.4577374999999995 Q 3.9344362792968752 1.4712374999999995 3.956936279296875 1.4914874999999996 L 3.931436279296875 1.5334874999999997 M 4.624435913085938 1.9197374999999997 L 4.624435913085938 1.9662374999999996 L 4.266685913085937 1.9662374999999996 L 4.266685913085937 1.4337374999999997 L 4.617685913085937 1.4337374999999997 L 4.617685913085937 1.4802374999999997 L 4.319185913085938 1.4802374999999997 L 4.319185913085938 1.6722374999999996 L 4.579435913085938 1.6722374999999996 L 4.579435913085938 1.7164874999999997 L 4.319185913085938 1.7164874999999997 L 4.319185913085938 1.9197374999999997 L 4.624435913085938 1.9197374999999997 M 4.888442504882812 1.4337374999999997 L 4.932692504882812 1.4337374999999997 L 5.153942504882813 1.9662374999999996 L 5.098442504882812 1.9662374999999996 L 5.029442504882812 1.7997374999999995 L 4.790192504882812 1.7997374999999995 L 4.721942504882812 1.9662374999999996 L 4.665692504882813 1.9662374999999996 L 4.888442504882812 1.4337374999999997 M 5.017442504882813 1.7584874999999995 L 4.910192504882812 1.4952374999999996 L 4.801442504882813 1.7584874999999995 L 5.017442504882813 1.7584874999999995 M 5.230461547851562 1.9662374999999996 L 5.230461547851562 1.4337374999999997 L 5.455461547851563 1.4337374999999997 Q 5.489961547851562 1.4337374999999997 5.518461547851563 1.4479874999999995 Q 5.546961547851563 1.4622374999999996 5.568336547851563 1.4866124999999997 Q 5.589711547851563 1.5109874999999997 5.601336547851562 1.5406124999999995 Q 5.612961547851563 1.5702374999999997 5.612961547851563 1.6009874999999996 Q 5.612961547851563 1.6392374999999997 5.598336547851562 1.6729874999999996 Q 5.583711547851562 1.7067374999999996 5.557086547851562 1.7299874999999996 Q 5.530461547851562 1.7532374999999996 5.494461547851563 1.7607374999999996 L 5.624961547851562 1.9662374999999996 L 5.565711547851563 1.9662374999999996 L 5.440461547851562 1.7697374999999997 L 5.282961547851563 1.7697374999999997 L 5.282961547851563 1.9662374999999996 L 5.230461547851562 1.9662374999999996 M 5.282961547851563 1.7232374999999998 L 5.456961547851563 1.7232374999999998 Q 5.488461547851562 1.7232374999999998 5.511711547851562 1.7059874999999995 Q 5.534961547851562 1.6887374999999996 5.547711547851563 1.6606124999999996 Q 5.560461547851562 1.6324874999999996 5.560461547851562 1.6009874999999996 Q 5.560461547851562 1.5687374999999997 5.545836547851563 1.5413624999999995 Q 5.531211547851562 1.5139874999999996 5.506836547851562 1.4971124999999996 Q 5.482461547851562 1.4802374999999997 5.452461547851563 1.4802374999999997 L 5.282961547851563 1.4802374999999997 L 5.282961547851563 1.7232374999999998 M 5.772722900390625 1.5304874999999996 L 5.772722900390625 1.9662374999999996 L 5.720222900390625 1.9662374999999996 L 5.720222900390625 1.4337374999999997 L 5.763722900390625 1.4337374999999997 L 6.113222900390625 1.8777374999999996 L 6.113222900390625 1.4344874999999995 L 6.165722900390625 1.4344874999999995 L 6.165722900390625 1.9662374999999996 L 6.116972900390625 1.9662374999999996 L 5.772722900390625 1.5304874999999996 M 6.610452392578125 1.5334874999999997 Q 6.599202392578125 1.5207374999999996 6.584202392578125 1.5106124999999997 Q 6.569202392578125 1.5004874999999998 6.550452392578125 1.4929874999999997 Q 6.531702392578125 1.4854874999999996 6.510327392578125 1.4809874999999997 Q 6.488952392578125 1.4764874999999997 6.464952392578125 1.4764874999999997 Q 6.395202392578125 1.4764874999999997 6.362577392578125 1.5031124999999996 Q 6.329952392578125 1.5297374999999995 6.329952392578125 1.5754874999999997 Q 6.329952392578125 1.6069874999999996 6.345327392578125 1.6249874999999996 Q 6.360702392578125 1.6429874999999996 6.393702392578125 1.6542374999999996 Q 6.426702392578125 1.6654874999999996 6.477702392578125 1.6774874999999996 Q 6.534702392578125 1.6894874999999996 6.575952392578125 1.7059874999999995 Q 6.617202392578125 1.7224874999999997 6.639702392578125 1.7506124999999997 Q 6.662202392578125 1.7787374999999996 6.662202392578125 1.8267374999999997 Q 6.662202392578125 1.8634874999999997 6.647952392578125 1.8904874999999997 Q 6.633702392578125 1.9174874999999996 6.608202392578125 1.9354874999999996 Q 6.582702392578125 1.9534874999999996 6.547452392578125 1.9621124999999997 Q 6.512202392578125 1.9707374999999996 6.470202392578125 1.9707374999999996 Q 6.428952392578125 1.9707374999999996 6.391077392578125 1.9621124999999997 Q 6.353202392578125 1.9534874999999996 6.319452392578125 1.9366124999999996 Q 6.285702392578125 1.9197374999999997 6.256452392578125 1.8934874999999995 L 6.282702392578125 1.8507374999999997 Q 6.296952392578125 1.8657374999999996 6.316827392578125 1.8788624999999997 Q 6.336702392578125 1.8919874999999997 6.3610773925781245 1.9024874999999997 Q 6.385452392578125 1.9129874999999996 6.413577392578125 1.9186124999999996 Q 6.441702392578125 1.9242374999999996 6.471702392578125 1.9242374999999996 Q 6.535452392578125 1.9242374999999996 6.571077392578125 1.9009874999999996 Q 6.606702392578125 1.8777374999999996 6.606702392578125 1.8319874999999997 Q 6.606702392578125 1.7989874999999995 6.588702392578125 1.7791124999999997 Q 6.570702392578125 1.7592374999999996 6.534702392578125 1.7464874999999997 Q 6.498702392578125 1.7337374999999997 6.446202392578125 1.7217374999999997 Q 6.390702392578125 1.7089874999999997 6.352452392578125 1.6932374999999995 Q 6.314202392578125 1.6774874999999996 6.295077392578125 1.6516124999999997 Q 6.275952392578125 1.6257374999999996 6.275952392578125 1.5829874999999995 Q 6.275952392578125 1.5334874999999997 6.300327392578125 1.4993624999999997 Q 6.324702392578125 1.4652374999999997 6.367452392578125 1.4476124999999995 Q 6.410202392578125 1.4299874999999997 6.465702392578125 1.4299874999999997 Q 6.500952392578125 1.4299874999999997 6.531327392578125 1.4371124999999996 Q 6.561702392578125 1.4442374999999996 6.587577392578125 1.4577374999999995 Q 6.613452392578125 1.4712374999999995 6.635952392578125 1.4914874999999996 L 6.610452392578125 1.5334874999999997 M 7.301958251953125 1.4802374999999997 L 7.112208251953125 1.4802374999999997 L 7.112208251953125 1.9662374999999996 L 7.059708251953125 1.9662374999999996 L 7.059708251953125 1.4802374999999997 L 6.869958251953125 1.4802374999999997 L 6.869958251953125 1.4337374999999997 L 7.301958251953125 1.4337374999999997 L 7.301958251953125 1.4802374999999997 M 7.381447265625 1.9662374999999996 L 7.381447265625 1.4337374999999997 L 7.606447265625 1.4337374999999997 Q 7.640947265625 1.4337374999999997 7.669447265625 1.4479874999999995 Q 7.697947265625 1.4622374999999996 7.719322265625 1.4866124999999997 Q 7.740697265625 1.5109874999999997 7.752322265625 1.5406124999999995 Q 7.763947265625 1.5702374999999997 7.763947265625 1.6009874999999996 Q 7.763947265625 1.6392374999999997 7.749322265625 1.6729874999999996 Q 7.734697265625 1.7067374999999996 7.708072265625 1.7299874999999996 Q 7.681447265625 1.7532374999999996 7.645447265625 1.7607374999999996 L 7.775947265625 1.9662374999999996 L 7.716697265625 1.9662374999999996 L 7.591447265625 1.7697374999999997 L 7.433947265625 1.7697374999999997 L 7.433947265625 1.9662374999999996 L 7.381447265625 1.9662374999999996 M 7.433947265625 1.7232374999999998 L 7.6079472656250005 1.7232374999999998 Q 7.639447265625 1.7232374999999998 7.662697265625 1.7059874999999995 Q 7.685947265625 1.6887374999999996 7.698697265625 1.6606124999999996 Q 7.711447265625 1.6324874999999996 7.711447265625 1.6009874999999996 Q 7.711447265625 1.5687374999999997 7.696822265625 1.5413624999999995 Q 7.682197265625 1.5139874999999996 7.657822265625 1.4971124999999996 Q 7.633447265625 1.4802374999999997 7.603447265625 1.4802374999999997 L 7.433947265625 1.4802374999999997 L 7.433947265625 1.7232374999999998 M 8.087958618164063 1.9699874999999996 Q 8.024958618164062 1.9699874999999996 7.981458618164062 1.9474874999999996 Q 7.937958618164062 1.9249874999999996 7.912458618164062 1.8871124999999997 Q 7.886958618164062 1.8492374999999996 7.8753336181640625 1.8012374999999996 Q 7.863708618164062 1.7532374999999996 7.863708618164062 1.7022374999999996 L 7.863708618164062 1.4337374999999997 L 7.915458618164062 1.4337374999999997 L 7.915458618164062 1.7022374999999996 Q 7.915458618164062 1.7434874999999996 7.924083618164063 1.7832374999999996 Q 7.932708618164063 1.8229874999999995 7.952208618164063 1.8544874999999996 Q 7.971708618164063 1.8859874999999997 8.004708618164063 1.9043624999999997 Q 8.037708618164062 1.9227374999999995 8.087208618164063 1.9227374999999995 Q 8.138208618164063 1.9227374999999995 8.171583618164062 1.9036124999999997 Q 8.204958618164062 1.8844874999999996 8.224083618164062 1.8529874999999996 Q 8.243208618164063 1.8214874999999997 8.251458618164062 1.7821124999999995 Q 8.259708618164062 1.7427374999999996 8.259708618164062 1.7022374999999996 L 8.259708618164062 1.4337374999999997 L 8.312208618164062 1.4337374999999997 L 8.312208618164062 1.7022374999999996 Q 8.312208618164062 1.7554874999999996 8.300208618164062 1.8042374999999997 Q 8.288208618164063 1.8529874999999996 8.261583618164062 1.8897374999999996 Q 8.234958618164063 1.9264874999999997 8.192208618164063 1.9482374999999996 Q 8.149458618164063 1.9699874999999996 8.087958618164063 1.9699874999999996 M 8.748712280273438 1.5334874999999997 Q 8.737462280273437 1.5207374999999996 8.722462280273437 1.5106124999999997 Q 8.707462280273438 1.5004874999999998 8.688712280273437 1.4929874999999997 Q 8.669962280273438 1.4854874999999996 8.648587280273437 1.4809874999999997 Q 8.627212280273438 1.4764874999999997 8.603212280273437 1.4764874999999997 Q 8.533462280273438 1.4764874999999997 8.500837280273437 1.5031124999999996 Q 8.468212280273438 1.5297374999999995 8.468212280273438 1.5754874999999997 Q 8.468212280273438 1.6069874999999996 8.483587280273438 1.6249874999999996 Q 8.498962280273437 1.6429874999999996 8.531962280273438 1.6542374999999996 Q 8.564962280273438 1.6654874999999996 8.615962280273438 1.6774874999999996 Q 8.672962280273438 1.6894874999999996 8.714212280273438 1.7059874999999995 Q 8.755462280273438 1.7224874999999997 8.777962280273437 1.7506124999999997 Q 8.800462280273438 1.7787374999999996 8.800462280273438 1.8267374999999997 Q 8.800462280273438 1.8634874999999997 8.786212280273437 1.8904874999999997 Q 8.771962280273437 1.9174874999999996 8.746462280273438 1.9354874999999996 Q 8.720962280273438 1.9534874999999996 8.685712280273437 1.9621124999999997 Q 8.650462280273437 1.9707374999999996 8.608462280273438 1.9707374999999996 Q 8.567212280273438 1.9707374999999996 8.529337280273438 1.9621124999999997 Q 8.491462280273437 1.9534874999999996 8.457712280273437 1.9366124999999996 Q 8.423962280273438 1.9197374999999997 8.394712280273437 1.8934874999999995 L 8.420962280273438 1.8507374999999997 Q 8.435212280273438 1.8657374999999996 8.455087280273437 1.8788624999999997 Q 8.474962280273438 1.8919874999999997 8.499337280273437 1.9024874999999997 Q 8.523712280273438 1.9129874999999996 8.551837280273437 1.9186124999999996 Q 8.579962280273438 1.9242374999999996 8.609962280273438 1.9242374999999996 Q 8.673712280273438 1.9242374999999996 8.709337280273438 1.9009874999999996 Q 8.744962280273437 1.8777374999999996 8.744962280273437 1.8319874999999997 Q 8.744962280273437 1.7989874999999995 8.726962280273437 1.7791124999999997 Q 8.708962280273438 1.7592374999999996 8.672962280273438 1.7464874999999997 Q 8.636962280273437 1.7337374999999997 8.584462280273437 1.7217374999999997 Q 8.528962280273438 1.7089874999999997 8.490712280273437 1.6932374999999995 Q 8.452462280273437 1.6774874999999996 8.433337280273438 1.6516124999999997 Q 8.414212280273437 1.6257374999999996 8.414212280273437 1.5829874999999995 Q 8.414212280273437 1.5334874999999997 8.438587280273438 1.4993624999999997 Q 8.462962280273437 1.4652374999999997 8.505712280273437 1.4476124999999995 Q 8.548462280273437 1.4299874999999997 8.603962280273437 1.4299874999999997 Q 8.639212280273437 1.4299874999999997 8.669587280273438 1.4371124999999996 Q 8.699962280273438 1.4442374999999996 8.725837280273437 1.4577374999999995 Q 8.751712280273438 1.4712374999999995 8.774212280273437 1.4914874999999996 L 8.748712280273438 1.5334874999999997 M 9.269975830078126 1.4802374999999997 L 9.080225830078126 1.4802374999999997 L 9.080225830078126 1.9662374999999996 L 9.027725830078126 1.9662374999999996 L 9.027725830078126 1.4802374999999997 L 8.837975830078125 1.4802374999999997 L 8.837975830078125 1.4337374999999997 L 9.269975830078126 1.4337374999999997 L 9.269975830078126 1.4802374999999997" fill="#faecd3" fill-rule="nonzero"></path></g><g clip-path="url(#SvgjsClipPath1001)"><g clip-path="url(#SvgjsClipPath100015e3a2be-3a76-43f7-8529-49122ad36301)"><path d=" M -0.3999999999999999 1.4986381696747368 L -0.3999999999999999 1.1766896496314818 L -0.7352982372592194 0.9831835544525045 L -1.9070923474488608 1.6596124296963646 L -1.2928757466094944 2.0142223938019788 L -0.3999999999999999 1.4986381696747368 Z" fill="#a4c868" transform="matrix(1,0,0,1,0,0)" fill-rule="evenodd"></path></g><g clip-path="url(#SvgjsClipPath100015e3a2be-3a76-43f7-8529-49122ad36301)"><path d=" M -0.6787887546751377 0.30662507030363517 L -1.2928757466094944 0.66110542550424 L -0.3999999999999999 1.1766896496314818 L -0.3999999999999999 0.4675993303252627 L -0.6787887546751377 0.30662507030363517 Z" fill="#67a97b" transform="matrix(1,0,0,1,0,0)" fill-rule="evenodd"></path></g><g clip-path="url(#SvgjsClipPath100015e3a2be-3a76-43f7-8529-49122ad36301)"><path d=" M -2.1858811021239983 0.4675993303252627 L -2.1858811021239983 0.7895478503685176 L -1.8505828648647789 0.9830539455474951 L -0.6787887546751377 0.30662507030363517 L -1.2928757466094944 -0.04798489380197912 L -2.1858811021239983 0.4675993303252627 Z" fill="#a4c868" transform="matrix(1,0,0,1,0,0)" fill-rule="evenodd"></path></g><g clip-path="url(#SvgjsClipPath100015e3a2be-3a76-43f7-8529-49122ad36301)"><path d=" M -1.2928757466094944 1.3051320744957595 L -2.1858811021239983 0.7895478503685176 L -2.1858811021239983 1.4986381696747368 L -1.9070923474488608 1.6596124296963646 L -1.2928757466094944 1.3051320744957595 Z" fill="#67a97b" transform="matrix(1,0,0,1,0,0)" fill-rule="evenodd"></path></g></g></g><defs><clipPath id="SvgjsClipPath1001"><path d=" M -2.1858811021239983 -0.04798489380197912 h 1.7858811021239984 v 2.062207287603958 h -1.7858811021239984 Z"></path></clipPath><clipPath id="SvgjsClipPath100015e3a2be-3a76-43f7-8529-49122ad36301"><path d=" M -2.1858811021239983 -0.04798489380197912 L -0.3999999999999999 -0.04798489380197912 L -0.3999999999999999 2.0142223938019788 L -2.1858811021239983 2.0142223938019788 Z"></path></clipPath></defs></svg>