<svg xmlns="http://www.w3.org/2000/svg" version="1.1" xmlns:xlink="http://www.w3.org/1999/xlink" xmlns:svgjs="http://svgjs.dev/svgjs" viewBox="0 0 8.27186417490267 1.710864188230964"><g transform="matrix(1,0,0,1,1.666555703477465,0.4557111583312933)"><g><path d=" M 0.06829965569421713 0.7994418715683775 L 0.06829965569421713 0.004478665947161731 L 0.37396860658800857 0.004478665947161731 Q 0.506089252029281 0.004478665947161731 0.5951027377291215 0.057662824069707797 Q 0.6841162234289618 0.11084698219225397 0.7294627161439748 0.20098013437888473 Q 0.7748092088589879 0.2911132865655156 0.7748092088589879 0.4008406022709792 Q 0.7748092088589879 0.5217645828443472 0.724984050196813 0.6113379017875828 Q 0.6751588915346383 0.7009112207308184 0.5850257393480074 0.750176546149598 Q 0.49489258716137663 0.7994418715683775 0.37396860658800857 0.7994418715683775 L 0.06829965569421713 0.7994418715683775 M 0.5531152444744798 0.4008406022709792 Q 0.5531152444744798 0.33925894549750474 0.5318415812254613 0.29279278629570127 Q 0.5105679179764429 0.24632662709389774 0.47025992445198683 0.22057429789771754 Q 0.4299519309275308 0.19482196870153734 0.37396860658800857 0.19482196870153734 L 0.2866346206183539 0.19482196870153734 L 0.2866346206183539 0.6090985688140019 L 0.37396860658800857 0.6090985688140019 Q 0.4310715974143213 0.6090985688140019 0.47081975769538204 0.5822265731310312 Q 0.5105679179764429 0.5553545774480606 0.5318415812254613 0.5077687517594667 Q 0.5531152444744798 0.46018292607087274 0.5531152444744798 0.4008406022709792 M 1.0200292905577375 0.004478665947161731 L 1.2641165846780544 0.004478665947161731 L 1.5171612106926948 0.7994418715683775 L 1.2954672463081867 0.7994418715683775 L 1.2473215873761978 0.6438082299045057 L 1.0357046213728036 0.6438082299045057 L 0.9886786289276049 0.7994418715683775 L 0.7658649980563064 0.7994418715683775 L 1.0200292905577375 0.004478665947161731 M 1.2126119262856938 0.4982515866217479 L 1.142072937617896 0.21833496492413662 L 1.0681749494897266 0.4982515866217479 L 1.2126119262856938 0.4982515866217479 M 1.5820931195321124 0.7994418715683775 L 1.5820931195321124 0.004478665947161731 L 1.9247110644899887 0.004478665947161731 Q 1.9829337218030918 0.004478665947161731 2.032199047221871 0.02799166216976101 Q 2.0814643726406508 0.0515046583923604 2.117293700217945 0.09125281867342117 Q 2.1531230277952393 0.13100097895448193 2.172717191314072 0.18026630437326152 Q 2.192311354832905 0.22953162979204111 2.192311354832905 0.2799166216976111 Q 2.192311354832905 0.3504556103654092 2.159281193472587 0.41315693362567407 Q 2.1262510321122687 0.47585825688593897 2.0674685415557703 0.5156064171669998 Q 2.008686050999272 0.5553545774480606 1.9303093969239409 0.5553545774480606 L 1.8004280844562492 0.5553545774480606 L 1.8004280844562492 0.7994418715683775 L 1.5820931195321124 0.7994418715683775 M 1.8004280844562492 0.36501127469368494 L 1.915753732595665 0.36501127469368494 Q 1.9291897304371504 0.36501127469368494 1.9415060617918454 0.3571736092861518 Q 1.9538223931465402 0.3493359438786187 1.9622198917974685 0.33030161360318117 Q 1.9706173904483968 0.3112672833277436 1.9706173904483968 0.2799166216976111 Q 1.9706173904483968 0.24632662709389774 1.9611002253106782 0.22785213006185545 Q 1.9515830601729593 0.20937763302981316 1.9375872290880787 0.20209980086567525 Q 1.9235913980031982 0.19482196870153734 1.9101554001617127 0.19482196870153734 L 1.8004280844562492 0.19482196870153734 L 1.8004280844562492 0.36501127469368494 M 2.2785098196633684 0.7994418715683775 L 2.2785098196633684 0.004478665947161731 L 2.6211277646212445 0.004478665947161731 Q 2.6793504219343474 0.004478665947161731 2.728615747353127 0.02799166216976101 Q 2.7778810727719065 0.0515046583923604 2.813710400349201 0.09125281867342117 Q 2.849539727926495 0.13100097895448193 2.869133891445328 0.18026630437326152 Q 2.8887280549641607 0.22953162979204111 2.8887280549641607 0.2799166216976111 Q 2.8887280549641607 0.3504556103654092 2.8556978936038426 0.41315693362567407 Q 2.8226677322435245 0.47585825688593897 2.763885241687026 0.5156064171669998 Q 2.7051027511305277 0.5553545774480606 2.6267260970551964 0.5553545774480606 L 2.496844784587505 0.5553545774480606 L 2.496844784587505 0.7994418715683775 L 2.2785098196633684 0.7994418715683775 M 2.496844784587505 0.36501127469368494 L 2.612170432726921 0.36501127469368494 Q 2.625606430568406 0.36501127469368494 2.637922761923101 0.3571736092861518 Q 2.650239093277796 0.3493359438786187 2.6586365919287243 0.33030161360318117 Q 2.667034090579653 0.3112672833277436 2.667034090579653 0.2799166216976111 Q 2.667034090579653 0.24632662709389774 2.657516925441934 0.22785213006185545 Q 2.647999760304215 0.20937763302981316 2.6340039292193347 0.20209980086567525 Q 2.620008098134454 0.19482196870153734 2.6065721002929685 0.19482196870153734 L 2.496844784587505 0.19482196870153734 L 2.496844784587505 0.36501127469368494 M 3.194336867521259 0.7994418715683775 L 3.194336867521259 0.004478665947161731 L 3.7396144465882055 0.004478665947161731 L 3.7396144465882055 0.19482196870153734 L 3.4126718324453957 0.19482196870153734 L 3.4126718324453957 0.32694261414280984 L 3.6791524563015217 0.32694261414280984 L 3.6791524563015217 0.5038499190557001 L 3.4126718324453957 0.5038499190557001 L 3.4126718324453957 0.7994418715683775 L 3.194336867521259 0.7994418715683775 M 4.171823751990325 0.8061598704891202 Q 4.0811307665603 0.8061598704891202 4.0072327784321295 0.7720100426420117 Q 3.9333347903039604 0.737860214794903 3.8801506321814143 0.6801973907251951 Q 3.8269664740588683 0.6225345666554872 3.7984149786457118 0.5503160782575036 Q 3.7698634832325553 0.4780975898595199 3.7698634832325553 0.4008406022709792 Q 3.7698634832325553 0.3213442817088576 3.8000944783758976 0.24968562655426918 Q 3.8303254735192396 0.1780269713996807 3.884629298128576 0.12148381381676321 Q 3.9389331227379127 0.0649406562338457 4.013390944109477 0.03247032811692285 Q 4.087848765481041 -1.1102230246251565e-16 4.176302417937487 -1.1102230246251565e-16 Q 4.266995403367513 -1.1102230246251565e-16 4.340893391495682 0.034149827847108516 Q 4.414791379623852 0.06829965569421703 4.4674157045030025 0.1265223130073202 Q 4.520040029382153 0.18474497032042336 4.5485915247953095 0.256963458718407 Q 4.577143020208466 0.3291819471163907 4.577143020208466 0.40531926821814096 Q 4.577143020208466 0.4836959222934721 4.547471858308519 0.5553545774480606 Q 4.517800696408573 0.6270132326026491 4.4634968717992365 0.6835563901855665 Q 4.409193047189899 0.740099547768484 4.33529505906173 0.7731297091288021 Q 4.261397070933561 0.8061598704891202 4.171823751990325 0.8061598704891202 M 3.9915574476170637 0.4030799352445601 Q 3.9915574476170637 0.44338792876901606 4.002754112484968 0.480896756076496 Q 4.013950777352872 0.5184055833839759 4.036344107088682 0.5480767452839227 Q 4.05873743682449 0.5777479071838695 4.092887264671599 0.5951027377291214 Q 4.127037092518707 0.6124575682743733 4.174063084963906 0.6124575682743733 Q 4.221089077409105 0.6124575682743733 4.2557987384996085 0.5945429044857261 Q 4.290508399590112 0.5766282406970791 4.312341896082526 0.5458374123103418 Q 4.33417539257494 0.5150465839236045 4.344812224199449 0.47753775661612463 Q 4.355449055823958 0.44002892930864473 4.355449055823958 0.4008406022709792 Q 4.355449055823958 0.36053260874652315 4.344252390956053 0.3235836146824385 Q 4.3330557260881495 0.28663462061835376 4.31066239635234 0.256963458718407 Q 4.2882690666165315 0.2272922968184602 4.253559405526028 0.21049729951660356 Q 4.2188497444355235 0.19370230221474694 4.172943418477115 0.19370230221474694 Q 4.125917426031917 0.19370230221474694 4.091767598184808 0.21161696600339397 Q 4.0576177703377 0.22953162979204111 4.0352244406018904 0.2592027916919879 Q 4.012831110866082 0.2888739535919347 4.002194279241573 0.3263827808994146 Q 3.9915574476170637 0.3638916082068945 3.9915574476170637 0.4030799352445601 M 4.668972073489835 0.7994418715683775 L 4.668972073489835 0.004478665947161731 L 5.03398334818352 0.004478665947161731 Q 5.092206005496624 0.004478665947161731 5.141471330915403 0.02799166216976101 Q 5.190736656334183 0.0515046583923604 5.226565983911477 0.09125281867342117 Q 5.2623953114887705 0.13100097895448193 5.281989475007603 0.18026630437326152 Q 5.301583638526436 0.22953162979204111 5.301583638526436 0.2799166216976111 Q 5.301583638526436 0.3258229476560194 5.288147640684951 0.36837027415405627 Q 5.2747116428434655 0.4109176006520932 5.248959313647285 0.4461870949859922 Q 5.223206984451105 0.4814565893198912 5.187377656873811 0.5072089185160714 L 5.355327629892377 0.7994418715683775 L 5.1157190017192224 0.7994418715683775 L 4.975760690870417 0.5553545774480606 L 4.887307038413972 0.5553545774480606 L 4.887307038413972 0.7994418715683775 L 4.668972073489835 0.7994418715683775 M 4.887307038413972 0.36501127469368494 L 5.025026016289196 0.36501127469368494 Q 5.0384620141306815 0.36501127469368494 5.0507783454853765 0.35493427631257096 Q 5.0630946768400715 0.34485727793145693 5.071492175491 0.3258229476560194 Q 5.079889674141929 0.30678861738058183 5.079889674141929 0.2799166216976111 Q 5.079889674141929 0.25192495952785 5.070372509004209 0.2334504624958077 Q 5.060855343866491 0.2149759654637653 5.0468595127816105 0.20489896708265132 Q 5.03286368169673 0.19482196870153734 5.019427683855245 0.19482196870153734 L 4.887307038413972 0.19482196870153734 L 4.887307038413972 0.36501127469368494 M 6.02487452118927 0.7994418715683775 L 6.02487452118927 0.38068660550875116 L 5.891634209261206 0.6751588915346382 L 5.775188894635001 0.6751588915346382 L 5.641948582706938 0.38068660550875116 L 5.641948582706938 0.7994418715683775 L 5.4236136177828005 0.7994418715683775 L 5.4236136177828005 0.004478665947161731 L 5.662102579469166 0.004478665947161731 L 5.833411551948104 0.3784472725351703 L 6.005840190913832 0.004478665947161731 L 6.243209486113407 0.004478665947161731 L 6.243209486113407 0.7994418715683775 L 6.02487452118927 0.7994418715683775" fill="#1c3423" fill-rule="nonzero"></path></g><g></g><g clip-path="url(#SvgjsClipPath1020)"><g clip-path="url(#SvgjsClipPath10188d3b4894-2afe-47cf-a95c-8c64ee9e94aa)"><path d=" M -0.3999999999999999 0.6805218555467523 L -0.3999999999999999 0.5051580630413575 L -0.5826353185231306 0.39975623445417774 L -1.2209058692643842 0.7682037517994498 L -0.8863450751085606 0.9613580739793048 L -0.3999999999999999 0.6805218555467523 Z" fill="#a4c868" transform="matrix(1,0,0,1,0,0)" fill-rule="evenodd"></path></g><g clip-path="url(#SvgjsClipPath10188d3b4894-2afe-47cf-a95c-8c64ee9e94aa)"><path d=" M -0.551854878292715 0.031238119768927847 L -0.8863450751085606 0.224321844608805 L -0.3999999999999999 0.5051580630413575 L -0.3999999999999999 0.11892001602162522 L -0.551854878292715 0.031238119768927847 Z" fill="#67a97b" transform="matrix(1,0,0,1,0,0)" fill-rule="evenodd"></path></g><g clip-path="url(#SvgjsClipPath10188d3b4894-2afe-47cf-a95c-8c64ee9e94aa)"><path d=" M -1.3727607475570993 0.11892001602162522 L -1.3727607475570993 0.29428380852701996 L -1.1901254290339687 0.3996856371141998 L -0.551854878292715 0.031238119768927847 L -0.8863450751085606 -0.1619162024109273 L -1.3727607475570993 0.11892001602162522 Z" fill="#a4c868" transform="matrix(1,0,0,1,0,0)" fill-rule="evenodd"></path></g><g clip-path="url(#SvgjsClipPath10188d3b4894-2afe-47cf-a95c-8c64ee9e94aa)"><path d=" M -0.8863450751085606 0.5751200269595725 L -1.3727607475570993 0.29428380852701996 L -1.3727607475570993 0.6805218555467523 L -1.2209058692643842 0.7682037517994498 L -0.8863450751085606 0.5751200269595725 Z" fill="#67a97b" transform="matrix(1,0,0,1,0,0)" fill-rule="evenodd"></path></g></g></g><defs><clipPath id="SvgjsClipPath1020"><path d=" M -1.3727607475570993 -0.1619162024109273 h 0.9727607475570994 v 1.1232742763902321 h -0.9727607475570994 Z"></path></clipPath><clipPath id="SvgjsClipPath10188d3b4894-2afe-47cf-a95c-8c64ee9e94aa"><path d=" M -1.3727607475570993 -0.1619162024109273 L -0.3999999999999999 -0.1619162024109273 L -0.3999999999999999 0.9613580739793048 L -1.3727607475570993 0.9613580739793048 Z"></path></clipPath></defs></svg>