<svg xmlns="http://www.w3.org/2000/svg" version="1.1" xmlns:xlink="http://www.w3.org/1999/xlink" xmlns:svgjs="http://svgjs.dev/svgjs" viewBox="0 0 10.596417502845616 2.9030180812465414"><g transform="matrix(1,0,0,1,2.5900006597741294,0.6777757128264773)"><g><path d=" M 0.5475169120405275 0.6550048947724102 L 0.2071383000562323 0.6550048947724102 L 0.14443697679596737 0.8285532002249292 L 0.03694899406408468 0.8285532002249292 L 0.3191049487352768 0.05262432487915092 L 0.43666992984827346 0.05262432487915092 L 0.7177062180326751 0.8285532002249292 L 0.6102182353007924 0.8285532002249292 L 0.5475169120405275 0.6550048947724102 M 0.5184055833839759 0.5721495747499172 L 0.3773276060483799 0.1780269713996807 L 0.23624962871278385 0.5721495747499172 L 0.5184055833839759 0.5721495747499172 M 0.9416520897702545 0 L 0.9416520897702545 0.8285532002249292 L 0.839762439472324 0.8285532002249292 L 0.839762439472324 0 L 0.9416520897702545 0 M 1.2383319994649207 0.2989509519730488 L 1.2383319994649207 0.6606032272063624 Q 1.2383319994649207 0.7053898866779802 1.2573663297403581 0.7238643837100226 Q 1.2764006600157958 0.7423388807420649 1.3234266524609946 0.7423388807420649 L 1.3984443070759542 0.7423388807420649 L 1.3984443070759542 0.8285532002249292 L 1.3066316551591377 0.8285532002249292 Q 1.221537002163064 0.8285532002249292 1.178989675665027 0.7893648731872636 Q 1.1364423491669902 0.7501765461495981 1.1364423491669902 0.6606032272063624 L 1.1364423491669902 0.2989509519730488 L 1.0569460286048686 0.2989509519730488 L 1.0569460286048686 0.2149759654637654 L 1.1364423491669902 0.2149759654637654 L 1.1364423491669902 0.060461990286683975 L 1.2383319994649207 0.060461990286683975 L 1.2383319994649207 0.2149759654637654 L 1.3984443070759542 0.2149759654637654 L 1.3984443070759542 0.2989509519730488 L 1.2383319994649207 0.2989509519730488 M 1.989083686798163 0.46130259255766326 Q 2.024353181132062 0.4892942547274244 2.045067011137685 0.5307219147386708 Q 2.0657808411433085 0.5721495747499172 2.0657808411433085 0.619175567195116 Q 2.0657808411433085 0.6785178909950096 2.0355498459999666 0.7261037166836035 Q 2.005318850856624 0.7736895423721973 1.9476560267869165 0.8011213712985633 Q 1.8899932027172086 0.8285532002249292 1.8116165486418774 0.8285532002249292 L 1.5205032620763617 0.8285532002249292 L 1.5205032620763617 0.04814565893198919 L 1.8004198837739729 0.04814565893198919 Q 1.8799162043360944 0.04814565893198919 1.9358995286756167 0.07445782137156454 Q 1.991882853015139 0.10076998381114 2.0198745151849002 0.14555664328275786 Q 2.047866177354661 0.1903433027543756 2.047866177354661 0.24632662709389785 Q 2.047866177354661 0.3157459492749054 2.0103573500471814 0.36109244198991847 Q 1.9728485227397015 0.4064389347049315 1.911266865966227 0.4265929314671595 Q 1.953814192464264 0.43331093038790214 1.989083686798163 0.46130259255766326 M 1.6223929123742922 0.385165271455913 L 1.7937018848532302 0.385165271455913 Q 1.8653605400078188 0.385165271455913 1.9045488670454844 0.3515752768521997 Q 1.94373719408315 0.3179852822484863 1.94373719408315 0.25864295844859275 Q 1.94373719408315 0.19930063464869918 1.9045488670454844 0.1657106400449858 Q 1.8653605400078188 0.13212064544127244 1.7914625518796494 0.13212064544127244 L 1.6223929123742922 0.13212064544127244 L 1.6223929123742922 0.385165271455913 M 1.921343864347341 0.7087488861383515 Q 1.963891190845378 0.6729195585610573 1.963891190845378 0.609098568814002 Q 1.963891190845378 0.5441579125801561 1.91910453137376 0.5066490852726763 Q 1.8743178719021423 0.46914025796519637 1.7993002172871826 0.46914025796519637 L 1.6223929123742922 0.46914025796519637 L 1.6223929123742922 0.7445782137156458 L 1.802659216747554 0.7445782137156458 Q 1.8787965378493041 0.7445782137156458 1.921343864347341 0.7087488861383515 M 2.205712363096678 0.3543744430691758 Q 2.2437810236475535 0.28327562115798255 2.310401179611585 0.24408729412031693 Q 2.3770213355756162 0.20489896708265143 2.458756989111319 0.20489896708265143 Q 2.539372976160231 0.20489896708265143 2.5987152999601246 0.2396086281731552 Q 2.658057623760018 0.274318289263659 2.6871689524165694 0.3269426141428099 L 2.6871689524165694 0.2149759654637654 L 2.7901782692012906 0.2149759654637654 L 2.7901782692012906 0.8285532002249292 L 2.6871689524165694 0.8285532002249292 L 2.6871689524165694 0.7143472185723038 Q 2.6569379572732275 0.7680912099382452 2.5970358002299387 0.8033607042721441 Q 2.53713364318665 0.8386301986060432 2.4576373226245285 0.8386301986060432 Q 2.375901669088826 0.8386301986060432 2.3098413463681897 0.7983222050815871 Q 2.2437810236475535 0.7580142115571311 2.205712363096678 0.6852358899157522 Q 2.1676437025458033 0.6124575682743734 2.1676437025458033 0.5195252498707664 Q 2.1676437025458033 0.425473264980369 2.205712363096678 0.3543744430691758 M 2.6591772902468085 0.3997209357841888 Q 2.631185628077047 0.34821627739182837 2.5835998023884534 0.3207844484654625 Q 2.5360139766998593 0.2933526195390965 2.4789109858735467 0.2933526195390965 Q 2.421807995047234 0.2933526195390965 2.3747820026020356 0.32022461522206724 Q 2.3277560101568366 0.3470966109050379 2.2997643479870757 0.39860126929739836 Q 2.2717726858173144 0.4501059276897588 2.2717726858173144 0.5195252498707664 Q 2.2717726858173144 0.5900642385385644 2.2997643479870757 0.6421287301743202 Q 2.3277560101568366 0.6941932218100758 2.3747820026020356 0.7216250507364417 Q 2.421807995047234 0.7490568796628077 2.4789109858735467 0.7490568796628077 Q 2.5360139766998593 0.7490568796628077 2.5835998023884534 0.7216250507364417 Q 2.631185628077047 0.6941932218100758 2.6591772902468085 0.6421287301743202 Q 2.6871689524165694 0.5900642385385644 2.6871689524165694 0.5206449163575568 Q 2.6871689524165694 0.4512255941765493 2.6591772902468085 0.3997209357841888 M 3.0522086561421458 0.8145573691400486 Q 2.9962253318026235 0.7904845396740541 2.9637550036857006 0.747377379932622 Q 2.9312846755687776 0.7042702201911898 2.9279256761084063 0.6482868958516675 L 3.033174325866708 0.6482868958516675 Q 3.0376529918138697 0.6941932218100758 3.07628148560814 0.7233045504666273 Q 3.1149099794024107 0.752415879123179 3.1776113026626756 0.752415879123179 Q 3.2358339599757784 0.752415879123179 3.269423954579492 0.7266635499269987 Q 3.3030139491832053 0.7009112207308185 3.3030139491832053 0.661722893693153 Q 3.3030139491832053 0.6214149001686968 3.267184621605911 0.6018207366498641 Q 3.2313552940286168 0.5822265731310313 3.156337639413657 0.5631922428555938 Q 3.08803798371944 0.5452775790669466 3.0449308239780075 0.5268030820349043 Q 3.0018236642365754 0.5083285850028619 2.9710328358498383 0.4719394241821725 Q 2.9402420074631013 0.43555026336148306 2.9402420074631013 0.3762079395615895 Q 2.9402420074631013 0.32918194711639076 2.968233669632862 0.2899936200787252 Q 2.9962253318026235 0.2508052930410597 3.0477299901949837 0.22785213006185556 Q 3.0992346485873443 0.20489896708265143 3.1652949713079805 0.20489896708265143 Q 3.267184621605911 0.20489896708265143 3.329885944866176 0.25640362547501183 Q 3.392587268126441 0.30790828386737235 3.3970659340736025 0.3974816028106079 L 3.295176283775672 0.3974816028106079 Q 3.2918172843153006 0.34933594387861877 3.256547789981402 0.32022461522206724 Q 3.221278295647503 0.2911132865655157 3.161935971847609 0.2911132865655157 Q 3.1070723139948773 0.2911132865655157 3.0746019858779547 0.314626282788115 Q 3.042131657761032 0.33813927901071433 3.042131657761032 0.3762079395615895 Q 3.042131657761032 0.4064389347049315 3.0617258212798646 0.4260330982237643 Q 3.0813199847986974 0.44562726174259704 3.110991146698644 0.45738375985389673 Q 3.140662308598591 0.46914025796519637 3.193286633477742 0.4836959222934722 Q 3.259346956198378 0.5016105860821193 3.3007746162096243 0.5189654166273712 Q 3.342202276220871 0.536320247172623 3.3718734381208177 0.5710299082631269 Q 3.4015446000207645 0.6057395693536307 3.402664266507555 0.661722893693153 Q 3.402664266507555 0.712107885598723 3.374672604337794 0.752415879123179 Q 3.3466809421680326 0.7927238726476349 3.2957361170190675 0.815677035626839 Q 3.244791291870102 0.8386301986060432 3.178730969149466 0.8386301986060432 Q 3.108191980481668 0.8386301986060432 3.0522086561421458 0.8145573691400486 M 4.101305538384294 0.5598332433952224 L 3.610891617170079 0.5598332433952224 Q 3.6164899496040315 0.6505262288252485 3.673033107186949 0.7014710539742137 Q 3.7295762647698663 0.752415879123179 3.8101922518187785 0.752415879123179 Q 3.8762525745394147 0.752415879123179 3.920479400767637 0.7216250507364417 Q 3.96470622699586 0.6908342223497045 3.982620890784507 0.639329563957344 L 4.09234820648997 0.639329563957344 Q 4.067715543780581 0.7277832164137892 3.993817555652411 0.7832067075099162 Q 3.919919567524242 0.8386301986060432 3.8101922518187785 0.8386301986060432 Q 3.7228582658491236 0.8386301986060432 3.653998776911511 0.7994418715683776 Q 3.585139287973899 0.760253544530712 3.545950960936233 0.6880350561327284 Q 3.506762633898568 0.6158165677347447 3.506762633898568 0.5206449163575568 Q 3.506762633898568 0.425473264980369 3.544831294449443 0.35381460982578056 Q 3.582899955000318 0.28215595467119214 3.6517594439379306 0.2435274608769218 Q 3.720618932875543 0.20489896708265143 3.8101922518187785 0.20489896708265143 Q 3.897526237788433 0.20489896708265143 3.96470622699586 0.24296762763352653 Q 4.0318862162032865 0.28103628818440163 4.068275377023976 0.3476564441484331 Q 4.104664537844665 0.4142766001124646 4.104664537844665 0.49825158662174795 Q 4.104664537844665 0.5273629152782995 4.101305538384294 0.5598332433952224 M 3.973663558890183 0.3767677728049847 Q 3.947911229694003 0.334780279550343 3.9036844034657805 0.31294678305792933 Q 3.859457577237558 0.2911132865655157 3.8057135858716165 0.2911132865655157 Q 3.728456598283076 0.2911132865655157 3.674152773673739 0.34037861198429525 Q 3.619848949064403 0.3896439374030748 3.61201128365687 0.4769779233727295 L 3.9994158880863635 0.4769779233727295 Q 3.9994158880863635 0.4187552660596264 3.973663558890183 0.3767677728049847" fill="#1c3423" fill-rule="nonzero"></path></g><g><path d=" M 0.17097186479154522 1.5474666555935868 Q 0.16447103343064998 1.5474666555935868 0.16024549304606805 1.5432411152090049 Q 0.15601995266148613 1.539015574824423 0.15601995266148613 1.5325147434635276 L 0.15601995266148613 1.1502658594428867 L 0.031203990532297228 1.1502658594428867 Q 0.02470315917140197 1.1502658594428867 0.020477618786820057 1.1460403190583048 Q 0.01625207840223814 1.1418147786737227 0.01625207840223814 1.1353139473128275 L 0.01625207840223814 1.1080104555970673 Q 0.01625207840223814 1.1008595411000828 0.020477618786820057 1.0966340007155009 Q 0.02470315917140197 1.092408460330919 0.031203990532297228 1.092408460330919 L 0.34454406212744854 1.092408460330919 Q 0.35169497662443333 1.092408460330919 0.3559205170090153 1.0966340007155009 Q 0.3601460573935972 1.1008595411000828 0.3601460573935972 1.1080104555970673 L 0.3601460573935972 1.1353139473128275 Q 0.3601460573935972 1.1418147786737227 0.3559205170090153 1.1460403190583048 Q 0.35169497662443333 1.1502658594428867 0.34454406212744854 1.1502658594428867 L 0.22037818313434918 1.1502658594428867 L 0.22037818313434918 1.5325147434635276 Q 0.22037818313434918 1.539015574824423 0.21615264274976725 1.5432411152090049 Q 0.21192710236518533 1.5474666555935868 0.20477618786820057 1.5474666555935868 L 0.17097186479154522 1.5474666555935868 M 0.38679026069448524 1.5474666555935868 Q 0.38028942933359 1.5474666555935868 0.37606388894900805 1.5432411152090049 Q 0.37183834856442616 1.539015574824423 0.37183834856442616 1.5325147434635276 L 0.37183834856442616 1.225025420093182 Q 0.37183834856442616 1.2185245887322869 0.37606388894900805 1.21397400677966 Q 0.38028942933359 1.2094234248270335 0.38679026069448524 1.2094234248270335 L 0.4166940849546034 1.2094234248270335 Q 0.42319491631549866 1.2094234248270335 0.42774549826812536 1.21397400677966 Q 0.43229608022075205 1.2185245887322869 0.43229608022075205 1.225025420093182 L 0.43229608022075205 1.2536290780811212 Q 0.44529774294254254 1.2315262514540772 0.4680506527056759 1.2204748381405555 Q 0.4908035624688093 1.2094234248270335 0.5233077192732856 1.2094234248270335 L 0.5486609615807772 1.2094234248270335 Q 0.5551617929416723 1.2094234248270335 0.5593873333262542 1.2136489652116154 Q 0.5636128737108361 1.2178745055961973 0.5636128737108361 1.2243753369570927 L 0.5636128737108361 1.251028745536763 Q 0.5636128737108361 1.2575295768976584 0.5593873333262542 1.2614300757141956 Q 0.5551617929416723 1.2653305745307326 0.5486609615807772 1.2653305745307326 L 0.5096559734154056 1.2653305745307326 Q 0.4745514840665712 1.2653305745307326 0.4543989068477959 1.2858081933175527 Q 0.4342463296290206 1.3062858121043728 0.4342463296290206 1.3413903014532071 L 0.4342463296290206 1.5325147434635276 Q 0.4342463296290206 1.539015574824423 0.4296957476763939 1.5432411152090049 Q 0.42514516572376726 1.5474666555935868 0.41864433436287196 1.5474666555935868 L 0.38679026069448524 1.5474666555935868 M 0.7079373609674304 1.553967486954482 Q 0.6754332041629542 1.553967486954482 0.6487797955832837 1.5409658242326916 Q 0.6221263870036131 1.527964161510901 0.6058743086013749 1.5058613348838572 Q 0.5896222301991368 1.4837585082568132 0.5896222301991368 1.4558049334049636 Q 0.5896222301991368 1.4109491970147863 0.6260268858201502 1.384295788435116 Q 0.6624315414411637 1.3576423798554453 0.720939023689221 1.3491912990862815 L 0.8178014109665603 1.3355395532284013 L 0.8178014109665603 1.3166871422818052 Q 0.8178014109665603 1.285483151749508 0.7999241247240984 1.2679309070750908 Q 0.7820468384816364 1.2503786624006736 0.7417416840440858 1.2503786624006736 Q 0.7131380260561466 1.2503786624006736 0.6949356982456399 1.262080158850285 Q 0.6767333704351333 1.2737816552998966 0.6695824559381485 1.2919839831104032 Q 0.6656819571216113 1.301735230151746 0.6559307100802684 1.301735230151746 L 0.6266769689562398 1.301735230151746 Q 0.619526054459255 1.301735230151746 0.6159505972107626 1.297509689767164 Q 0.6123751399622702 1.2932841493825822 0.6123751399622702 1.2874334011577766 Q 0.6123751399622702 1.2776821541164336 0.6198510960272997 1.263380325122464 Q 0.6273270520923293 1.2490784961284946 0.6429290473584779 1.2354267502706144 Q 0.6585310426246265 1.2217750044127345 0.6829091602279838 1.2123487989394364 Q 0.7072872778313409 1.2029225934661383 0.7423917671801753 1.2029225934661383 Q 0.7813967553455469 1.2029225934661383 0.8080501639252173 1.2129988820755258 Q 0.8347035725048879 1.2230751706849134 0.8499805262029918 1.239977332223241 Q 0.8652574799010957 1.2568794937615688 0.8720833528300357 1.2783322372525232 Q 0.8789092257589757 1.2997849807434776 0.8789092257589757 1.3218878073705214 L 0.8789092257589757 1.5325147434635276 Q 0.8789092257589757 1.539015574824423 0.8746836853743938 1.5432411152090049 Q 0.8704581449898119 1.5474666555935868 0.8639573136289166 1.5474666555935868 L 0.8340534893687984 1.5474666555935868 Q 0.8269025748718136 1.5474666555935868 0.8230020760552765 1.5432411152090049 Q 0.8191015772387393 1.539015574824423 0.8191015772387393 1.5325147434635276 L 0.8191015772387393 1.504561168611678 Q 0.8106504964695755 1.5162626650612896 0.796348667475606 1.5276391199428563 Q 0.7820468384816364 1.539015574824423 0.760594094990682 1.5464915308894525 Q 0.7391413514997277 1.553967486954482 0.7079373609674304 1.553967486954482 M 0.7215891068253105 1.5052112517477676 Q 0.748242515404981 1.5052112517477676 0.770345342032025 1.493834796866201 Q 0.7924481686590688 1.4824583419846342 0.8051247898128145 1.4584052659493218 Q 0.8178014109665603 1.4343521899140093 0.8178014109665603 1.397947534292996 L 0.8178014109665603 1.379745206482489 L 0.7423917671801753 1.390796619796011 Q 0.696235864517819 1.3972974511569063 0.6728328716185961 1.4125744048550102 Q 0.6494298787193732 1.427851358553114 0.6494298787193732 1.451254351452337 Q 0.6494298787193732 1.4694566792628436 0.6601562504648504 1.4814832172805 Q 0.6708826222103275 1.4935097552981562 0.6874597421806105 1.4993605035229618 Q 0.7040368621508933 1.5052112517477676 0.7215891068253105 1.5052112517477676 M 0.9874743791795516 1.5474666555935868 Q 0.9809735478186564 1.5474666555935868 0.9767480074340745 1.5432411152090049 Q 0.9725224670494925 1.539015574824423 0.9725224670494925 1.5325147434635276 L 0.9725224670494925 1.2243753369570927 Q 0.9725224670494925 1.2178745055961973 0.9767480074340745 1.2136489652116154 Q 0.9809735478186564 1.2094234248270335 0.9874743791795516 1.2094234248270335 L 1.0180282865757593 1.2094234248270335 Q 1.0245291179366547 1.2094234248270335 1.0287546583212366 1.2136489652116154 Q 1.0329801987058185 1.2178745055961973 1.0329801987058185 1.2243753369570927 L 1.0329801987058185 1.2529789949450316 Q 1.049882360244146 1.2308761683179879 1.0755606441196823 1.216899380892063 Q 1.1012389279952186 1.2029225934661383 1.1415440824327692 1.2029225934661383 Q 1.1837994862785883 1.2029225934661383 1.2133782689706618 1.2214499628446895 Q 1.242957051662735 1.239977332223241 1.2582340053608392 1.272806530595762 Q 1.2735109590589428 1.3056357289682832 1.2735109590589428 1.3491912990862815 L 1.2735109590589428 1.5325147434635276 Q 1.2735109590589428 1.539015574824423 1.269285418674361 1.5432411152090049 Q 1.265059878289779 1.5474666555935868 1.2585590469288839 1.5474666555935868 L 1.2260548901244075 1.5474666555935868 Q 1.2195540587635123 1.5474666555935868 1.2153285183789304 1.5432411152090049 Q 1.2111029779943485 1.539015574824423 1.2111029779943485 1.5325147434635276 L 1.2111029779943485 1.3524417147667291 Q 1.2111029779943485 1.3069358952404624 1.1890001513673045 1.281257611364926 Q 1.1668973247402608 1.2555793274893898 1.123991837758352 1.2555793274893898 Q 1.0836866833208014 1.2555793274893898 1.0593085657174441 1.281257611364926 Q 1.034930448114087 1.3069358952404624 1.034930448114087 1.3524417147667291 L 1.034930448114087 1.5325147434635276 Q 1.034930448114087 1.539015574824423 1.0307049077295052 1.5432411152090049 Q 1.0264793673449233 1.5474666555935868 1.0199785359840279 1.5474666555935868 L 0.9874743791795516 1.5474666555935868 M 1.4834995566818925 1.553967486954482 Q 1.4470949010608791 1.553967486954482 1.4210915756172982 1.5448663230492286 Q 1.395088250173717 1.5357651591439754 1.378836171771479 1.5227634964221848 Q 1.3625840933692408 1.5097618337003942 1.3544580541681217 1.4967601709786038 Q 1.3463320149670026 1.4837585082568132 1.3456819318309132 1.475957510623739 Q 1.3450318486948236 1.4688065961267542 1.3502325137835398 1.464906097310217 Q 1.355433178872256 1.4610055984936798 1.3606338439609722 1.4610055984936798 L 1.3898875850850008 1.4610055984936798 Q 1.3931380007654486 1.4610055984936798 1.3954132917417619 1.4619807231978141 Q 1.3976885827180752 1.4629558479019484 1.4015890815346124 1.467506429854575 Q 1.4100401623037762 1.4766075937598284 1.4204414924812085 1.4857087576650818 Q 1.430842822658641 1.4948099215703352 1.4461197763567448 1.500660669795141 Q 1.4613967300548487 1.5065114180199466 1.484149639817982 1.5065114180199466 Q 1.5173038797585479 1.5065114180199466 1.5387566232495022 1.493834796866201 Q 1.5602093667404566 1.4811581757124552 1.5602093667404566 1.4564550165410532 Q 1.5602093667404566 1.440202938138815 1.551433244403248 1.430451691097472 Q 1.5426571220660394 1.4207004440561293 1.5202292538709508 1.4128994464230549 Q 1.497801385675862 1.4050984487899807 1.4587963975104905 1.396647368020817 Q 1.419791409345119 1.3875462041155635 1.3970384995819856 1.3742194998257282 Q 1.3742855898188522 1.360892795535893 1.3645343427775094 1.3423654261573414 Q 1.3547830957361664 1.32383805677879 1.3547830957361664 1.300435063879567 Q 1.3547830957361664 1.2763819878442546 1.369084924730136 1.253954119649166 Q 1.3833867537241056 1.2315262514540772 1.4110152870079105 1.2172244224601076 Q 1.4386438202917153 1.2029225934661383 1.480249141001445 1.2029225934661383 Q 1.5140534640781003 1.2029225934661383 1.5381065401134126 1.211373674235302 Q 1.5621596161487252 1.2198247550044659 1.5777616114148738 1.2325013761582115 Q 1.5933636066810224 1.2451779973119574 1.6011646043140968 1.2575295768976584 Q 1.608965601947171 1.2698811564833594 1.6096156850832606 1.2783322372525232 Q 1.61026576821935 1.2848330686134184 1.6057151862667234 1.2890586089980003 Q 1.6011646043140968 1.2932841493825822 1.595313856089291 1.2932841493825822 L 1.5680103643735308 1.2932841493825822 Q 1.5634597824209042 1.2932841493825822 1.5605344083085013 1.2913338999743136 Q 1.5576090341960984 1.289383650566045 1.5550087016517404 1.286783318021687 Q 1.548507870290845 1.2783322372525232 1.5397317479536365 1.2698811564833594 Q 1.5309556256164278 1.2614300757141956 1.5169788381905032 1.2559043690574345 Q 1.5030020507645783 1.2503786624006736 1.480249141001445 1.2503786624006736 Q 1.4477449841969685 1.2503786624006736 1.4314929057947305 1.2640304082585536 Q 1.4152408273924924 1.2776821541164336 1.4152408273924924 1.2984848144712984 Q 1.4152408273924924 1.3108363940569994 1.4223917418894771 1.3205876410983424 Q 1.429542656386462 1.3303388881396851 1.449695233605237 1.3381398857727596 Q 1.4698478108240125 1.3459408834058337 1.5095028821254735 1.3550420473110871 Q 1.5524083691073822 1.363493128080251 1.5771115282787842 1.3777949570742205 Q 1.6018146874501862 1.39209678606819 1.6122160176276186 1.4109491970147863 Q 1.622617347805051 1.4298016079613827 1.622617347805051 1.4545047671327846 Q 1.622617347805051 1.4818082588485446 1.6070153525389024 1.504561168611678 Q 1.5914133572727538 1.5273140783748114 1.5602093667404566 1.5406407826646467 Q 1.5290053762081592 1.553967486954482 1.4834995566818925 1.553967486954482 M 1.7136353353257106 1.6709824514505967 Q 1.7071345039648151 1.6709824514505967 1.7029089635802332 1.6667569110660148 Q 1.6986834231956514 1.6625313706814329 1.6986834231956514 1.6560305393205375 L 1.6986834231956514 1.2243753369570927 Q 1.6986834231956514 1.2178745055961973 1.7029089635802332 1.2136489652116154 Q 1.7071345039648151 1.2094234248270335 1.7136353353257106 1.2094234248270335 L 1.7435391595858287 1.2094234248270335 Q 1.750039990946724 1.2094234248270335 1.7542655313313058 1.2136489652116154 Q 1.7584910717158877 1.2178745055961973 1.7584910717158877 1.2243753369570927 L 1.7584910717158877 1.2529789949450316 Q 1.7740930669820365 1.2315262514540772 1.8000963924256175 1.2172244224601076 Q 1.8260997178691984 1.2029225934661383 1.86510470603457 1.2029225934661383 Q 1.9015093616555834 1.2029225934661383 1.9271876455311197 1.2152741730518393 Q 1.952865929406656 1.22762575263754 1.9694430493769388 1.2490784961284946 Q 1.9860201693472217 1.2705312396194488 1.9944712501163855 1.297834731335209 Q 2.0029223308855495 1.325138223050969 2.0042224971577283 1.3563422135832663 Q 2.004872580293818 1.3667435437606987 2.004872580293818 1.3784450402103101 Q 2.004872580293818 1.3901465366599215 2.0042224971577283 1.4005478668373539 Q 2.0029223308855495 1.4311017742335617 1.9944712501163855 1.4587303075173665 Q 1.9860201693472217 1.4863588408011714 1.9694430493769388 1.507486542724081 Q 1.952865929406656 1.5286142446469906 1.9271876455311197 1.5412908658007363 Q 1.9015093616555834 1.553967486954482 1.86510470603457 1.553967486954482 Q 1.8273998841413774 1.553967486954482 1.8017216002658412 1.5399906995285573 Q 1.7760433163903049 1.5260139121026324 1.759791237988067 1.5052112517477676 L 1.759791237988067 1.6560305393205375 Q 1.759791237988067 1.6625313706814329 1.7558907391715297 1.6667569110660148 Q 1.7519902403549925 1.6709824514505967 1.7454894089940973 1.6709824514505967 L 1.7136353353257106 1.6709824514505967 M 1.85145296017669 1.5013107529312304 Q 1.8852572832533452 1.5013107529312304 1.9044347357679863 1.4866838823692161 Q 1.9236121882826271 1.4720570118072018 1.9320632690517912 1.4483289773399342 Q 1.940514349820955 1.4246009428726665 1.941814516093134 1.3972974511569063 Q 1.9424645992292235 1.3784450402103101 1.941814516093134 1.359592629263714 Q 1.940514349820955 1.3322891375479538 1.9320632690517912 1.308561103080686 Q 1.9236121882826271 1.2848330686134184 1.9044347357679863 1.2702061980514041 Q 1.8852572832533452 1.2555793274893898 1.85145296017669 1.2555793274893898 Q 1.8195988865083033 1.2555793274893898 1.7997713508575726 1.2705312396194488 Q 1.779943815206842 1.285483151749508 1.770517609733544 1.308561103080686 Q 1.761091404260246 1.3316390544118644 1.759791237988067 1.3556921304471767 Q 1.7591411548519773 1.3660934606246091 1.7591411548519773 1.3803952896185787 Q 1.7591411548519773 1.3946971186125483 1.759791237988067 1.4057485319260703 Q 1.7604413211241563 1.4285014416892037 1.770517609733544 1.4506042683162474 Q 1.7805938983429317 1.4727070949432912 1.8007464755617069 1.4870089239372608 Q 1.8208990527804823 1.5013107529312304 1.85145296017669 1.5013107529312304 M 2.1797503400998073 1.553967486954482 Q 2.147246183295331 1.553967486954482 2.1205927747156603 1.5409658242326916 Q 2.0939393661359897 1.527964161510901 2.077687287733752 1.5058613348838572 Q 2.061435209331514 1.4837585082568132 2.061435209331514 1.4558049334049636 Q 2.061435209331514 1.4109491970147863 2.097839864952527 1.384295788435116 Q 2.1342445205735405 1.3576423798554453 2.1927520028215977 1.3491912990862815 L 2.289614390098937 1.3355395532284013 L 2.289614390098937 1.3166871422818052 Q 2.289614390098937 1.285483151749508 2.2717371038564753 1.2679309070750908 Q 2.253859817614013 1.2503786624006736 2.2135546631764624 1.2503786624006736 Q 2.1849510051885237 1.2503786624006736 2.166748677378017 1.262080158850285 Q 2.14854634956751 1.2737816552998966 2.141395435070525 1.2919839831104032 Q 2.1374949362539883 1.301735230151746 2.1277436892126453 1.301735230151746 L 2.0984899480886168 1.301735230151746 Q 2.0913390335916318 1.301735230151746 2.0877635763431392 1.297509689767164 Q 2.084188119094647 1.2932841493825822 2.084188119094647 1.2874334011577766 Q 2.084188119094647 1.2776821541164336 2.0916640751596765 1.263380325122464 Q 2.099140031224706 1.2490784961284946 2.114742026490855 1.2354267502706144 Q 2.1303440217570033 1.2217750044127345 2.1547221393603606 1.2123487989394364 Q 2.179100256963718 1.2029225934661383 2.2142047463125523 1.2029225934661383 Q 2.253209734477924 1.2029225934661383 2.2798631430575944 1.2129988820755258 Q 2.306516551637265 1.2230751706849134 2.3217935053353687 1.239977332223241 Q 2.3370704590334723 1.2568794937615688 2.3438963319624126 1.2783322372525232 Q 2.3507222048913525 1.2997849807434776 2.3507222048913525 1.3218878073705214 L 2.3507222048913525 1.5325147434635276 Q 2.3507222048913525 1.539015574824423 2.3464966645067706 1.5432411152090049 Q 2.3422711241221887 1.5474666555935868 2.3357702927612936 1.5474666555935868 L 2.305866468501175 1.5474666555935868 Q 2.2987155540041906 1.5474666555935868 2.2948150551876534 1.5432411152090049 Q 2.290914556371116 1.539015574824423 2.290914556371116 1.5325147434635276 L 2.290914556371116 1.504561168611678 Q 2.2824634756019524 1.5162626650612896 2.268161646607983 1.5276391199428563 Q 2.253859817614013 1.539015574824423 2.232407074123059 1.5464915308894525 Q 2.2109543306321044 1.553967486954482 2.1797503400998073 1.553967486954482 M 2.1934020859576875 1.5052112517477676 Q 2.220055494537358 1.5052112517477676 2.2421583211644016 1.493834796866201 Q 2.2642611477914456 1.4824583419846342 2.2769377689451913 1.4584052659493218 Q 2.289614390098937 1.4343521899140093 2.289614390098937 1.397947534292996 L 2.289614390098937 1.379745206482489 L 2.2142047463125523 1.390796619796011 Q 2.1680488436501957 1.3972974511569063 2.144645850750973 1.4125744048550102 Q 2.12124285785175 1.427851358553114 2.12124285785175 1.451254351452337 Q 2.12124285785175 1.4694566792628436 2.1319692295972272 1.4814832172805 Q 2.1426956013427043 1.4935097552981562 2.159272721312987 1.4993605035229618 Q 2.17584984128327 1.5052112517477676 2.1934020859576875 1.5052112517477676 M 2.459287358311929 1.5474666555935868 Q 2.452786526951033 1.5474666555935868 2.4485609865664513 1.5432411152090049 Q 2.4443354461818694 1.539015574824423 2.4443354461818694 1.5325147434635276 L 2.4443354461818694 1.225025420093182 Q 2.4443354461818694 1.2185245887322869 2.4485609865664513 1.21397400677966 Q 2.452786526951033 1.2094234248270335 2.459287358311929 1.2094234248270335 L 2.4891911825720467 1.2094234248270335 Q 2.495692013932942 1.2094234248270335 2.5002425958855685 1.21397400677966 Q 2.5047931778381956 1.2185245887322869 2.5047931778381956 1.225025420093182 L 2.5047931778381956 1.2536290780811212 Q 2.517794840559986 1.2315262514540772 2.5405477503231193 1.2204748381405555 Q 2.5633006600862527 1.2094234248270335 2.595804816890729 1.2094234248270335 L 2.6211580591982204 1.2094234248270335 Q 2.6276588905591156 1.2094234248270335 2.6318844309436975 1.2136489652116154 Q 2.6361099713282794 1.2178745055961973 2.6361099713282794 1.2243753369570927 L 2.6361099713282794 1.251028745536763 Q 2.6361099713282794 1.2575295768976584 2.6318844309436975 1.2614300757141956 Q 2.6276588905591156 1.2653305745307326 2.6211580591982204 1.2653305745307326 L 2.582153071032849 1.2653305745307326 Q 2.5470485816840145 1.2653305745307326 2.526896004465239 1.2858081933175527 Q 2.506743427246464 1.3062858121043728 2.506743427246464 1.3413903014532071 L 2.506743427246464 1.5325147434635276 Q 2.506743427246464 1.539015574824423 2.502192845293837 1.5432411152090049 Q 2.4976422633412105 1.5474666555935868 2.4911414319803153 1.5474666555935868 L 2.459287358311929 1.5474666555935868 M 2.8200803246075523 1.553967486954482 Q 2.7524716784542416 1.553967486954482 2.7128166071527806 1.512687207812797 Q 2.6731615358513197 1.4714069286711122 2.6692610370347825 1.3998977837012645 Q 2.6686109538986926 1.3914467029321007 2.6686109538986926 1.3781199986422654 Q 2.6686109538986926 1.3647932943524301 2.6692610370347825 1.3563422135832663 Q 2.6718613695791404 1.31018631092091 2.6907137805257366 1.2754068631401203 Q 2.709566191472333 1.2406274153593306 2.742395389844854 1.2217750044127345 Q 2.775224588217375 1.2029225934661383 2.819430241471463 1.2029225934661383 Q 2.868836559814267 1.2029225934661383 2.9023158413228773 1.223725253821003 Q 2.935795122831488 1.2445279141758678 2.953347367505905 1.2828828192051498 Q 2.970899612180322 1.321237724234432 2.970899612180322 1.3725942919855043 L 2.970899612180322 1.3836457052990263 Q 2.970899612180322 1.390796619796011 2.9666740717957403 1.3946971186125483 Q 2.9624485314111584 1.3985976174290853 2.955947700050263 1.3985976174290853 L 2.7310189349632874 1.3985976174290853 Q 2.7310189349632874 1.399247700565175 2.7310189349632874 1.4011979499734435 Q 2.7310189349632874 1.403148199381712 2.7310189349632874 1.404448365653891 Q 2.732319101235466 1.4311017742335617 2.7427204314128986 1.4541797255647397 Q 2.753121761590331 1.477257676895918 2.7729492972410617 1.4915595058898876 Q 2.7927768328917923 1.5058613348838572 2.819430241471463 1.5058613348838572 Q 2.8428332343706857 1.5058613348838572 2.8584352296368345 1.4987104203868724 Q 2.874037224902983 1.4915595058898876 2.883788471944326 1.482783383552679 Q 2.893539718985669 1.4740072612154704 2.8967901346661162 1.4688065961267542 Q 2.902640882890922 1.4610055984936798 2.90589129857137 1.4593803906534561 Q 2.9091417142518172 1.4577551828132322 2.9162926287488022 1.4577551828132322 L 2.948146702417189 1.4577551828132322 Q 2.9539974506419946 1.4577551828132322 2.9582229910265765 1.4613306400617245 Q 2.9624485314111584 1.464906097310217 2.961798448275069 1.4714069286711122 Q 2.961148365138979 1.4811581757124552 2.9513971180976366 1.49513496313838 Q 2.9416458710562936 1.5091117505643048 2.9237685848138315 1.5227634964221848 Q 2.90589129857137 1.5364152422800648 2.879562931559744 1.5451913646172735 Q 2.853234564548118 1.553967486954482 2.8200803246075523 1.553967486954482 M 2.7310189349632874 1.3537418810389081 L 2.9091417142518172 1.3537418810389081 L 2.9091417142518172 1.3517916316306395 Q 2.9091417142518172 1.322537890506611 2.89841534250634 1.2997849807434776 Q 2.887688970760863 1.277032070980344 2.8675363935420877 1.263705366690509 Q 2.8473838163233123 1.2503786624006736 2.819430241471463 1.2503786624006736 Q 2.791476666619613 1.2503786624006736 2.7716491309688824 1.263705366690509 Q 2.751821595318152 1.277032070980344 2.74142026514072 1.2997849807434776 Q 2.7310189349632874 1.322537890506611 2.7310189349632874 1.3517916316306395 L 2.7310189349632874 1.3537418810389081 M 3.063859913524093 1.5474666555935868 Q 3.0573590821631975 1.5474666555935868 3.0531335417786156 1.5432411152090049 Q 3.0489080013940337 1.539015574824423 3.0489080013940337 1.5325147434635276 L 3.0489080013940337 1.2243753369570927 Q 3.0489080013940337 1.2178745055961973 3.0531335417786156 1.2136489652116154 Q 3.0573590821631975 1.2094234248270335 3.063859913524093 1.2094234248270335 L 3.0944138209203005 1.2094234248270335 Q 3.100914652281196 1.2094234248270335 3.105140192665778 1.2136489652116154 Q 3.10936573305036 1.2178745055961973 3.10936573305036 1.2243753369570927 L 3.10936573305036 1.2529789949450316 Q 3.1262678945886875 1.2308761683179879 3.1519461784642235 1.216899380892063 Q 3.17762446233976 1.2029225934661383 3.2179296167773104 1.2029225934661383 Q 3.2601850206231298 1.2029225934661383 3.289763803315203 1.2214499628446895 Q 3.3193425860072763 1.239977332223241 3.3346195397053804 1.272806530595762 Q 3.349896493403484 1.3056357289682832 3.349896493403484 1.3491912990862815 L 3.349896493403484 1.5325147434635276 Q 3.349896493403484 1.539015574824423 3.345670953018902 1.5432411152090049 Q 3.3414454126343203 1.5474666555935868 3.334944581273425 1.5474666555935868 L 3.3024404244689487 1.5474666555935868 Q 3.2959395931080535 1.5474666555935868 3.2917140527234716 1.5432411152090049 Q 3.2874885123388897 1.539015574824423 3.2874885123388897 1.5325147434635276 L 3.2874885123388897 1.3524417147667291 Q 3.2874885123388897 1.3069358952404624 3.2653856857118457 1.281257611364926 Q 3.243282859084802 1.2555793274893898 3.2003773721028934 1.2555793274893898 Q 3.1600722176653426 1.2555793274893898 3.1356941000619853 1.281257611364926 Q 3.1113159824586285 1.3069358952404624 3.1113159824586285 1.3524417147667291 L 3.1113159824586285 1.5325147434635276 Q 3.1113159824586285 1.539015574824423 3.1070904420740466 1.5432411152090049 Q 3.1028649016894647 1.5474666555935868 3.096364070328569 1.5474666555935868 L 3.063859913524093 1.5474666555935868 M 3.57938758510912 1.553967486954482 Q 3.5332316824467633 1.553967486954482 3.499752400938153 1.53609020071202 Q 3.4662731194295424 1.5182129144695582 3.4480707916190356 1.4847336329609475 Q 3.429868463808529 1.451254351452337 3.4285682975363496 1.404448365653891 Q 3.4279182144002602 1.3946971186125483 3.4279182144002602 1.3784450402103101 Q 3.4279182144002602 1.362192961808072 3.4285682975363496 1.3524417147667291 Q 3.429868463808529 1.3056357289682832 3.4480707916190356 1.2721564474596727 Q 3.4662731194295424 1.238677165951062 3.499752400938153 1.2207998797086002 Q 3.5332316824467633 1.2029225934661383 3.57938758510912 1.2029225934661383 Q 3.6170924070023123 1.2029225934661383 3.6440708571500275 1.2133239236435707 Q 3.671049307297743 1.223725253821003 3.68860155197216 1.239977332223241 Q 3.706153796646577 1.2562294106254792 3.7149299189837857 1.2750818215720756 Q 3.7237060413209946 1.2939342325186718 3.724356124457084 1.3108363940569994 Q 3.7250062075931734 1.3173372254178948 3.7204556256405468 1.321237724234432 Q 3.71590504368792 1.325138223050969 3.709404212327025 1.325138223050969 L 3.678200221794728 1.325138223050969 Q 3.671699390433832 1.325138223050969 3.668448974753385 1.322212848938566 Q 3.665198559072937 1.3192874748261634 3.6619481433924896 1.3121365603291786 Q 3.650246646942878 1.2802824866607918 3.6300940697241026 1.2672808239390012 Q 3.6099414925053273 1.2542791612172106 3.5800376682452093 1.2542791612172106 Q 3.5410326800798377 1.2542791612172106 3.5166545624764805 1.2783322372525232 Q 3.492276444873123 1.3023853132878356 3.4903261954648546 1.3556921304471767 Q 3.489676112328765 1.3790951233463997 3.4903261954648546 1.4011979499734435 Q 3.492276444873123 1.455154850268874 3.5166545624764805 1.4788828847361417 Q 3.5410326800798377 1.5026109192034094 3.5800376682452093 1.5026109192034094 Q 3.6099414925053273 1.5026109192034094 3.6300940697241026 1.489609256481619 Q 3.650246646942878 1.4766075937598284 3.6619481433924896 1.4447535200914416 Q 3.665198559072937 1.4376026055944569 3.668448974753385 1.4343521899140093 Q 3.671699390433832 1.4311017742335617 3.678200221794728 1.4311017742335617 L 3.709404212327025 1.4311017742335617 Q 3.71590504368792 1.4311017742335617 3.7204556256405468 1.4353273146181436 Q 3.7250062075931734 1.4395528550027255 3.724356124457084 1.4460536863636209 Q 3.7237060413209946 1.4597054322215008 3.718505376232278 1.4740072612154704 Q 3.7133047111435618 1.48830909020944 3.7019282562619953 1.5029359607714543 Q 3.690551801380429 1.5175628313334686 3.673649639842101 1.5289392862150353 Q 3.6567474783037732 1.540315741096602 3.6333444854045505 1.547141614025542 Q 3.6099414925053273 1.553967486954482 3.57938758510912 1.553967486954482 M 3.851114082985978 1.6709824514505967 Q 3.845913417897262 1.6709824514505967 3.842012919080725 1.6670819526340594 Q 3.8381124202641876 1.6631814538175222 3.8381124202641876 1.657980788728806 Q 3.8381124202641876 1.655380456184448 3.838762503400277 1.6527801236400899 Q 3.8394125865363664 1.6501797910957319 3.841362835944635 1.6462792922791947 L 3.891419237423529 1.5273140783748114 L 3.767253358430429 1.2341265839984354 Q 3.7640029427499817 1.226325586365361 3.7640029427499817 1.2230751706849134 Q 3.7640029427499817 1.2172244224601076 3.767903441566519 1.2133239236435707 Q 3.771803940383056 1.2094234248270335 3.7776546886078615 1.2094234248270335 L 3.8095087622762485 1.2094234248270335 Q 3.816659676773233 1.2094234248270335 3.8202351340217255 1.212673840507481 Q 3.823810591270218 1.2159242561879287 3.825110757542397 1.2204748381405555 L 3.9239233942280047 1.4571050996771426 L 4.025336363457971 1.2204748381405555 Q 4.02728661286624 1.2159242561879287 4.030862070114732 1.212673840507481 Q 4.034437527363224 1.2094234248270335 4.041588441860209 1.2094234248270335 L 4.072142349256417 1.2094234248270335 Q 4.077993097481222 1.2094234248270335 4.08189359629776 1.2133239236435707 Q 4.085794095114297 1.2172244224601076 4.085794095114297 1.222425087548824 Q 4.085794095114297 1.2256755032292717 4.082543679433849 1.2341265839984354 L 3.897920068784424 1.6599310381370747 Q 3.8959698193761554 1.6644816200897015 3.892394362127663 1.667732035770149 Q 3.8888189048791704 1.6709824514505967 3.881667990382186 1.6709824514505967 L 3.851114082985978 1.6709824514505967 M 4.428385368446226 1.553967486954482 Q 4.360776722292916 1.553967486954482 4.321121650991454 1.512687207812797 Q 4.281466579689994 1.4714069286711122 4.277566080873457 1.3998977837012645 Q 4.276915997737367 1.3914467029321007 4.276915997737367 1.3781199986422654 Q 4.276915997737367 1.3647932943524301 4.277566080873457 1.3563422135832663 Q 4.280166413417815 1.31018631092091 4.299018824364411 1.2754068631401203 Q 4.317871235311007 1.2406274153593306 4.350700433683528 1.2217750044127345 Q 4.3835296320560495 1.2029225934661383 4.427735285310137 1.2029225934661383 Q 4.477141603652941 1.2029225934661383 4.5106208851615515 1.223725253821003 Q 4.544100166670162 1.2445279141758678 4.561652411344579 1.2828828192051498 Q 4.579204656018996 1.321237724234432 4.579204656018996 1.3725942919855043 L 4.579204656018996 1.3836457052990263 Q 4.579204656018996 1.390796619796011 4.574979115634415 1.3946971186125483 Q 4.5707535752498325 1.3985976174290853 4.564252743888937 1.3985976174290853 L 4.3393239788019615 1.3985976174290853 Q 4.3393239788019615 1.399247700565175 4.3393239788019615 1.4011979499734435 Q 4.3393239788019615 1.403148199381712 4.3393239788019615 1.404448365653891 Q 4.34062414507414 1.4311017742335617 4.351025475251573 1.4541797255647397 Q 4.361426805429005 1.477257676895918 4.381254341079736 1.4915595058898876 Q 4.4010818767304665 1.5058613348838572 4.427735285310137 1.5058613348838572 Q 4.45113827820936 1.5058613348838572 4.466740273475509 1.4987104203868724 Q 4.482342268741657 1.4915595058898876 4.492093515783 1.482783383552679 Q 4.5018447628243425 1.4740072612154704 4.50509517850479 1.4688065961267542 Q 4.510945926729596 1.4610055984936798 4.5141963424100435 1.4593803906534561 Q 4.517446758090491 1.4577551828132322 4.524597672587476 1.4577551828132322 L 4.556451746255863 1.4577551828132322 Q 4.562302494480669 1.4577551828132322 4.56652803486525 1.4613306400617245 Q 4.5707535752498325 1.464906097310217 4.570103492113743 1.4714069286711122 Q 4.569453408977654 1.4811581757124552 4.55970216193631 1.49513496313838 Q 4.549950914894968 1.5091117505643048 4.532073628652506 1.5227634964221848 Q 4.5141963424100435 1.5364152422800648 4.487867975398418 1.5451913646172735 Q 4.461539608386793 1.553967486954482 4.428385368446226 1.553967486954482 M 4.3393239788019615 1.3537418810389081 L 4.517446758090491 1.3537418810389081 L 4.517446758090491 1.3517916316306395 Q 4.517446758090491 1.322537890506611 4.506720386345014 1.2997849807434776 Q 4.495994014599537 1.277032070980344 4.475841437380762 1.263705366690509 Q 4.455688860161986 1.2503786624006736 4.427735285310137 1.2503786624006736 Q 4.399781710458288 1.2503786624006736 4.3799541748075566 1.263705366690509 Q 4.360126639156826 1.277032070980344 4.3497253089793935 1.2997849807434776 Q 4.3393239788019615 1.322537890506611 4.3393239788019615 1.3517916316306395 L 4.3393239788019615 1.3537418810389081 M 4.751475099965689 1.553967486954482 Q 4.718970943161213 1.553967486954482 4.692317534581542 1.5409658242326916 Q 4.665664126001872 1.527964161510901 4.6494120475996334 1.5058613348838572 Q 4.633159969197395 1.4837585082568132 4.633159969197395 1.4558049334049636 Q 4.633159969197395 1.4109491970147863 4.669564624818409 1.384295788435116 Q 4.705969280439422 1.3576423798554453 4.7644767626874795 1.3491912990862815 L 4.861339149964818 1.3355395532284013 L 4.861339149964818 1.3166871422818052 Q 4.861339149964818 1.285483151749508 4.843461863722356 1.2679309070750908 Q 4.825584577479895 1.2503786624006736 4.785279423042344 1.2503786624006736 Q 4.756675765054405 1.2503786624006736 4.738473437243898 1.262080158850285 Q 4.720271109433392 1.2737816552998966 4.7131201949364065 1.2919839831104032 Q 4.709219696119869 1.301735230151746 4.699468449078527 1.301735230151746 L 4.670214707954498 1.301735230151746 Q 4.663063793457513 1.301735230151746 4.659488336209021 1.297509689767164 Q 4.655912878960528 1.2932841493825822 4.655912878960528 1.2874334011577766 Q 4.655912878960528 1.2776821541164336 4.663388835025558 1.263380325122464 Q 4.670864791090588 1.2490784961284946 4.686466786356736 1.2354267502706144 Q 4.702068781622885 1.2217750044127345 4.726446899226242 1.2123487989394364 Q 4.750825016829599 1.2029225934661383 4.785929506178434 1.2029225934661383 Q 4.824934494343805 1.2029225934661383 4.851587902923476 1.2129988820755258 Q 4.878241311503146 1.2230751706849134 4.89351826520125 1.239977332223241 Q 4.908795218899354 1.2568794937615688 4.915621091828294 1.2783322372525232 Q 4.922446964757234 1.2997849807434776 4.922446964757234 1.3218878073705214 L 4.922446964757234 1.5325147434635276 Q 4.922446964757234 1.539015574824423 4.918221424372652 1.5432411152090049 Q 4.91399588398807 1.5474666555935868 4.907495052627175 1.5474666555935868 L 4.877591228367057 1.5474666555935868 Q 4.870440313870072 1.5474666555935868 4.866539815053534 1.5432411152090049 Q 4.862639316236997 1.539015574824423 4.862639316236997 1.5325147434635276 L 4.862639316236997 1.504561168611678 Q 4.854188235467833 1.5162626650612896 4.839886406473864 1.5276391199428563 Q 4.825584577479895 1.539015574824423 4.80413183398894 1.5464915308894525 Q 4.782679090497986 1.553967486954482 4.751475099965689 1.553967486954482 M 4.765126845823569 1.5052112517477676 Q 4.791780254403239 1.5052112517477676 4.8138830810302835 1.493834796866201 Q 4.835985907657327 1.4824583419846342 4.848662528811073 1.4584052659493218 Q 4.861339149964818 1.4343521899140093 4.861339149964818 1.397947534292996 L 4.861339149964818 1.379745206482489 L 4.785929506178434 1.390796619796011 Q 4.739773603516078 1.3972974511569063 4.716370610616854 1.4125744048550102 Q 4.692967617717631 1.427851358553114 4.692967617717631 1.451254351452337 Q 4.692967617717631 1.4694566792628436 4.703693989463108 1.4814832172805 Q 4.714420361208586 1.4935097552981562 4.730997481178869 1.4993605035229618 Q 4.747574601149152 1.5052112517477676 4.765126845823569 1.5052112517477676 M 5.031012118177809 1.5474666555935868 Q 5.024511286816915 1.5474666555935868 5.020285746432332 1.5432411152090049 Q 5.016060206047751 1.539015574824423 5.016060206047751 1.5325147434635276 L 5.016060206047751 1.225025420093182 Q 5.016060206047751 1.2185245887322869 5.020285746432332 1.21397400677966 Q 5.024511286816915 1.2094234248270335 5.031012118177809 1.2094234248270335 L 5.060915942437928 1.2094234248270335 Q 5.067416773798823 1.2094234248270335 5.0719673557514495 1.21397400677966 Q 5.076517937704076 1.2185245887322869 5.076517937704076 1.225025420093182 L 5.076517937704076 1.2536290780811212 Q 5.0895196004258665 1.2315262514540772 5.112272510189 1.2204748381405555 Q 5.135025419952134 1.2094234248270335 5.16752957675661 1.2094234248270335 L 5.192882819064102 1.2094234248270335 Q 5.199383650424997 1.2094234248270335 5.203609190809579 1.2136489652116154 Q 5.20783473119416 1.2178745055961973 5.20783473119416 1.2243753369570927 L 5.20783473119416 1.251028745536763 Q 5.20783473119416 1.2575295768976584 5.203609190809579 1.2614300757141956 Q 5.199383650424997 1.2653305745307326 5.192882819064102 1.2653305745307326 L 5.15387783089873 1.2653305745307326 Q 5.118773341549896 1.2653305745307326 5.0986207643311205 1.2858081933175527 Q 5.078468187112345 1.3062858121043728 5.078468187112345 1.3413903014532071 L 5.078468187112345 1.5325147434635276 Q 5.078468187112345 1.539015574824423 5.073917605159719 1.5432411152090049 Q 5.069367023207092 1.5474666555935868 5.062866191846196 1.5474666555935868 L 5.031012118177809 1.5474666555935868 M 5.278046884125892 1.5474666555935868 Q 5.2715460527649975 1.5474666555935868 5.267320512380415 1.5432411152090049 Q 5.263094971995834 1.539015574824423 5.263094971995834 1.5325147434635276 L 5.263094971995834 1.2243753369570927 Q 5.263094971995834 1.2178745055961973 5.267320512380415 1.2136489652116154 Q 5.2715460527649975 1.2094234248270335 5.278046884125892 1.2094234248270335 L 5.3086007915221005 1.2094234248270335 Q 5.315101622882995 1.2094234248270335 5.319327163267578 1.2136489652116154 Q 5.323552703652159 1.2178745055961973 5.323552703652159 1.2243753369570927 L 5.323552703652159 1.2529789949450316 Q 5.340454865190487 1.2308761683179879 5.366133149066023 1.216899380892063 Q 5.39181143294156 1.2029225934661383 5.43211658737911 1.2029225934661383 Q 5.474371991224929 1.2029225934661383 5.503950773917003 1.2214499628446895 Q 5.533529556609076 1.239977332223241 5.54880651030718 1.272806530595762 Q 5.564083464005284 1.3056357289682832 5.564083464005284 1.3491912990862815 L 5.564083464005284 1.5325147434635276 Q 5.564083464005284 1.539015574824423 5.559857923620702 1.5432411152090049 Q 5.55563238323612 1.5474666555935868 5.549131551875225 1.5474666555935868 L 5.516627395070748 1.5474666555935868 Q 5.5101265637098535 1.5474666555935868 5.505901023325271 1.5432411152090049 Q 5.50167548294069 1.539015574824423 5.50167548294069 1.5325147434635276 L 5.50167548294069 1.3524417147667291 Q 5.50167548294069 1.3069358952404624 5.479572656313645 1.281257611364926 Q 5.457469829686602 1.2555793274893898 5.414564342704693 1.2555793274893898 Q 5.374259188267143 1.2555793274893898 5.349881070663785 1.281257611364926 Q 5.325502953060428 1.3069358952404624 5.325502953060428 1.3524417147667291 L 5.325502953060428 1.5325147434635276 Q 5.325502953060428 1.539015574824423 5.321277412675846 1.5432411152090049 Q 5.317051872291264 1.5474666555935868 5.310551040930369 1.5474666555935868 L 5.278046884125892 1.5474666555935868 M 5.7740720616282335 1.553967486954482 Q 5.73766740600722 1.553967486954482 5.711664080563639 1.5448663230492286 Q 5.685660755120058 1.5357651591439754 5.66940867671782 1.5227634964221848 Q 5.653156598315582 1.5097618337003942 5.6450305591144625 1.4967601709786038 Q 5.636904519913344 1.4837585082568132 5.6362544367772545 1.475957510623739 Q 5.635604353641164 1.4688065961267542 5.640805018729881 1.464906097310217 Q 5.646005683818597 1.4610055984936798 5.651206348907313 1.4610055984936798 L 5.680460090031342 1.4610055984936798 Q 5.683710505711789 1.4610055984936798 5.685985796688103 1.4619807231978141 Q 5.688261087664416 1.4629558479019484 5.692161586480953 1.467506429854575 Q 5.700612667250117 1.4766075937598284 5.71101399742755 1.4857087576650818 Q 5.721415327604982 1.4948099215703352 5.736692281303085 1.500660669795141 Q 5.75196923500119 1.5065114180199466 5.774722144764323 1.5065114180199466 Q 5.807876384704889 1.5065114180199466 5.829329128195843 1.493834796866201 Q 5.850781871686798 1.4811581757124552 5.850781871686798 1.4564550165410532 Q 5.850781871686798 1.440202938138815 5.842005749349589 1.430451691097472 Q 5.83322962701238 1.4207004440561293 5.810801758817291 1.4128994464230549 Q 5.7883738906222035 1.4050984487899807 5.7493689024568315 1.396647368020817 Q 5.71036391429146 1.3875462041155635 5.687611004528327 1.3742194998257282 Q 5.664858094765194 1.360892795535893 5.65510684772385 1.3423654261573414 Q 5.645355600682508 1.32383805677879 5.645355600682508 1.300435063879567 Q 5.645355600682508 1.2763819878442546 5.659657429676477 1.253954119649166 Q 5.673959258670447 1.2315262514540772 5.7015877919542515 1.2172244224601076 Q 5.729216325238056 1.2029225934661383 5.770821645947786 1.2029225934661383 Q 5.804625969024441 1.2029225934661383 5.828679045059753 1.211373674235302 Q 5.852732121095066 1.2198247550044659 5.868334116361215 1.2325013761582115 Q 5.883936111627364 1.2451779973119574 5.891737109260438 1.2575295768976584 Q 5.899538106893512 1.2698811564833594 5.900188190029602 1.2783322372525232 Q 5.900838273165691 1.2848330686134184 5.896287691213065 1.2890586089980003 Q 5.891737109260438 1.2932841493825822 5.885886361035632 1.2932841493825822 L 5.858582869319872 1.2932841493825822 Q 5.854032287367245 1.2932841493825822 5.851106913254842 1.2913338999743136 Q 5.848181539142439 1.289383650566045 5.845581206598081 1.286783318021687 Q 5.839080375237186 1.2783322372525232 5.830304252899977 1.2698811564833594 Q 5.821528130562769 1.2614300757141956 5.807551343136844 1.2559043690574345 Q 5.7935745557109195 1.2503786624006736 5.770821645947786 1.2503786624006736 Q 5.738317489143309 1.2503786624006736 5.722065410741071 1.2640304082585536 Q 5.705813332338833 1.2776821541164336 5.705813332338833 1.2984848144712984 Q 5.705813332338833 1.3108363940569994 5.712964246835818 1.3205876410983424 Q 5.720115161332803 1.3303388881396851 5.740267738551578 1.3381398857727596 Q 5.760420315770354 1.3459408834058337 5.800075387071814 1.3550420473110871 Q 5.8429808740537235 1.363493128080251 5.867684033225125 1.3777949570742205 Q 5.892387192396527 1.39209678606819 5.902788522573959 1.4109491970147863 Q 5.913189852751392 1.4298016079613827 5.913189852751392 1.4545047671327846 Q 5.913189852751392 1.4818082588485446 5.897587857485243 1.504561168611678 Q 5.881985862219095 1.5273140783748114 5.850781871686798 1.5406407826646467 Q 5.8195778811545 1.553967486954482 5.7740720616282335 1.553967486954482 M 6.266190709269318 1.5474666555935868 Q 6.229786053648304 1.5474666555935868 6.2070331438851705 1.5334898681676619 Q 6.1842802341220375 1.5195130807417372 6.173878903944605 1.493834796866201 Q 6.163477573767173 1.4681565129906646 6.163477573767173 1.4330520236418303 L 6.163477573767173 1.2614300757141956 L 6.112771089152189 1.2614300757141956 Q 6.106270257791294 1.2614300757141956 6.102044717406712 1.2572045353296135 Q 6.097819177022131 1.2529789949450316 6.097819177022131 1.2464781635841364 L 6.097819177022131 1.2243753369570927 Q 6.097819177022131 1.2178745055961973 6.102044717406712 1.2136489652116154 Q 6.106270257791294 1.2094234248270335 6.112771089152189 1.2094234248270335 L 6.163477573767173 1.2094234248270335 L 6.163477573767173 1.1008595411000828 Q 6.163477573767173 1.0943587097391874 6.167703114151754 1.0901331693546055 Q 6.1719286545363365 1.0859076289700236 6.178429485897231 1.0859076289700236 L 6.2089833932934395 1.0859076289700236 Q 6.215484224654334 1.0859076289700236 6.219709765038917 1.0901331693546055 Q 6.223935305423498 1.0943587097391874 6.223935305423498 1.1008595411000828 L 6.223935305423498 1.2094234248270335 L 6.3045456142986 1.2094234248270335 Q 6.311696528795585 1.2094234248270335 6.315597027612122 1.2136489652116154 Q 6.319497526428659 1.2178745055961973 6.319497526428659 1.2243753369570927 L 6.319497526428659 1.2464781635841364 Q 6.319497526428659 1.2529789949450316 6.315597027612122 1.2572045353296135 Q 6.311696528795585 1.2614300757141956 6.3045456142986 1.2614300757141956 L 6.223935305423498 1.2614300757141956 L 6.223935305423498 1.4285014416892037 Q 6.223935305423498 1.4590553490854112 6.234336635600931 1.4766075937598284 Q 6.244737965778363 1.4941598384342456 6.271391374358034 1.4941598384342456 L 6.311046445659495 1.4941598384342456 Q 6.31754727702039 1.4941598384342456 6.321772817404972 1.4983853788188275 Q 6.325998357789554 1.5026109192034094 6.325998357789554 1.5091117505643048 L 6.325998357789554 1.5325147434635276 Q 6.325998357789554 1.539015574824423 6.321772817404972 1.5432411152090049 Q 6.31754727702039 1.5474666555935868 6.311046445659495 1.5474666555935868 L 6.266190709269318 1.5474666555935868 M 6.403352537362894 1.5474666555935868 Q 6.396851706001999 1.5474666555935868 6.392626165617417 1.5432411152090049 Q 6.388400625232835 1.539015574824423 6.388400625232835 1.5325147434635276 L 6.388400625232835 1.225025420093182 Q 6.388400625232835 1.2185245887322869 6.392626165617417 1.21397400677966 Q 6.396851706001999 1.2094234248270335 6.403352537362894 1.2094234248270335 L 6.4332563616230125 1.2094234248270335 Q 6.439757192983907 1.2094234248270335 6.444307774936534 1.21397400677966 Q 6.44885835688916 1.2185245887322869 6.44885835688916 1.225025420093182 L 6.44885835688916 1.2536290780811212 Q 6.461860019610951 1.2315262514540772 6.484612929374085 1.2204748381405555 Q 6.507365839137218 1.2094234248270335 6.539869995941694 1.2094234248270335 L 6.565223238249186 1.2094234248270335 Q 6.571724069610081 1.2094234248270335 6.575949609994663 1.2136489652116154 Q 6.580175150379245 1.2178745055961973 6.580175150379245 1.2243753369570927 L 6.580175150379245 1.251028745536763 Q 6.580175150379245 1.2575295768976584 6.575949609994663 1.2614300757141956 Q 6.571724069610081 1.2653305745307326 6.565223238249186 1.2653305745307326 L 6.526218250083814 1.2653305745307326 Q 6.49111376073498 1.2653305745307326 6.470961183516205 1.2858081933175527 Q 6.4508086062974295 1.3062858121043728 6.4508086062974295 1.3413903014532071 L 6.4508086062974295 1.5325147434635276 Q 6.4508086062974295 1.539015574824423 6.446258024344803 1.5432411152090049 Q 6.441707442392176 1.5474666555935868 6.435206611031281 1.5474666555935868 L 6.403352537362894 1.5474666555935868 M 6.7615515195822855 1.553967486954482 Q 6.719946198872556 1.553967486954482 6.6910174993165725 1.5354401175759305 Q 6.662088799760588 1.516912748197379 6.64713688763053 1.4837585082568132 Q 6.63218497550047 1.4506042683162474 6.63218497550047 1.4076987813343387 L 6.63218497550047 1.2243753369570927 Q 6.63218497550047 1.2178745055961973 6.636410515885052 1.2136489652116154 Q 6.640636056269634 1.2094234248270335 6.64713688763053 1.2094234248270335 L 6.679641044435005 1.2094234248270335 Q 6.686141875795901 1.2094234248270335 6.690367416180482 1.2136489652116154 Q 6.694592956565065 1.2178745055961973 6.694592956565065 1.2243753369570927 L 6.694592956565065 1.404448365653891 Q 6.694592956565065 1.5013107529312304 6.779103764256703 1.5013107529312304 Q 6.819408918694253 1.5013107529312304 6.843787036297611 1.4756324690556941 Q 6.868165153900968 1.4499541851801578 6.868165153900968 1.404448365653891 L 6.868165153900968 1.2243753369570927 Q 6.868165153900968 1.2178745055961973 6.87239069428555 1.2136489652116154 Q 6.876616234670132 1.2094234248270335 6.883117066031027 1.2094234248270335 L 6.915621222835504 1.2094234248270335 Q 6.922122054196398 1.2094234248270335 6.926022553012936 1.2136489652116154 Q 6.929923051829473 1.2178745055961973 6.929923051829473 1.2243753369570927 L 6.929923051829473 1.5325147434635276 Q 6.929923051829473 1.539015574824423 6.926022553012936 1.5432411152090049 Q 6.922122054196398 1.5474666555935868 6.915621222835504 1.5474666555935868 L 6.885067315439295 1.5474666555935868 Q 6.878566484078401 1.5474666555935868 6.874340943693818 1.5432411152090049 Q 6.870115403309237 1.539015574824423 6.870115403309237 1.5325147434635276 L 6.870115403309237 1.5039110854755886 Q 6.852563158634819 1.526663995238722 6.827534957895373 1.540315741096602 Q 6.802506757155926 1.553967486954482 6.7615515195822855 1.553967486954482 M 7.143793737711395 1.553967486954482 Q 7.107389082090381 1.553967486954482 7.0813857566468 1.5448663230492286 Q 7.05538243120322 1.5357651591439754 7.039130352800981 1.5227634964221848 Q 7.022878274398743 1.5097618337003942 7.014752235197624 1.4967601709786038 Q 7.006626195996505 1.4837585082568132 7.005976112860416 1.475957510623739 Q 7.005326029724325 1.4688065961267542 7.010526694813042 1.464906097310217 Q 7.015727359901758 1.4610055984936798 7.020928024990474 1.4610055984936798 L 7.050181766114503 1.4610055984936798 Q 7.053432181794951 1.4610055984936798 7.055707472771264 1.4619807231978141 Q 7.057982763747577 1.4629558479019484 7.061883262564114 1.467506429854575 Q 7.070334343333278 1.4766075937598284 7.080735673510711 1.4857087576650818 Q 7.091137003688143 1.4948099215703352 7.106413957386247 1.500660669795141 Q 7.121690911084351 1.5065114180199466 7.144443820847484 1.5065114180199466 Q 7.17759806078805 1.5065114180199466 7.199050804279004 1.493834796866201 Q 7.220503547769959 1.4811581757124552 7.220503547769959 1.4564550165410532 Q 7.220503547769959 1.440202938138815 7.21172742543275 1.430451691097472 Q 7.202951303095541 1.4207004440561293 7.1805234349004525 1.4128994464230549 Q 7.158095566705365 1.4050984487899807 7.119090578539993 1.396647368020817 Q 7.080085590374622 1.3875462041155635 7.057332680611488 1.3742194998257282 Q 7.034579770848355 1.360892795535893 7.024828523807011 1.3423654261573414 Q 7.015077276765669 1.32383805677879 7.015077276765669 1.300435063879567 Q 7.015077276765669 1.2763819878442546 7.029379105759638 1.253954119649166 Q 7.043680934753608 1.2315262514540772 7.071309468037413 1.2172244224601076 Q 7.098938001321217 1.2029225934661383 7.140543322030947 1.2029225934661383 Q 7.174347645107602 1.2029225934661383 7.198400721142915 1.211373674235302 Q 7.222453797178227 1.2198247550044659 7.238055792444376 1.2325013761582115 Q 7.253657787710525 1.2451779973119574 7.261458785343599 1.2575295768976584 Q 7.269259782976674 1.2698811564833594 7.269909866112763 1.2783322372525232 Q 7.270559949248852 1.2848330686134184 7.266009367296226 1.2890586089980003 Q 7.261458785343599 1.2932841493825822 7.255608037118793 1.2932841493825822 L 7.2283045454030335 1.2932841493825822 Q 7.223753963450406 1.2932841493825822 7.220828589338003 1.2913338999743136 Q 7.217903215225601 1.289383650566045 7.215302882681242 1.286783318021687 Q 7.2088020513203475 1.2783322372525232 7.2000259289831385 1.2698811564833594 Q 7.1912498066459305 1.2614300757141956 7.177273019220006 1.2559043690574345 Q 7.163296231794081 1.2503786624006736 7.140543322030947 1.2503786624006736 Q 7.1080391652264705 1.2503786624006736 7.091787086824232 1.2640304082585536 Q 7.075535008421994 1.2776821541164336 7.075535008421994 1.2984848144712984 Q 7.075535008421994 1.3108363940569994 7.082685922918979 1.3205876410983424 Q 7.089836837415964 1.3303388881396851 7.1099894146347395 1.3381398857727596 Q 7.130141991853515 1.3459408834058337 7.1697970631549754 1.3550420473110871 Q 7.212702550136885 1.363493128080251 7.237405709308287 1.3777949570742205 Q 7.262108868479689 1.39209678606819 7.272510198657121 1.4109491970147863 Q 7.282911528834553 1.4298016079613827 7.282911528834553 1.4545047671327846 Q 7.282911528834553 1.4818082588485446 7.267309533568405 1.504561168611678 Q 7.251707538302256 1.5273140783748114 7.220503547769959 1.5406407826646467 Q 7.1892995572376615 1.553967486954482 7.143793737711395 1.553967486954482 M 7.48965955090265 1.5474666555935868 Q 7.453254895281637 1.5474666555935868 7.430501985518503 1.5334898681676619 Q 7.40774907575537 1.5195130807417372 7.397347745577937 1.493834796866201 Q 7.386946415400505 1.4681565129906646 7.386946415400505 1.4330520236418303 L 7.386946415400505 1.2614300757141956 L 7.3362399307855215 1.2614300757141956 Q 7.329739099424627 1.2614300757141956 7.325513559040044 1.2572045353296135 Q 7.321288018655463 1.2529789949450316 7.321288018655463 1.2464781635841364 L 7.321288018655463 1.2243753369570927 Q 7.321288018655463 1.2178745055961973 7.325513559040044 1.2136489652116154 Q 7.329739099424627 1.2094234248270335 7.3362399307855215 1.2094234248270335 L 7.386946415400505 1.2094234248270335 L 7.386946415400505 1.1008595411000828 Q 7.386946415400505 1.0943587097391874 7.391171955785087 1.0901331693546055 Q 7.395397496169669 1.0859076289700236 7.401898327530564 1.0859076289700236 L 7.432452234926772 1.0859076289700236 Q 7.438953066287667 1.0859076289700236 7.443178606672249 1.0901331693546055 Q 7.44740414705683 1.0943587097391874 7.44740414705683 1.1008595411000828 L 7.44740414705683 1.2094234248270335 L 7.528014455931932 1.2094234248270335 Q 7.535165370428917 1.2094234248270335 7.539065869245454 1.2136489652116154 Q 7.542966368061991 1.2178745055961973 7.542966368061991 1.2243753369570927 L 7.542966368061991 1.2464781635841364 Q 7.542966368061991 1.2529789949450316 7.539065869245454 1.2572045353296135 Q 7.535165370428917 1.2614300757141956 7.528014455931932 1.2614300757141956 L 7.44740414705683 1.2614300757141956 L 7.44740414705683 1.4285014416892037 Q 7.44740414705683 1.4590553490854112 7.457805477234263 1.4766075937598284 Q 7.468206807411695 1.4941598384342456 7.494860215991366 1.4941598384342456 L 7.534515287292828 1.4941598384342456 Q 7.541016118653722 1.4941598384342456 7.545241659038305 1.4983853788188275 Q 7.549467199422886 1.5026109192034094 7.549467199422886 1.5091117505643048 L 7.549467199422886 1.5325147434635276 Q 7.549467199422886 1.539015574824423 7.545241659038305 1.5432411152090049 Q 7.541016118653722 1.5474666555935868 7.534515287292828 1.5474666555935868 L 7.48965955090265 1.5474666555935868" fill="#67a97b" fill-rule="nonzero"></path></g><g clip-path="url(#SvgjsClipPath1001)"><g clip-path="url(#SvgjsClipPath10000ddb2ad5-0d06-4107-8901-c5361384e362)"><path d=" M -0.3999999999999999 1.2781293808872953 L -0.3999999999999999 0.9631275466002288 L -0.7280635045493726 0.7737967339631152 L -1.8745738039814857 1.4356302980308286 L -1.2736101595827705 1.7825888401441197 L -0.3999999999999999 1.2781293808872953 Z" fill="#a4c868" transform="matrix(1,0,0,1,0,0)" fill-rule="evenodd"></path></g><g clip-path="url(#SvgjsClipPath10000ddb2ad5-0d06-4107-8901-c5361384e362)"><path d=" M -0.6727733275166989 0.11183635756275795 L -1.2736101595827705 0.4586680873434049 L -0.3999999999999999 0.9631275466002288 L -0.3999999999999999 0.2693372747062912 L -0.6727733275166989 0.11183635756275795 Z" fill="#67a97b" transform="matrix(1,0,0,1,0,0)" fill-rule="evenodd"></path></g><g clip-path="url(#SvgjsClipPath10000ddb2ad5-0d06-4107-8901-c5361384e362)"><path d=" M -2.1473471314981847 0.2693372747062912 L -2.1473471314981847 0.5843391089933576 L -1.8192836269488122 0.7736699216304715 L -0.6727733275166989 0.11183635756275795 L -1.2736101595827705 -0.2351221845505328 L -2.1473471314981847 0.2693372747062912 Z" fill="#a4c868" transform="matrix(1,0,0,1,0,0)" fill-rule="evenodd"></path></g><g clip-path="url(#SvgjsClipPath10000ddb2ad5-0d06-4107-8901-c5361384e362)"><path d=" M -1.2736101595827705 1.0887985682501817 L -2.1473471314981847 0.5843391089933576 L -2.1473471314981847 1.2781293808872953 L -1.8745738039814857 1.4356302980308286 L -1.2736101595827705 1.0887985682501817 Z" fill="#67a97b" transform="matrix(1,0,0,1,0,0)" fill-rule="evenodd"></path></g></g></g><defs><clipPath id="SvgjsClipPath1001"><path d=" M -2.1473471314981847 -0.2351221845505328 h 1.7473471314981848 v 2.0177110246946524 h -1.7473471314981848 Z"></path></clipPath><clipPath id="SvgjsClipPath10000ddb2ad5-0d06-4107-8901-c5361384e362"><path d=" M -2.1473471314981847 -0.2351221845505328 L -0.3999999999999999 -0.2351221845505328 L -0.3999999999999999 1.7825888401441197 L -2.1473471314981847 1.7825888401441197 Z"></path></clipPath></defs></svg>