<svg xmlns="http://www.w3.org/2000/svg" version="1.1" xmlns:xlink="http://www.w3.org/1999/xlink" xmlns:svgjs="http://svgjs.dev/svgjs" viewBox="0 0 9.466660161317641 2.8523812873398313"><g transform="matrix(1,0,0,1,2.5646822628207744,0.6524573158731223)"><g><path d=" M 0.5475169120405275 0.6550048947724102 L 0.2071383000562323 0.6550048947724102 L 0.14443697679596737 0.8285532002249292 L 0.03694899406408468 0.8285532002249292 L 0.3191049487352768 0.05262432487915092 L 0.43666992984827346 0.05262432487915092 L 0.7177062180326751 0.8285532002249292 L 0.6102182353007924 0.8285532002249292 L 0.5475169120405275 0.6550048947724102 M 0.5184055833839759 0.5721495747499172 L 0.3773276060483799 0.1780269713996807 L 0.23624962871278385 0.5721495747499172 L 0.5184055833839759 0.5721495747499172 M 0.9416520897702545 0 L 0.9416520897702545 0.8285532002249292 L 0.839762439472324 0.8285532002249292 L 0.839762439472324 0 L 0.9416520897702545 0 M 1.2383319994649207 0.2989509519730488 L 1.2383319994649207 0.6606032272063624 Q 1.2383319994649207 0.7053898866779802 1.2573663297403581 0.7238643837100226 Q 1.2764006600157958 0.7423388807420649 1.3234266524609946 0.7423388807420649 L 1.3984443070759542 0.7423388807420649 L 1.3984443070759542 0.8285532002249292 L 1.3066316551591377 0.8285532002249292 Q 1.221537002163064 0.8285532002249292 1.178989675665027 0.7893648731872636 Q 1.1364423491669902 0.7501765461495981 1.1364423491669902 0.6606032272063624 L 1.1364423491669902 0.2989509519730488 L 1.0569460286048686 0.2989509519730488 L 1.0569460286048686 0.2149759654637654 L 1.1364423491669902 0.2149759654637654 L 1.1364423491669902 0.060461990286683975 L 1.2383319994649207 0.060461990286683975 L 1.2383319994649207 0.2149759654637654 L 1.3984443070759542 0.2149759654637654 L 1.3984443070759542 0.2989509519730488 L 1.2383319994649207 0.2989509519730488 M 1.989083686798163 0.46130259255766326 Q 2.024353181132062 0.4892942547274244 2.045067011137685 0.5307219147386708 Q 2.0657808411433085 0.5721495747499172 2.0657808411433085 0.619175567195116 Q 2.0657808411433085 0.6785178909950096 2.0355498459999666 0.7261037166836035 Q 2.005318850856624 0.7736895423721973 1.9476560267869165 0.8011213712985633 Q 1.8899932027172086 0.8285532002249292 1.8116165486418774 0.8285532002249292 L 1.5205032620763617 0.8285532002249292 L 1.5205032620763617 0.04814565893198919 L 1.8004198837739729 0.04814565893198919 Q 1.8799162043360944 0.04814565893198919 1.9358995286756167 0.07445782137156454 Q 1.991882853015139 0.10076998381114 2.0198745151849002 0.14555664328275786 Q 2.047866177354661 0.1903433027543756 2.047866177354661 0.24632662709389785 Q 2.047866177354661 0.3157459492749054 2.0103573500471814 0.36109244198991847 Q 1.9728485227397015 0.4064389347049315 1.911266865966227 0.4265929314671595 Q 1.953814192464264 0.43331093038790214 1.989083686798163 0.46130259255766326 M 1.6223929123742922 0.385165271455913 L 1.7937018848532302 0.385165271455913 Q 1.8653605400078188 0.385165271455913 1.9045488670454844 0.3515752768521997 Q 1.94373719408315 0.3179852822484863 1.94373719408315 0.25864295844859275 Q 1.94373719408315 0.19930063464869918 1.9045488670454844 0.1657106400449858 Q 1.8653605400078188 0.13212064544127244 1.7914625518796494 0.13212064544127244 L 1.6223929123742922 0.13212064544127244 L 1.6223929123742922 0.385165271455913 M 1.921343864347341 0.7087488861383515 Q 1.963891190845378 0.6729195585610573 1.963891190845378 0.609098568814002 Q 1.963891190845378 0.5441579125801561 1.91910453137376 0.5066490852726763 Q 1.8743178719021423 0.46914025796519637 1.7993002172871826 0.46914025796519637 L 1.6223929123742922 0.46914025796519637 L 1.6223929123742922 0.7445782137156458 L 1.802659216747554 0.7445782137156458 Q 1.8787965378493041 0.7445782137156458 1.921343864347341 0.7087488861383515 M 2.205712363096678 0.3543744430691758 Q 2.2437810236475535 0.28327562115798255 2.310401179611585 0.24408729412031693 Q 2.3770213355756162 0.20489896708265143 2.458756989111319 0.20489896708265143 Q 2.539372976160231 0.20489896708265143 2.5987152999601246 0.2396086281731552 Q 2.658057623760018 0.274318289263659 2.6871689524165694 0.3269426141428099 L 2.6871689524165694 0.2149759654637654 L 2.7901782692012906 0.2149759654637654 L 2.7901782692012906 0.8285532002249292 L 2.6871689524165694 0.8285532002249292 L 2.6871689524165694 0.7143472185723038 Q 2.6569379572732275 0.7680912099382452 2.5970358002299387 0.8033607042721441 Q 2.53713364318665 0.8386301986060432 2.4576373226245285 0.8386301986060432 Q 2.375901669088826 0.8386301986060432 2.3098413463681897 0.7983222050815871 Q 2.2437810236475535 0.7580142115571311 2.205712363096678 0.6852358899157522 Q 2.1676437025458033 0.6124575682743734 2.1676437025458033 0.5195252498707664 Q 2.1676437025458033 0.425473264980369 2.205712363096678 0.3543744430691758 M 2.6591772902468085 0.3997209357841888 Q 2.631185628077047 0.34821627739182837 2.5835998023884534 0.3207844484654625 Q 2.5360139766998593 0.2933526195390965 2.4789109858735467 0.2933526195390965 Q 2.421807995047234 0.2933526195390965 2.3747820026020356 0.32022461522206724 Q 2.3277560101568366 0.3470966109050379 2.2997643479870757 0.39860126929739836 Q 2.2717726858173144 0.4501059276897588 2.2717726858173144 0.5195252498707664 Q 2.2717726858173144 0.5900642385385644 2.2997643479870757 0.6421287301743202 Q 2.3277560101568366 0.6941932218100758 2.3747820026020356 0.7216250507364417 Q 2.421807995047234 0.7490568796628077 2.4789109858735467 0.7490568796628077 Q 2.5360139766998593 0.7490568796628077 2.5835998023884534 0.7216250507364417 Q 2.631185628077047 0.6941932218100758 2.6591772902468085 0.6421287301743202 Q 2.6871689524165694 0.5900642385385644 2.6871689524165694 0.5206449163575568 Q 2.6871689524165694 0.4512255941765493 2.6591772902468085 0.3997209357841888 M 3.0522086561421458 0.8145573691400486 Q 2.9962253318026235 0.7904845396740541 2.9637550036857006 0.747377379932622 Q 2.9312846755687776 0.7042702201911898 2.9279256761084063 0.6482868958516675 L 3.033174325866708 0.6482868958516675 Q 3.0376529918138697 0.6941932218100758 3.07628148560814 0.7233045504666273 Q 3.1149099794024107 0.752415879123179 3.1776113026626756 0.752415879123179 Q 3.2358339599757784 0.752415879123179 3.269423954579492 0.7266635499269987 Q 3.3030139491832053 0.7009112207308185 3.3030139491832053 0.661722893693153 Q 3.3030139491832053 0.6214149001686968 3.267184621605911 0.6018207366498641 Q 3.2313552940286168 0.5822265731310313 3.156337639413657 0.5631922428555938 Q 3.08803798371944 0.5452775790669466 3.0449308239780075 0.5268030820349043 Q 3.0018236642365754 0.5083285850028619 2.9710328358498383 0.4719394241821725 Q 2.9402420074631013 0.43555026336148306 2.9402420074631013 0.3762079395615895 Q 2.9402420074631013 0.32918194711639076 2.968233669632862 0.2899936200787252 Q 2.9962253318026235 0.2508052930410597 3.0477299901949837 0.22785213006185556 Q 3.0992346485873443 0.20489896708265143 3.1652949713079805 0.20489896708265143 Q 3.267184621605911 0.20489896708265143 3.329885944866176 0.25640362547501183 Q 3.392587268126441 0.30790828386737235 3.3970659340736025 0.3974816028106079 L 3.295176283775672 0.3974816028106079 Q 3.2918172843153006 0.34933594387861877 3.256547789981402 0.32022461522206724 Q 3.221278295647503 0.2911132865655157 3.161935971847609 0.2911132865655157 Q 3.1070723139948773 0.2911132865655157 3.0746019858779547 0.314626282788115 Q 3.042131657761032 0.33813927901071433 3.042131657761032 0.3762079395615895 Q 3.042131657761032 0.4064389347049315 3.0617258212798646 0.4260330982237643 Q 3.0813199847986974 0.44562726174259704 3.110991146698644 0.45738375985389673 Q 3.140662308598591 0.46914025796519637 3.193286633477742 0.4836959222934722 Q 3.259346956198378 0.5016105860821193 3.3007746162096243 0.5189654166273712 Q 3.342202276220871 0.536320247172623 3.3718734381208177 0.5710299082631269 Q 3.4015446000207645 0.6057395693536307 3.402664266507555 0.661722893693153 Q 3.402664266507555 0.712107885598723 3.374672604337794 0.752415879123179 Q 3.3466809421680326 0.7927238726476349 3.2957361170190675 0.815677035626839 Q 3.244791291870102 0.8386301986060432 3.178730969149466 0.8386301986060432 Q 3.108191980481668 0.8386301986060432 3.0522086561421458 0.8145573691400486 M 4.101305538384294 0.5598332433952224 L 3.610891617170079 0.5598332433952224 Q 3.6164899496040315 0.6505262288252485 3.673033107186949 0.7014710539742137 Q 3.7295762647698663 0.752415879123179 3.8101922518187785 0.752415879123179 Q 3.8762525745394147 0.752415879123179 3.920479400767637 0.7216250507364417 Q 3.96470622699586 0.6908342223497045 3.982620890784507 0.639329563957344 L 4.09234820648997 0.639329563957344 Q 4.067715543780581 0.7277832164137892 3.993817555652411 0.7832067075099162 Q 3.919919567524242 0.8386301986060432 3.8101922518187785 0.8386301986060432 Q 3.7228582658491236 0.8386301986060432 3.653998776911511 0.7994418715683776 Q 3.585139287973899 0.760253544530712 3.545950960936233 0.6880350561327284 Q 3.506762633898568 0.6158165677347447 3.506762633898568 0.5206449163575568 Q 3.506762633898568 0.425473264980369 3.544831294449443 0.35381460982578056 Q 3.582899955000318 0.28215595467119214 3.6517594439379306 0.2435274608769218 Q 3.720618932875543 0.20489896708265143 3.8101922518187785 0.20489896708265143 Q 3.897526237788433 0.20489896708265143 3.96470622699586 0.24296762763352653 Q 4.0318862162032865 0.28103628818440163 4.068275377023976 0.3476564441484331 Q 4.104664537844665 0.4142766001124646 4.104664537844665 0.49825158662174795 Q 4.104664537844665 0.5273629152782995 4.101305538384294 0.5598332433952224 M 3.973663558890183 0.3767677728049847 Q 3.947911229694003 0.334780279550343 3.9036844034657805 0.31294678305792933 Q 3.859457577237558 0.2911132865655157 3.8057135858716165 0.2911132865655157 Q 3.728456598283076 0.2911132865655157 3.674152773673739 0.34037861198429525 Q 3.619848949064403 0.3896439374030748 3.61201128365687 0.4769779233727295 L 3.9994158880863635 0.4769779233727295 Q 3.9994158880863635 0.4187552660596264 3.973663558890183 0.3767677728049847" fill="#ffffff" fill-rule="nonzero"></path></g><g><path d=" M 0.22037818313434918 1.553967486954482 Q 0.16447103343064998 1.553967486954482 0.12481596212918891 1.534790034439841 Q 0.08516089082772785 1.5156125819252 0.0637081473367735 1.4756324690556941 Q 0.04225540384581916 1.4356523561861882 0.03965507130146106 1.3751946245298625 Q 0.03900498816537153 1.3465909665419233 0.03900498816537153 1.3202625995302975 Q 0.03900498816537153 1.2939342325186718 0.03965507130146106 1.2653305745307326 Q 0.04225540384581916 1.2055229260104963 0.06468327204090779 1.1655428131409904 Q 0.08711114023599643 1.1255627002714848 0.12709125310550226 1.105735164620754 Q 0.16707136597500807 1.0859076289700236 0.22037818313434918 1.0859076289700236 Q 0.27303491715760075 1.0859076289700236 0.31301503002710657 1.105735164620754 Q 0.3529951428966124 1.1255627002714848 0.3757480526597458 1.1655428131409904 Q 0.3985009624228792 1.2055229260104963 0.40045121183114774 1.2653305745307326 Q 0.4017513781033268 1.2939342325186718 0.4017513781033268 1.3202625995302975 Q 0.4017513781033268 1.3465909665419233 0.40045121183114774 1.3751946245298625 Q 0.3985009624228792 1.4356523561861882 0.37672317736388006 1.4756324690556941 Q 0.354945392304881 1.5156125819252 0.3152903210034199 1.534790034439841 Q 0.27563524970195885 1.553967486954482 0.22037818313434918 1.553967486954482 M 0.22037818313434918 1.4987104203868724 Q 0.2697845014771531 1.4987104203868724 0.30131353357749513 1.4688065961267542 Q 0.3328425656778371 1.438902771866636 0.3354428982221952 1.371944208849415 Q 0.33674306449437424 1.3426904677253861 0.33674306449437424 1.319612516394208 Q 0.33674306449437424 1.29653456506303 0.3354428982221952 1.2679309070750908 Q 0.33414273195001615 1.2230751706849134 0.3188657782519123 1.1951215958330639 Q 0.3035888245538084 1.1671680209812143 0.27823558224631695 1.1541663582594237 Q 0.2528823399388255 1.1411646955376333 0.22037818313434918 1.1411646955376333 Q 0.1878740263298729 1.1411646955376333 0.1625207840223814 1.1541663582594237 Q 0.1371675417148899 1.1671680209812143 0.12189058801678605 1.1951215958330639 Q 0.10661363431868219 1.2230751706849134 0.10466338491041362 1.2679309070750908 Q 0.1040133017743241 1.29653456506303 0.1040133017743241 1.319612516394208 Q 0.1040133017743241 1.3426904677253861 0.10466338491041362 1.371944208849415 Q 0.10726371745477171 1.438902771866636 0.13911779112315847 1.4688065961267542 Q 0.17097186479154522 1.4987104203868724 0.22037818313434918 1.4987104203868724 M 0.5038157001630076 1.6709824514505967 Q 0.4973148688021123 1.6709824514505967 0.4930893284175304 1.6667569110660148 Q 0.48886378803294844 1.6625313706814329 0.48886378803294844 1.6560305393205375 L 0.48886378803294844 1.2243753369570927 Q 0.48886378803294844 1.2178745055961973 0.4930893284175304 1.2136489652116154 Q 0.4973148688021123 1.2094234248270335 0.5038157001630076 1.2094234248270335 L 0.5337195244231258 1.2094234248270335 Q 0.540220355784021 1.2094234248270335 0.544445896168603 1.2136489652116154 Q 0.5486714365531848 1.2178745055961973 0.5486714365531848 1.2243753369570927 L 0.5486714365531848 1.2529789949450316 Q 0.5642734318193334 1.2315262514540772 0.5902767572629144 1.2172244224601076 Q 0.6162800827064955 1.2029225934661383 0.655285070871867 1.2029225934661383 Q 0.6916897264928805 1.2029225934661383 0.7173680103684167 1.2152741730518393 Q 0.743046294243953 1.22762575263754 0.7596234142142358 1.2490784961284946 Q 0.7762005341845188 1.2705312396194488 0.7846516149536826 1.297834731335209 Q 0.7931026957228464 1.325138223050969 0.7944028619950254 1.3563422135832663 Q 0.795052945131115 1.3667435437606987 0.795052945131115 1.3784450402103101 Q 0.795052945131115 1.3901465366599215 0.7944028619950254 1.4005478668373539 Q 0.7931026957228464 1.4311017742335617 0.7846516149536826 1.4587303075173665 Q 0.7762005341845188 1.4863588408011714 0.7596234142142358 1.507486542724081 Q 0.743046294243953 1.5286142446469906 0.7173680103684167 1.5412908658007363 Q 0.6916897264928805 1.553967486954482 0.655285070871867 1.553967486954482 Q 0.6175802489786746 1.553967486954482 0.5919019651031383 1.5399906995285573 Q 0.566223681227602 1.5260139121026324 0.5499716028253638 1.5052112517477676 L 0.5499716028253638 1.6560305393205375 Q 0.5499716028253638 1.6625313706814329 0.5460711040088267 1.6667569110660148 Q 0.5421706051922895 1.6709824514505967 0.5356697738313942 1.6709824514505967 L 0.5038157001630076 1.6709824514505967 M 0.641633325013987 1.5013107529312304 Q 0.6754376480906423 1.5013107529312304 0.6946151006052833 1.4866838823692161 Q 0.7137925531199243 1.4720570118072018 0.7222436338890881 1.4483289773399342 Q 0.730694714658252 1.4246009428726665 0.7319948809304311 1.3972974511569063 Q 0.7326449640665206 1.3784450402103101 0.7319948809304311 1.359592629263714 Q 0.730694714658252 1.3322891375479538 0.7222436338890881 1.308561103080686 Q 0.7137925531199243 1.2848330686134184 0.6946151006052833 1.2702061980514041 Q 0.6754376480906423 1.2555793274893898 0.641633325013987 1.2555793274893898 Q 0.6097792513456002 1.2555793274893898 0.5899517156948697 1.2705312396194488 Q 0.5701241800441391 1.285483151749508 0.560697974570841 1.308561103080686 Q 0.5512717690975429 1.3316390544118644 0.5499716028253638 1.3556921304471767 Q 0.5493215196892743 1.3660934606246091 0.5493215196892743 1.3803952896185787 Q 0.5493215196892743 1.3946971186125483 0.5499716028253638 1.4057485319260703 Q 0.5506216859614534 1.4285014416892037 0.560697974570841 1.4506042683162474 Q 0.5707742631802286 1.4727070949432912 0.590926840399004 1.4870089239372608 Q 0.6110794176177793 1.5013107529312304 0.641633325013987 1.5013107529312304 M 1.0108859425107446 1.553967486954482 Q 0.943277296357434 1.553967486954482 0.9036222250559729 1.512687207812797 Q 0.8639671537545118 1.4714069286711122 0.8600666549379746 1.3998977837012645 Q 0.8594165718018851 1.3914467029321007 0.8594165718018851 1.3781199986422654 Q 0.8594165718018851 1.3647932943524301 0.8600666549379746 1.3563422135832663 Q 0.8626669874823327 1.31018631092091 0.881519398428929 1.2754068631401203 Q 0.9003718093755252 1.2406274153593306 0.9332010077480463 1.2217750044127345 Q 0.9660302061205673 1.2029225934661383 1.010235859374655 1.2029225934661383 Q 1.059642177717459 1.2029225934661383 1.0931214592260696 1.223725253821003 Q 1.12660074073468 1.2445279141758678 1.1441529854090973 1.2828828192051498 Q 1.1617052300835145 1.321237724234432 1.1617052300835145 1.3725942919855043 L 1.1617052300835145 1.3836457052990263 Q 1.1617052300835145 1.390796619796011 1.1574796896989326 1.3946971186125483 Q 1.1532541493143507 1.3985976174290853 1.1467533179534555 1.3985976174290853 L 0.9218245528664796 1.3985976174290853 Q 0.9218245528664796 1.399247700565175 0.9218245528664796 1.4011979499734435 Q 0.9218245528664796 1.403148199381712 0.9218245528664796 1.404448365653891 Q 0.9231247191386587 1.4311017742335617 0.9335260493160911 1.4541797255647397 Q 0.9439273794935235 1.477257676895918 0.9637549151442539 1.4915595058898876 Q 0.9835824507949845 1.5058613348838572 1.010235859374655 1.5058613348838572 Q 1.033638852273878 1.5058613348838572 1.0492408475400266 1.4987104203868724 Q 1.0648428428061751 1.4915595058898876 1.0745940898475181 1.482783383552679 Q 1.084345336888861 1.4740072612154704 1.0875957525693085 1.4688065961267542 Q 1.0934465007941143 1.4610055984936798 1.096696916474562 1.4593803906534561 Q 1.0999473321550095 1.4577551828132322 1.1070982466519943 1.4577551828132322 L 1.138952320320381 1.4577551828132322 Q 1.1448030685451869 1.4577551828132322 1.1490286089297688 1.4613306400617245 Q 1.1532541493143507 1.464906097310217 1.1526040661782613 1.4714069286711122 Q 1.1519539830421717 1.4811581757124552 1.1422027360008287 1.49513496313838 Q 1.1324514889594859 1.5091117505643048 1.1145742027170238 1.5227634964221848 Q 1.096696916474562 1.5364152422800648 1.0703685494629362 1.5451913646172735 Q 1.0440401824513104 1.553967486954482 1.0108859425107446 1.553967486954482 M 0.9218245528664796 1.3537418810389081 L 1.0999473321550095 1.3537418810389081 L 1.0999473321550095 1.3517916316306395 Q 1.0999473321550095 1.322537890506611 1.0892209604095324 1.2997849807434776 Q 1.0784945886640553 1.277032070980344 1.05834201144528 1.263705366690509 Q 1.0381894342265046 1.2503786624006736 1.010235859374655 1.2503786624006736 Q 0.9822822845228054 1.2503786624006736 0.9624547488720749 1.263705366690509 Q 0.9426272132213444 1.277032070980344 0.932225883043912 1.2997849807434776 Q 0.9218245528664796 1.322537890506611 0.9218245528664796 1.3517916316306395 L 0.9218245528664796 1.3537418810389081 M 1.2546655314272852 1.5474666555935868 Q 1.24816470006639 1.5474666555935868 1.2439391596818081 1.5432411152090049 Q 1.2397136192972262 1.539015574824423 1.2397136192972262 1.5325147434635276 L 1.2397136192972262 1.2243753369570927 Q 1.2397136192972262 1.2178745055961973 1.2439391596818081 1.2136489652116154 Q 1.24816470006639 1.2094234248270335 1.2546655314272852 1.2094234248270335 L 1.285219438823493 1.2094234248270335 Q 1.2917202701843882 1.2094234248270335 1.29594581056897 1.2136489652116154 Q 1.300171350953552 1.2178745055961973 1.300171350953552 1.2243753369570927 L 1.300171350953552 1.2529789949450316 Q 1.3170735124918798 1.2308761683179879 1.342751796367416 1.216899380892063 Q 1.3684300802429523 1.2029225934661383 1.4087352346805029 1.2029225934661383 Q 1.450990638526322 1.2029225934661383 1.4805694212183953 1.2214499628446895 Q 1.5101482039104688 1.239977332223241 1.5254251576085727 1.272806530595762 Q 1.5407021113066766 1.3056357289682832 1.5407021113066766 1.3491912990862815 L 1.5407021113066766 1.5325147434635276 Q 1.5407021113066766 1.539015574824423 1.5364765709220947 1.5432411152090049 Q 1.5322510305375125 1.5474666555935868 1.5257501991766174 1.5474666555935868 L 1.4932460423721412 1.5474666555935868 Q 1.4867452110112458 1.5474666555935868 1.482519670626664 1.5432411152090049 Q 1.478294130242082 1.539015574824423 1.478294130242082 1.5325147434635276 L 1.478294130242082 1.3524417147667291 Q 1.478294130242082 1.3069358952404624 1.4561913036150382 1.281257611364926 Q 1.4340884769879942 1.2555793274893898 1.3911829900060857 1.2555793274893898 Q 1.350877835568535 1.2555793274893898 1.3264997179651778 1.281257611364926 Q 1.3021216003618206 1.3069358952404624 1.3021216003618206 1.3524417147667291 L 1.3021216003618206 1.5325147434635276 Q 1.3021216003618206 1.539015574824423 1.2978960599772387 1.5432411152090049 Q 1.2936705195926568 1.5474666555935868 1.2871696882317616 1.5474666555935868 L 1.2546655314272852 1.5474666555935868 M 1.6486276565635707 1.5474666555935868 Q 1.6421268252026755 1.5474666555935868 1.6379012848180936 1.5432411152090049 Q 1.6336757444335117 1.539015574824423 1.6336757444335117 1.5325147434635276 L 1.6336757444335117 1.2243753369570927 Q 1.6336757444335117 1.2178745055961973 1.6379012848180936 1.2136489652116154 Q 1.6421268252026755 1.2094234248270335 1.6486276565635707 1.2094234248270335 L 1.6791815639597785 1.2094234248270335 Q 1.6856823953206737 1.2094234248270335 1.6899079357052555 1.2136489652116154 Q 1.6941334760898374 1.2178745055961973 1.6941334760898374 1.2243753369570927 L 1.6941334760898374 1.2529789949450316 Q 1.7110356376281652 1.2308761683179879 1.7367139215037015 1.216899380892063 Q 1.7623922053792378 1.2029225934661383 1.8026973598167884 1.2029225934661383 Q 1.8449527636626075 1.2029225934661383 1.8745315463546808 1.2214499628446895 Q 1.9041103290467543 1.239977332223241 1.9193872827448581 1.272806530595762 Q 1.934664236442962 1.3056357289682832 1.934664236442962 1.3491912990862815 L 1.934664236442962 1.5325147434635276 Q 1.934664236442962 1.539015574824423 1.9304386960583801 1.5432411152090049 Q 1.926213155673798 1.5474666555935868 1.9197123243129028 1.5474666555935868 L 1.8872081675084267 1.5474666555935868 Q 1.8807073361475313 1.5474666555935868 1.8764817957629494 1.5432411152090049 Q 1.8722562553783675 1.539015574824423 1.8722562553783675 1.5325147434635276 L 1.8722562553783675 1.3524417147667291 Q 1.8722562553783675 1.3069358952404624 1.8501534287513237 1.281257611364926 Q 1.8280506021242797 1.2555793274893898 1.7851451151423712 1.2555793274893898 Q 1.7448399607048204 1.2555793274893898 1.7204618431014633 1.281257611364926 Q 1.696083725498106 1.3069358952404624 1.696083725498106 1.3524417147667291 L 1.696083725498106 1.5325147434635276 Q 1.696083725498106 1.539015574824423 1.6918581851135241 1.5432411152090049 Q 1.6876326447289423 1.5474666555935868 1.681131813368047 1.5474666555935868 L 1.6486276565635707 1.5474666555935868 M 2.1628551618764185 1.553967486954482 Q 2.0952465157231077 1.553967486954482 2.0555914444216468 1.512687207812797 Q 2.015936373120186 1.4714069286711122 2.0120358743036486 1.3998977837012645 Q 2.011385791167559 1.3914467029321007 2.011385791167559 1.3781199986422654 Q 2.011385791167559 1.3647932943524301 2.0120358743036486 1.3563422135832663 Q 2.0146362068480066 1.31018631092091 2.0334886177946028 1.2754068631401203 Q 2.052341028741199 1.2406274153593306 2.08517022711372 1.2217750044127345 Q 2.117999425486241 1.2029225934661383 2.162205078740329 1.2029225934661383 Q 2.211611397083133 1.2029225934661383 2.2450906785917435 1.223725253821003 Q 2.278569960100354 1.2445279141758678 2.2961222047747714 1.2828828192051498 Q 2.3136744494491883 1.321237724234432 2.3136744494491883 1.3725942919855043 L 2.3136744494491883 1.3836457052990263 Q 2.3136744494491883 1.390796619796011 2.3094489090646064 1.3946971186125483 Q 2.3052233686800245 1.3985976174290853 2.2987225373191293 1.3985976174290853 L 2.0737937722321536 1.3985976174290853 Q 2.0737937722321536 1.399247700565175 2.0737937722321536 1.4011979499734435 Q 2.0737937722321536 1.403148199381712 2.0737937722321536 1.404448365653891 Q 2.0750939385043323 1.4311017742335617 2.0854952686817647 1.4541797255647397 Q 2.095896598859197 1.477257676895918 2.115724134509928 1.4915595058898876 Q 2.1355516701606585 1.5058613348838572 2.162205078740329 1.5058613348838572 Q 2.185608071639552 1.5058613348838572 2.2012100669057006 1.4987104203868724 Q 2.216812062171849 1.4915595058898876 2.226563309213192 1.482783383552679 Q 2.236314556254535 1.4740072612154704 2.2395649719349824 1.4688065961267542 Q 2.245415720159788 1.4610055984936798 2.248666135840236 1.4593803906534561 Q 2.2519165515206834 1.4577551828132322 2.2590674660176684 1.4577551828132322 L 2.290921539686055 1.4577551828132322 Q 2.2967722879108607 1.4577551828132322 2.3009978282954426 1.4613306400617245 Q 2.3052233686800245 1.464906097310217 2.304573285543935 1.4714069286711122 Q 2.3039232024078453 1.4811581757124552 2.2941719553665028 1.49513496313838 Q 2.2844207083251598 1.5091117505643048 2.2665434220826977 1.5227634964221848 Q 2.248666135840236 1.5364152422800648 2.22233776882861 1.5451913646172735 Q 2.1960094018169842 1.553967486954482 2.1628551618764185 1.553967486954482 M 2.0737937722321536 1.3537418810389081 L 2.2519165515206834 1.3537418810389081 L 2.2519165515206834 1.3517916316306395 Q 2.2519165515206834 1.322537890506611 2.2411901797752063 1.2997849807434776 Q 2.230463808029729 1.277032070980344 2.210311230810954 1.263705366690509 Q 2.1901586535921784 1.2503786624006736 2.162205078740329 1.2503786624006736 Q 2.1342515038884793 1.2503786624006736 2.1144239682377486 1.263705366690509 Q 2.0945964325870183 1.277032070980344 2.084195102409586 1.2997849807434776 Q 2.0737937722321536 1.322537890506611 2.0737937722321536 1.3517916316306395 L 2.0737937722321536 1.3537418810389081 M 2.5086978031590146 1.553967486954482 Q 2.472293147538001 1.553967486954482 2.4462898220944203 1.5448663230492286 Q 2.420286496650839 1.5357651591439754 2.404034418248601 1.5227634964221848 Q 2.3877823398463627 1.5097618337003942 2.3796563006452436 1.4967601709786038 Q 2.371530261444125 1.4837585082568132 2.370880178308035 1.475957510623739 Q 2.3702300951719457 1.4688065961267542 2.3754307602606617 1.464906097310217 Q 2.380631425349378 1.4610055984936798 2.385832090438094 1.4610055984936798 L 2.415085831562123 1.4610055984936798 Q 2.4183362472425705 1.4610055984936798 2.4206115382188838 1.4619807231978141 Q 2.422886829195197 1.4629558479019484 2.4267873280117342 1.467506429854575 Q 2.435238408780898 1.4766075937598284 2.445639738958331 1.4857087576650818 Q 2.4560410691357633 1.4948099215703352 2.471318022833867 1.500660669795141 Q 2.4865949765319706 1.5065114180199466 2.509347886295104 1.5065114180199466 Q 2.5425021262356697 1.5065114180199466 2.5639548697266243 1.493834796866201 Q 2.5854076132175785 1.4811581757124552 2.5854076132175785 1.4564550165410532 Q 2.5854076132175785 1.440202938138815 2.57663149088037 1.430451691097472 Q 2.5678553685431615 1.4207004440561293 2.545427500348073 1.4128994464230549 Q 2.522999632152984 1.4050984487899807 2.4839946439876126 1.396647368020817 Q 2.444989655822241 1.3875462041155635 2.4222367460591077 1.3742194998257282 Q 2.3994838362959743 1.360892795535893 2.3897325892546313 1.3423654261573414 Q 2.3799813422132887 1.32383805677879 2.3799813422132887 1.300435063879567 Q 2.3799813422132887 1.2763819878442546 2.3942831712072583 1.253954119649166 Q 2.408585000201228 1.2315262514540772 2.4362135334850326 1.2172244224601076 Q 2.463842066768837 1.2029225934661383 2.505447387478567 1.2029225934661383 Q 2.5392517105552224 1.2029225934661383 2.563304786590535 1.211373674235302 Q 2.587357862625847 1.2198247550044659 2.602959857891996 1.2325013761582115 Q 2.6185618531581443 1.2451779973119574 2.6263628507912187 1.2575295768976584 Q 2.634163848424293 1.2698811564833594 2.6348139315603825 1.2783322372525232 Q 2.6354640146964723 1.2848330686134184 2.6309134327438453 1.2890586089980003 Q 2.6263628507912187 1.2932841493825822 2.620512102566413 1.2932841493825822 L 2.593208610850653 1.2932841493825822 Q 2.5886580288980263 1.2932841493825822 2.585732654785623 1.2913338999743136 Q 2.5828072806732205 1.289383650566045 2.5802069481288625 1.286783318021687 Q 2.5737061167679673 1.2783322372525232 2.5649299944307584 1.2698811564833594 Q 2.55615387209355 1.2614300757141956 2.542177084667625 1.2559043690574345 Q 2.5282002972417006 1.2503786624006736 2.505447387478567 1.2503786624006736 Q 2.472943230674091 1.2503786624006736 2.4566911522718526 1.2640304082585536 Q 2.4404390738696145 1.2776821541164336 2.4404390738696145 1.2984848144712984 Q 2.4404390738696145 1.3108363940569994 2.447589988366599 1.3205876410983424 Q 2.454740902863584 1.3303388881396851 2.4748934800823594 1.3381398857727596 Q 2.495046057301135 1.3459408834058337 2.5347011286025958 1.3550420473110871 Q 2.5776066155845045 1.363493128080251 2.6023097747559065 1.3777949570742205 Q 2.6270129339273085 1.39209678606819 2.637414264104741 1.4109491970147863 Q 2.6478155942821733 1.4298016079613827 2.6478155942821733 1.4545047671327846 Q 2.6478155942821733 1.4818082588485446 2.6322135990160245 1.504561168611678 Q 2.6166116037498757 1.5273140783748114 2.5854076132175785 1.5406407826646467 Q 2.5542036226852813 1.553967486954482 2.5086978031590146 1.553967486954482 M 2.8402465510327985 1.553967486954482 Q 2.803841895411785 1.553967486954482 2.777838569968204 1.5448663230492286 Q 2.751835244524623 1.5357651591439754 2.735583166122385 1.5227634964221848 Q 2.7193310877201466 1.5097618337003942 2.7112050485190275 1.4967601709786038 Q 2.703079009317909 1.4837585082568132 2.702428926181819 1.475957510623739 Q 2.7017788430457297 1.4688065961267542 2.7069795081344457 1.464906097310217 Q 2.712180173223162 1.4610055984936798 2.717380838311878 1.4610055984936798 L 2.746634579435907 1.4610055984936798 Q 2.7498849951163544 1.4610055984936798 2.7521602860926677 1.4619807231978141 Q 2.754435577068981 1.4629558479019484 2.758336075885518 1.467506429854575 Q 2.766787156654682 1.4766075937598284 2.777188486832115 1.4857087576650818 Q 2.787589817009547 1.4948099215703352 2.802866770707651 1.500660669795141 Q 2.8181437244057546 1.5065114180199466 2.840896634168888 1.5065114180199466 Q 2.8740508741094537 1.5065114180199466 2.8955036176004083 1.493834796866201 Q 2.9169563610913625 1.4811581757124552 2.9169563610913625 1.4564550165410532 Q 2.9169563610913625 1.440202938138815 2.908180238754154 1.430451691097472 Q 2.8994041164169455 1.4207004440561293 2.876976248221857 1.4128994464230549 Q 2.854548380026768 1.4050984487899807 2.8155433918613966 1.396647368020817 Q 2.776538403696025 1.3875462041155635 2.7537854939328916 1.3742194998257282 Q 2.7310325841697582 1.360892795535893 2.7212813371284152 1.3423654261573414 Q 2.7115300900870727 1.32383805677879 2.7115300900870727 1.300435063879567 Q 2.7115300900870727 1.2763819878442546 2.7258319190810423 1.253954119649166 Q 2.740133748075012 1.2315262514540772 2.7677622813588165 1.2172244224601076 Q 2.795390814642621 1.2029225934661383 2.836996135352351 1.2029225934661383 Q 2.8708004584290063 1.2029225934661383 2.894853534464319 1.211373674235302 Q 2.918906610499631 1.2198247550044659 2.93450860576578 1.2325013761582115 Q 2.9501106010319282 1.2451779973119574 2.9579115986650026 1.2575295768976584 Q 2.965712596298077 1.2698811564833594 2.9663626794341664 1.2783322372525232 Q 2.9670127625702563 1.2848330686134184 2.9624621806176292 1.2890586089980003 Q 2.9579115986650026 1.2932841493825822 2.952060850440197 1.2932841493825822 L 2.924757358724437 1.2932841493825822 Q 2.9202067767718103 1.2932841493825822 2.917281402659407 1.2913338999743136 Q 2.9143560285470045 1.289383650566045 2.9117556960026465 1.286783318021687 Q 2.9052548646417513 1.2783322372525232 2.8964787423045424 1.2698811564833594 Q 2.887702619967334 1.2614300757141956 2.873725832541409 1.2559043690574345 Q 2.8597490451154846 1.2503786624006736 2.836996135352351 1.2503786624006736 Q 2.804491978547875 1.2503786624006736 2.7882399001456366 1.2640304082585536 Q 2.7719878217433984 1.2776821541164336 2.7719878217433984 1.2984848144712984 Q 2.7719878217433984 1.3108363940569994 2.779138736240383 1.3205876410983424 Q 2.786289650737368 1.3303388881396851 2.8064422279561434 1.3381398857727596 Q 2.826594805174919 1.3459408834058337 2.8662498764763797 1.3550420473110871 Q 2.9091553634582885 1.363493128080251 2.9338585226296905 1.3777949570742205 Q 2.9585616818010925 1.39209678606819 2.968963011978525 1.4109491970147863 Q 2.9793643421559572 1.4298016079613827 2.9793643421559572 1.4545047671327846 Q 2.9793643421559572 1.4818082588485446 2.9637623468898084 1.504561168611678 Q 2.9481603516236596 1.5273140783748114 2.9169563610913625 1.5406407826646467 Q 2.8857523705590653 1.553967486954482 2.8402465510327985 1.553967486954482 M 3.3492648208249602 1.553967486954482 Q 3.2816561746716495 1.553967486954482 3.2420011033701885 1.512687207812797 Q 3.2023460320687276 1.4714069286711122 3.1984455332521904 1.3998977837012645 Q 3.1977954501161006 1.3914467029321007 3.1977954501161006 1.3781199986422654 Q 3.1977954501161006 1.3647932943524301 3.1984455332521904 1.3563422135832663 Q 3.2010458657965484 1.31018631092091 3.2198982767431445 1.2754068631401203 Q 3.2387506876897407 1.2406274153593306 3.271579886062262 1.2217750044127345 Q 3.304409084434783 1.2029225934661383 3.348614737688871 1.2029225934661383 Q 3.398021056031675 1.2029225934661383 3.4315003375402853 1.223725253821003 Q 3.4649796190488957 1.2445279141758678 3.482531863723313 1.2828828192051498 Q 3.50008410839773 1.321237724234432 3.50008410839773 1.3725942919855043 L 3.50008410839773 1.3836457052990263 Q 3.50008410839773 1.390796619796011 3.495858568013148 1.3946971186125483 Q 3.4916330276285663 1.3985976174290853 3.485132196267671 1.3985976174290853 L 3.2602034311806953 1.3985976174290853 Q 3.2602034311806953 1.399247700565175 3.2602034311806953 1.4011979499734435 Q 3.2602034311806953 1.403148199381712 3.2602034311806953 1.404448365653891 Q 3.261503597452874 1.4311017742335617 3.2719049276303065 1.4541797255647397 Q 3.282306257807739 1.477257676895918 3.3021337934584696 1.4915595058898876 Q 3.3219613291092003 1.5058613348838572 3.348614737688871 1.5058613348838572 Q 3.3720177305880936 1.5058613348838572 3.3876197258542424 1.4987104203868724 Q 3.403221721120391 1.4915595058898876 3.412972968161734 1.482783383552679 Q 3.422724215203077 1.4740072612154704 3.425974630883524 1.4688065961267542 Q 3.43182537910833 1.4610055984936798 3.435075794788778 1.4593803906534561 Q 3.438326210469225 1.4577551828132322 3.44547712496621 1.4577551828132322 L 3.4773311986345967 1.4577551828132322 Q 3.4831819468594025 1.4577551828132322 3.4874074872439844 1.4613306400617245 Q 3.4916330276285663 1.464906097310217 3.490982944492477 1.4714069286711122 Q 3.490332861356387 1.4811581757124552 3.4805816143150445 1.49513496313838 Q 3.4708303672737015 1.5091117505643048 3.4529530810312394 1.5227634964221848 Q 3.435075794788778 1.5364152422800648 3.408747427777152 1.5451913646172735 Q 3.382419060765526 1.553967486954482 3.3492648208249602 1.553967486954482 M 3.2602034311806953 1.3537418810389081 L 3.438326210469225 1.3537418810389081 L 3.438326210469225 1.3517916316306395 Q 3.438326210469225 1.322537890506611 3.427599838723748 1.2997849807434776 Q 3.416873466978271 1.277032070980344 3.3967208897594956 1.263705366690509 Q 3.37656831254072 1.2503786624006736 3.348614737688871 1.2503786624006736 Q 3.320661162837021 1.2503786624006736 3.3008336271862904 1.263705366690509 Q 3.28100609153556 1.277032070980344 3.2706047613581277 1.2997849807434776 Q 3.2602034311806953 1.322537890506611 3.2602034311806953 1.3517916316306395 L 3.2602034311806953 1.3537418810389081 M 3.672354552344423 1.553967486954482 Q 3.6398503955399466 1.553967486954482 3.613196986960276 1.5409658242326916 Q 3.5865435783806054 1.527964161510901 3.5702914999783677 1.5058613348838572 Q 3.5540394215761295 1.4837585082568132 3.5540394215761295 1.4558049334049636 Q 3.5540394215761295 1.4109491970147863 3.5904440771971426 1.384295788435116 Q 3.6268487328181562 1.3576423798554453 3.6853562150662134 1.3491912990862815 L 3.7822186023435527 1.3355395532284013 L 3.7822186023435527 1.3166871422818052 Q 3.7822186023435527 1.285483151749508 3.764341316101091 1.2679309070750908 Q 3.746464029858629 1.2503786624006736 3.706158875421078 1.2503786624006736 Q 3.6775552174331394 1.2503786624006736 3.6593528896226326 1.262080158850285 Q 3.641150561812126 1.2737816552998966 3.633999647315141 1.2919839831104032 Q 3.630099148498604 1.301735230151746 3.620347901457261 1.301735230151746 L 3.5910941603332325 1.301735230151746 Q 3.5839432458362475 1.301735230151746 3.580367788587755 1.297509689767164 Q 3.576792331339263 1.2932841493825822 3.576792331339263 1.2874334011577766 Q 3.576792331339263 1.2776821541164336 3.584268287404292 1.263380325122464 Q 3.591744243469322 1.2490784961284946 3.6073462387354707 1.2354267502706144 Q 3.622948234001619 1.2217750044127345 3.6473263516049763 1.2123487989394364 Q 3.6717044692083336 1.2029225934661383 3.706808958557168 1.2029225934661383 Q 3.7458139467225395 1.2029225934661383 3.77246735530221 1.2129988820755258 Q 3.7991207638818807 1.2230751706849134 3.8143977175799844 1.239977332223241 Q 3.829674671278088 1.2568794937615688 3.8365005442070284 1.2783322372525232 Q 3.8433264171359682 1.2997849807434776 3.8433264171359682 1.3218878073705214 L 3.8433264171359682 1.5325147434635276 Q 3.8433264171359682 1.539015574824423 3.8391008767513863 1.5432411152090049 Q 3.8348753363668044 1.5474666555935868 3.8283745050059093 1.5474666555935868 L 3.798470680745791 1.5474666555935868 Q 3.7913197662488063 1.5474666555935868 3.787419267432269 1.5432411152090049 Q 3.783518768615732 1.539015574824423 3.783518768615732 1.5325147434635276 L 3.783518768615732 1.504561168611678 Q 3.775067687846568 1.5162626650612896 3.7607658588525985 1.5276391199428563 Q 3.746464029858629 1.539015574824423 3.7250112863676748 1.5464915308894525 Q 3.70355854287672 1.553967486954482 3.672354552344423 1.553967486954482 M 3.686006298202303 1.5052112517477676 Q 3.7126597067819738 1.5052112517477676 3.7347625334090173 1.493834796866201 Q 3.7568653600360613 1.4824583419846342 3.769541981189807 1.4584052659493218 Q 3.7822186023435527 1.4343521899140093 3.7822186023435527 1.397947534292996 L 3.7822186023435527 1.379745206482489 L 3.706808958557168 1.390796619796011 Q 3.6606530558948114 1.3972974511569063 3.6372500629955886 1.4125744048550102 Q 3.613847070096366 1.427851358553114 3.613847070096366 1.451254351452337 Q 3.613847070096366 1.4694566792628436 3.624573441841843 1.4814832172805 Q 3.63529981358732 1.4935097552981562 3.651876933557603 1.4993605035229618 Q 3.668454053527886 1.5052112517477676 3.686006298202303 1.5052112517477676 M 3.9518915705565445 1.5474666555935868 Q 3.945390739195649 1.5474666555935868 3.941165198811067 1.5432411152090049 Q 3.936939658426485 1.539015574824423 3.936939658426485 1.5325147434635276 L 3.936939658426485 1.225025420093182 Q 3.936939658426485 1.2185245887322869 3.941165198811067 1.21397400677966 Q 3.945390739195649 1.2094234248270335 3.9518915705565445 1.2094234248270335 L 3.9817953948166624 1.2094234248270335 Q 3.9882962261775576 1.2094234248270335 3.992846808130184 1.21397400677966 Q 3.9973973900828113 1.2185245887322869 3.9973973900828113 1.225025420093182 L 3.9973973900828113 1.2536290780811212 Q 4.010399052804601 1.2315262514540772 4.033151962567735 1.2204748381405555 Q 4.055904872330869 1.2094234248270335 4.088409029135344 1.2094234248270335 L 4.113762271442837 1.2094234248270335 Q 4.120263102803731 1.2094234248270335 4.124488643188314 1.2136489652116154 Q 4.128714183572895 1.2178745055961973 4.128714183572895 1.2243753369570927 L 4.128714183572895 1.251028745536763 Q 4.128714183572895 1.2575295768976584 4.124488643188314 1.2614300757141956 Q 4.120263102803731 1.2653305745307326 4.113762271442837 1.2653305745307326 L 4.074757283277465 1.2653305745307326 Q 4.039652793928631 1.2653305745307326 4.019500216709855 1.2858081933175527 Q 3.99934763949108 1.3062858121043728 3.99934763949108 1.3413903014532071 L 3.99934763949108 1.5325147434635276 Q 3.99934763949108 1.539015574824423 3.994797057538453 1.5432411152090049 Q 3.9902464755858262 1.5474666555935868 3.983745644224931 1.5474666555935868 L 3.9518915705565445 1.5474666555935868 M 4.198926336504627 1.5474666555935868 Q 4.192425505143732 1.5474666555935868 4.18819996475915 1.5432411152090049 Q 4.1839744243745685 1.539015574824423 4.1839744243745685 1.5325147434635276 L 4.1839744243745685 1.2243753369570927 Q 4.1839744243745685 1.2178745055961973 4.18819996475915 1.2136489652116154 Q 4.192425505143732 1.2094234248270335 4.198926336504627 1.2094234248270335 L 4.229480243900835 1.2094234248270335 Q 4.23598107526173 1.2094234248270335 4.240206615646312 1.2136489652116154 Q 4.244432156030894 1.2178745055961973 4.244432156030894 1.2243753369570927 L 4.244432156030894 1.2529789949450316 Q 4.261334317569221 1.2308761683179879 4.287012601444758 1.216899380892063 Q 4.312690885320294 1.2029225934661383 4.352996039757845 1.2029225934661383 Q 4.395251443603664 1.2029225934661383 4.424830226295738 1.2214499628446895 Q 4.454409008987811 1.239977332223241 4.469685962685915 1.272806530595762 Q 4.484962916384019 1.3056357289682832 4.484962916384019 1.3491912990862815 L 4.484962916384019 1.5325147434635276 Q 4.484962916384019 1.539015574824423 4.4807373759994364 1.5432411152090049 Q 4.476511835614855 1.5474666555935868 4.470011004253959 1.5474666555935868 L 4.437506847449483 1.5474666555935868 Q 4.431006016088588 1.5474666555935868 4.426780475704006 1.5432411152090049 Q 4.4225549353194245 1.539015574824423 4.4225549353194245 1.5325147434635276 L 4.4225549353194245 1.3524417147667291 Q 4.4225549353194245 1.3069358952404624 4.40045210869238 1.281257611364926 Q 4.3783492820653365 1.2555793274893898 4.335443795083427 1.2555793274893898 Q 4.295138640645877 1.2555793274893898 4.27076052304252 1.281257611364926 Q 4.246382405439163 1.3069358952404624 4.246382405439163 1.3524417147667291 L 4.246382405439163 1.5325147434635276 Q 4.246382405439163 1.539015574824423 4.2421568650545805 1.5432411152090049 Q 4.237931324669999 1.5474666555935868 4.231430493309103 1.5474666555935868 L 4.198926336504627 1.5474666555935868 M 4.694951514006968 1.553967486954482 Q 4.658546858385955 1.553967486954482 4.632543532942374 1.5448663230492286 Q 4.606540207498793 1.5357651591439754 4.590288129096555 1.5227634964221848 Q 4.574036050694317 1.5097618337003942 4.565910011493197 1.4967601709786038 Q 4.5577839722920785 1.4837585082568132 4.557133889155989 1.475957510623739 Q 4.556483806019899 1.4688065961267542 4.561684471108616 1.464906097310217 Q 4.566885136197332 1.4610055984936798 4.572085801286048 1.4610055984936798 L 4.601339542410076 1.4610055984936798 Q 4.604589958090524 1.4610055984936798 4.606865249066837 1.4619807231978141 Q 4.609140540043151 1.4629558479019484 4.613041038859688 1.467506429854575 Q 4.621492119628852 1.4766075937598284 4.6318934498062845 1.4857087576650818 Q 4.642294779983716 1.4948099215703352 4.65757173368182 1.500660669795141 Q 4.672848687379925 1.5065114180199466 4.695601597143058 1.5065114180199466 Q 4.728755837083623 1.5065114180199466 4.7502085805745775 1.493834796866201 Q 4.771661324065533 1.4811581757124552 4.771661324065533 1.4564550165410532 Q 4.771661324065533 1.440202938138815 4.762885201728324 1.430451691097472 Q 4.754109079391115 1.4207004440561293 4.731681211196026 1.4128994464230549 Q 4.709253343000938 1.4050984487899807 4.670248354835566 1.396647368020817 Q 4.631243366670195 1.3875462041155635 4.608490456907061 1.3742194998257282 Q 4.585737547143928 1.360892795535893 4.575986300102585 1.3423654261573414 Q 4.566235053061242 1.32383805677879 4.566235053061242 1.300435063879567 Q 4.566235053061242 1.2763819878442546 4.5805368820552115 1.253954119649166 Q 4.5948387110491815 1.2315262514540772 4.622467244332986 1.2172244224601076 Q 4.650095777616791 1.2029225934661383 4.69170109832652 1.2029225934661383 Q 4.7255054214031755 1.2029225934661383 4.749558497438488 1.211373674235302 Q 4.773611573473801 1.2198247550044659 4.7892135687399495 1.2325013761582115 Q 4.804815564006098 1.2451779973119574 4.812616561639173 1.2575295768976584 Q 4.820417559272247 1.2698811564833594 4.8210676424083365 1.2783322372525232 Q 4.821717725544426 1.2848330686134184 4.817167143591799 1.2890586089980003 Q 4.812616561639173 1.2932841493825822 4.8067658134143665 1.2932841493825822 L 4.779462321698607 1.2932841493825822 Q 4.7749117397459795 1.2932841493825822 4.771986365633577 1.2913338999743136 Q 4.769060991521174 1.289383650566045 4.766460658976816 1.286783318021687 Q 4.759959827615921 1.2783322372525232 4.751183705278712 1.2698811564833594 Q 4.742407582941504 1.2614300757141956 4.728430795515579 1.2559043690574345 Q 4.714454008089654 1.2503786624006736 4.69170109832652 1.2503786624006736 Q 4.659196941522044 1.2503786624006736 4.642944863119806 1.2640304082585536 Q 4.626692784717568 1.2776821541164336 4.626692784717568 1.2984848144712984 Q 4.626692784717568 1.3108363940569994 4.633843699214553 1.3205876410983424 Q 4.640994613711538 1.3303388881396851 4.661147190930313 1.3381398857727596 Q 4.681299768149088 1.3459408834058337 4.720954839450549 1.3550420473110871 Q 4.763860326432458 1.363493128080251 4.78856348560386 1.3777949570742205 Q 4.813266644775262 1.39209678606819 4.823667974952694 1.4109491970147863 Q 4.834069305130127 1.4298016079613827 4.834069305130127 1.4545047671327846 Q 4.834069305130127 1.4818082588485446 4.818467309863978 1.504561168611678 Q 4.802865314597829 1.5273140783748114 4.771661324065533 1.5406407826646467 Q 4.740457333533235 1.553967486954482 4.694951514006968 1.553967486954482 M 5.187070161648053 1.5474666555935868 Q 5.150665506027039 1.5474666555935868 5.127912596263905 1.5334898681676619 Q 5.105159686500772 1.5195130807417372 5.094758356323339 1.493834796866201 Q 5.0843570261459075 1.4681565129906646 5.0843570261459075 1.4330520236418303 L 5.0843570261459075 1.2614300757141956 L 5.033650541530924 1.2614300757141956 Q 5.027149710170029 1.2614300757141956 5.022924169785447 1.2572045353296135 Q 5.018698629400865 1.2529789949450316 5.018698629400865 1.2464781635841364 L 5.018698629400865 1.2243753369570927 Q 5.018698629400865 1.2178745055961973 5.022924169785447 1.2136489652116154 Q 5.027149710170029 1.2094234248270335 5.033650541530924 1.2094234248270335 L 5.0843570261459075 1.2094234248270335 L 5.0843570261459075 1.1008595411000828 Q 5.0843570261459075 1.0943587097391874 5.088582566530489 1.0901331693546055 Q 5.092808106915071 1.0859076289700236 5.099308938275966 1.0859076289700236 L 5.129862845672174 1.0859076289700236 Q 5.136363677033069 1.0859076289700236 5.140589217417651 1.0901331693546055 Q 5.144814757802233 1.0943587097391874 5.144814757802233 1.1008595411000828 L 5.144814757802233 1.2094234248270335 L 5.225425066677334 1.2094234248270335 Q 5.232575981174319 1.2094234248270335 5.2364764799908565 1.2136489652116154 Q 5.240376978807394 1.2178745055961973 5.240376978807394 1.2243753369570927 L 5.240376978807394 1.2464781635841364 Q 5.240376978807394 1.2529789949450316 5.2364764799908565 1.2572045353296135 Q 5.232575981174319 1.2614300757141956 5.225425066677334 1.2614300757141956 L 5.144814757802233 1.2614300757141956 L 5.144814757802233 1.4285014416892037 Q 5.144814757802233 1.4590553490854112 5.155216087979666 1.4766075937598284 Q 5.1656174181570975 1.4941598384342456 5.1922708267367685 1.4941598384342456 L 5.23192589803823 1.4941598384342456 Q 5.238426729399125 1.4941598384342456 5.242652269783707 1.4983853788188275 Q 5.2468778101682885 1.5026109192034094 5.2468778101682885 1.5091117505643048 L 5.2468778101682885 1.5325147434635276 Q 5.2468778101682885 1.539015574824423 5.242652269783707 1.5432411152090049 Q 5.238426729399125 1.5474666555935868 5.23192589803823 1.5474666555935868 L 5.187070161648053 1.5474666555935868 M 5.324231989741628 1.5474666555935868 Q 5.317731158380734 1.5474666555935868 5.313505617996151 1.5432411152090049 Q 5.30928007761157 1.539015574824423 5.30928007761157 1.5325147434635276 L 5.30928007761157 1.225025420093182 Q 5.30928007761157 1.2185245887322869 5.313505617996151 1.21397400677966 Q 5.317731158380734 1.2094234248270335 5.324231989741628 1.2094234248270335 L 5.354135814001747 1.2094234248270335 Q 5.360636645362642 1.2094234248270335 5.3651872273152685 1.21397400677966 Q 5.369737809267895 1.2185245887322869 5.369737809267895 1.225025420093182 L 5.369737809267895 1.2536290780811212 Q 5.3827394719896855 1.2315262514540772 5.405492381752819 1.2204748381405555 Q 5.428245291515953 1.2094234248270335 5.460749448320429 1.2094234248270335 L 5.486102690627921 1.2094234248270335 Q 5.492603521988816 1.2094234248270335 5.496829062373398 1.2136489652116154 Q 5.501054602757979 1.2178745055961973 5.501054602757979 1.2243753369570927 L 5.501054602757979 1.251028745536763 Q 5.501054602757979 1.2575295768976584 5.496829062373398 1.2614300757141956 Q 5.492603521988816 1.2653305745307326 5.486102690627921 1.2653305745307326 L 5.447097702462549 1.2653305745307326 Q 5.411993213113715 1.2653305745307326 5.39184063589494 1.2858081933175527 Q 5.371688058676164 1.3062858121043728 5.371688058676164 1.3413903014532071 L 5.371688058676164 1.5325147434635276 Q 5.371688058676164 1.539015574824423 5.367137476723538 1.5432411152090049 Q 5.362586894770911 1.5474666555935868 5.356086063410015 1.5474666555935868 L 5.324231989741628 1.5474666555935868 M 5.68243097196102 1.553967486954482 Q 5.640825651251291 1.553967486954482 5.611896951695307 1.5354401175759305 Q 5.582968252139323 1.516912748197379 5.568016340009264 1.4837585082568132 Q 5.553064427879205 1.4506042683162474 5.553064427879205 1.4076987813343387 L 5.553064427879205 1.2243753369570927 Q 5.553064427879205 1.2178745055961973 5.557289968263786 1.2136489652116154 Q 5.561515508648369 1.2094234248270335 5.568016340009264 1.2094234248270335 L 5.60052049681374 1.2094234248270335 Q 5.6070213281746355 1.2094234248270335 5.611246868559217 1.2136489652116154 Q 5.615472408943799 1.2178745055961973 5.615472408943799 1.2243753369570927 L 5.615472408943799 1.404448365653891 Q 5.615472408943799 1.5013107529312304 5.699983216635438 1.5013107529312304 Q 5.740288371072988 1.5013107529312304 5.764666488676346 1.4756324690556941 Q 5.7890446062797025 1.4499541851801578 5.7890446062797025 1.404448365653891 L 5.7890446062797025 1.2243753369570927 Q 5.7890446062797025 1.2178745055961973 5.793270146664285 1.2136489652116154 Q 5.797495687048866 1.2094234248270335 5.803996518409762 1.2094234248270335 L 5.836500675214238 1.2094234248270335 Q 5.843001506575133 1.2094234248270335 5.84690200539167 1.2136489652116154 Q 5.8508025042082075 1.2178745055961973 5.8508025042082075 1.2243753369570927 L 5.8508025042082075 1.5325147434635276 Q 5.8508025042082075 1.539015574824423 5.84690200539167 1.5432411152090049 Q 5.843001506575133 1.5474666555935868 5.836500675214238 1.5474666555935868 L 5.80594676781803 1.5474666555935868 Q 5.799445936457135 1.5474666555935868 5.795220396072553 1.5432411152090049 Q 5.790994855687972 1.539015574824423 5.790994855687972 1.5325147434635276 L 5.790994855687972 1.5039110854755886 Q 5.773442611013554 1.526663995238722 5.7484144102741075 1.540315741096602 Q 5.72338620953466 1.553967486954482 5.68243097196102 1.553967486954482 M 6.064673190090129 1.553967486954482 Q 6.028268534469116 1.553967486954482 6.002265209025535 1.5448663230492286 Q 5.976261883581954 1.5357651591439754 5.960009805179716 1.5227634964221848 Q 5.943757726777478 1.5097618337003942 5.935631687576358 1.4967601709786038 Q 5.92750564837524 1.4837585082568132 5.92685556523915 1.475957510623739 Q 5.92620548210306 1.4688065961267542 5.931406147191777 1.464906097310217 Q 5.936606812280493 1.4610055984936798 5.941807477369209 1.4610055984936798 L 5.9710612184932375 1.4610055984936798 Q 5.974311634173685 1.4610055984936798 5.976586925149999 1.4619807231978141 Q 5.978862216126312 1.4629558479019484 5.982762714942849 1.467506429854575 Q 5.991213795712013 1.4766075937598284 6.001615125889446 1.4857087576650818 Q 6.012016456066878 1.4948099215703352 6.027293409764981 1.500660669795141 Q 6.042570363463086 1.5065114180199466 6.065323273226219 1.5065114180199466 Q 6.0984775131667845 1.5065114180199466 6.119930256657739 1.493834796866201 Q 6.141383000148694 1.4811581757124552 6.141383000148694 1.4564550165410532 Q 6.141383000148694 1.440202938138815 6.132606877811485 1.430451691097472 Q 6.123830755474276 1.4207004440561293 6.101402887279187 1.4128994464230549 Q 6.078975019084099 1.4050984487899807 6.039970030918727 1.396647368020817 Q 6.000965042753356 1.3875462041155635 5.9782121329902225 1.3742194998257282 Q 5.9554592232270895 1.360892795535893 5.945707976185746 1.3423654261573414 Q 5.9359567291444035 1.32383805677879 5.9359567291444035 1.300435063879567 Q 5.9359567291444035 1.2763819878442546 5.950258558138373 1.253954119649166 Q 5.964560387132343 1.2315262514540772 5.992188920416147 1.2172244224601076 Q 6.019817453699952 1.2029225934661383 6.061422774409682 1.2029225934661383 Q 6.095227097486337 1.2029225934661383 6.119280173521649 1.211373674235302 Q 6.143333249556962 1.2198247550044659 6.158935244823111 1.2325013761582115 Q 6.1745372400892595 1.2451779973119574 6.182338237722334 1.2575295768976584 Q 6.190139235355408 1.2698811564833594 6.190789318491498 1.2783322372525232 Q 6.191439401627587 1.2848330686134184 6.1868888196749605 1.2890586089980003 Q 6.182338237722334 1.2932841493825822 6.176487489497528 1.2932841493825822 L 6.149183997781768 1.2932841493825822 Q 6.144633415829141 1.2932841493825822 6.141708041716738 1.2913338999743136 Q 6.138782667604335 1.289383650566045 6.136182335059977 1.286783318021687 Q 6.129681503699082 1.2783322372525232 6.120905381361873 1.2698811564833594 Q 6.112129259024665 1.2614300757141956 6.09815247159874 1.2559043690574345 Q 6.084175684172815 1.2503786624006736 6.061422774409682 1.2503786624006736 Q 6.028918617605205 1.2503786624006736 6.012666539202967 1.2640304082585536 Q 5.996414460800729 1.2776821541164336 5.996414460800729 1.2984848144712984 Q 5.996414460800729 1.3108363940569994 6.003565375297714 1.3205876410983424 Q 6.010716289794699 1.3303388881396851 6.030868867013474 1.3381398857727596 Q 6.05102144423225 1.3459408834058337 6.09067651553371 1.3550420473110871 Q 6.133582002515619 1.363493128080251 6.158285161687021 1.3777949570742205 Q 6.182988320858423 1.39209678606819 6.193389651035855 1.4109491970147863 Q 6.203790981213288 1.4298016079613827 6.203790981213288 1.4545047671327846 Q 6.203790981213288 1.4818082588485446 6.188188985947139 1.504561168611678 Q 6.1725869906809905 1.5273140783748114 6.141383000148694 1.5406407826646467 Q 6.110179009616396 1.553967486954482 6.064673190090129 1.553967486954482 M 6.410539003281385 1.5474666555935868 Q 6.374134347660371 1.5474666555935868 6.3513814378972375 1.5334898681676619 Q 6.328628528134105 1.5195130807417372 6.318227197956672 1.493834796866201 Q 6.30782586777924 1.4681565129906646 6.30782586777924 1.4330520236418303 L 6.30782586777924 1.2614300757141956 L 6.257119383164256 1.2614300757141956 Q 6.2506185518033615 1.2614300757141956 6.246393011418779 1.2572045353296135 Q 6.242167471034198 1.2529789949450316 6.242167471034198 1.2464781635841364 L 6.242167471034198 1.2243753369570927 Q 6.242167471034198 1.2178745055961973 6.246393011418779 1.2136489652116154 Q 6.2506185518033615 1.2094234248270335 6.257119383164256 1.2094234248270335 L 6.30782586777924 1.2094234248270335 L 6.30782586777924 1.1008595411000828 Q 6.30782586777924 1.0943587097391874 6.312051408163821 1.0901331693546055 Q 6.316276948548404 1.0859076289700236 6.322777779909298 1.0859076289700236 L 6.353331687305507 1.0859076289700236 Q 6.359832518666401 1.0859076289700236 6.364058059050984 1.0901331693546055 Q 6.368283599435565 1.0943587097391874 6.368283599435565 1.1008595411000828 L 6.368283599435565 1.2094234248270335 L 6.448893908310667 1.2094234248270335 Q 6.456044822807652 1.2094234248270335 6.459945321624189 1.2136489652116154 Q 6.463845820440726 1.2178745055961973 6.463845820440726 1.2243753369570927 L 6.463845820440726 1.2464781635841364 Q 6.463845820440726 1.2529789949450316 6.459945321624189 1.2572045353296135 Q 6.456044822807652 1.2614300757141956 6.448893908310667 1.2614300757141956 L 6.368283599435565 1.2614300757141956 L 6.368283599435565 1.4285014416892037 Q 6.368283599435565 1.4590553490854112 6.378684929612998 1.4766075937598284 Q 6.38908625979043 1.4941598384342456 6.415739668370101 1.4941598384342456 L 6.455394739671562 1.4941598384342456 Q 6.461895571032457 1.4941598384342456 6.466121111417039 1.4983853788188275 Q 6.470346651801621 1.5026109192034094 6.470346651801621 1.5091117505643048 L 6.470346651801621 1.5325147434635276 Q 6.470346651801621 1.539015574824423 6.466121111417039 1.5432411152090049 Q 6.461895571032457 1.5474666555935868 6.455394739671562 1.5474666555935868 L 6.410539003281385 1.5474666555935868" fill="#faecd3" fill-rule="nonzero"></path></g><g clip-path="url(#SvgjsClipPath1001)"><g clip-path="url(#SvgjsClipPath10008480f490-3be0-49cf-9d21-a609f2ba4755)"><path d=" M -0.3999999999999999 1.2781293808872953 L -0.3999999999999999 0.9631275466002288 L -0.7280635045493726 0.7737967339631152 L -1.8745738039814857 1.4356302980308286 L -1.2736101595827705 1.7825888401441197 L -0.3999999999999999 1.2781293808872953 Z" fill="#a4c868" transform="matrix(1,0,0,1,0,0)" fill-rule="evenodd"></path></g><g clip-path="url(#SvgjsClipPath10008480f490-3be0-49cf-9d21-a609f2ba4755)"><path d=" M -0.6727733275166989 0.11183635756275795 L -1.2736101595827705 0.4586680873434049 L -0.3999999999999999 0.9631275466002288 L -0.3999999999999999 0.2693372747062912 L -0.6727733275166989 0.11183635756275795 Z" fill="#67a97b" transform="matrix(1,0,0,1,0,0)" fill-rule="evenodd"></path></g><g clip-path="url(#SvgjsClipPath10008480f490-3be0-49cf-9d21-a609f2ba4755)"><path d=" M -2.1473471314981847 0.2693372747062912 L -2.1473471314981847 0.5843391089933576 L -1.8192836269488122 0.7736699216304715 L -0.6727733275166989 0.11183635756275795 L -1.2736101595827705 -0.2351221845505328 L -2.1473471314981847 0.2693372747062912 Z" fill="#a4c868" transform="matrix(1,0,0,1,0,0)" fill-rule="evenodd"></path></g><g clip-path="url(#SvgjsClipPath10008480f490-3be0-49cf-9d21-a609f2ba4755)"><path d=" M -1.2736101595827705 1.0887985682501817 L -2.1473471314981847 0.5843391089933576 L -2.1473471314981847 1.2781293808872953 L -1.8745738039814857 1.4356302980308286 L -1.2736101595827705 1.0887985682501817 Z" fill="#67a97b" transform="matrix(1,0,0,1,0,0)" fill-rule="evenodd"></path></g></g></g><defs><clipPath id="SvgjsClipPath1001"><path d=" M -2.1473471314981847 -0.2351221845505328 h 1.7473471314981848 v 2.0177110246946524 h -1.7473471314981848 Z"></path></clipPath><clipPath id="SvgjsClipPath10008480f490-3be0-49cf-9d21-a609f2ba4755"><path d=" M -2.1473471314981847 -0.2351221845505328 L -0.3999999999999999 -0.2351221845505328 L -0.3999999999999999 1.7825888401441197 L -2.1473471314981847 1.7825888401441197 Z"></path></clipPath></defs></svg>