<svg xmlns="http://www.w3.org/2000/svg" version="1.1" xmlns:xlink="http://www.w3.org/1999/xlink" xmlns:svgjs="http://svgjs.dev/svgjs" viewBox="0 0 12.441234052019682 3.0348453937496416"><g transform="matrix(1,0,0,1,2.6722001551968404,0.534303946874821)"><rect width="12.441234052019682" height="12.441234052019682" x="-2.67220015519684" y="-5.237498276009841" fill="#1c3423"></rect><g><path d=" M 0.3375 0.008999999999999897 L 0.6645 0.008999999999999897 L 1.0035 1.0739999999999998 L 0.7065 1.0739999999999998 L 0.642 0.8654999999999998 L 0.3585 0.8654999999999998 L 0.2955 1.0739999999999998 L -0.003 1.0739999999999998 L 0.3375 0.008999999999999897 M 0.5955 0.6704999999999999 L 0.501 0.2954999999999999 L 0.402 0.6704999999999999 L 0.5955 0.6704999999999999 M 1.0904882812499999 1.0739999999999998 L 1.0904882812499999 0.008999999999999897 L 1.3829882812499998 0.008999999999999897 L 1.3829882812499998 0.8189999999999998 L 1.86598828125 0.8189999999999998 L 1.86598828125 1.0739999999999998 L 1.0904882812499999 1.0739999999999998 M 2.653565185546875 0.2639999999999998 L 2.347565185546875 0.2639999999999998 L 2.347565185546875 1.0739999999999998 L 2.0550651855468747 1.0739999999999998 L 2.0550651855468747 0.2639999999999998 L 1.7475651855468748 0.2639999999999998 L 1.7475651855468748 0.008999999999999897 L 2.653565185546875 0.008999999999999897 L 2.653565185546875 0.2639999999999998 M 3.664600341796875 0.8009999999999998 Q 3.664600341796875 0.8969999999999998 3.6128503417968747 0.9569999999999999 Q 3.561100341796875 1.017 3.4741003417968748 1.0454999999999999 Q 3.3871003417968746 1.0739999999999998 3.282100341796875 1.0739999999999998 L 2.7586003417968747 1.0739999999999998 L 2.7586003417968747 0.008999999999999897 L 3.376600341796875 0.008999999999999897 Q 3.451600341796875 0.008999999999999897 3.5063503417968747 0.04874999999999985 Q 3.561100341796875 0.0884999999999998 3.5903503417968747 0.15149999999999986 Q 3.619600341796875 0.2144999999999998 3.619600341796875 0.2819999999999998 Q 3.619600341796875 0.3554999999999998 3.581350341796875 0.4244999999999999 Q 3.5431003417968747 0.4934999999999998 3.466600341796875 0.5279999999999998 Q 3.558100341796875 0.5549999999999998 3.611350341796875 0.6224999999999998 Q 3.664600341796875 0.6899999999999998 3.664600341796875 0.8009999999999998 M 3.3676003417968747 0.7409999999999999 Q 3.3676003417968747 0.7139999999999999 3.357850341796875 0.6937499999999999 Q 3.348100341796875 0.6734999999999998 3.3316003417968747 0.6614999999999998 Q 3.315100341796875 0.6494999999999999 3.292600341796875 0.6494999999999999 L 3.0511003417968747 0.6494999999999999 L 3.0511003417968747 0.8279999999999998 L 3.282100341796875 0.8279999999999998 Q 3.306100341796875 0.8279999999999998 3.325600341796875 0.8174999999999999 Q 3.3451003417968748 0.8069999999999998 3.3563503417968747 0.7874999999999999 Q 3.3676003417968747 0.7679999999999998 3.3676003417968747 0.7409999999999999 M 3.0511003417968747 0.2579999999999998 L 3.0511003417968747 0.4214999999999999 L 3.2506003417968747 0.4214999999999999 Q 3.2701003417968746 0.4214999999999999 3.288100341796875 0.41474999999999984 Q 3.306100341796875 0.4079999999999998 3.3181003417968746 0.3899999999999998 Q 3.330100341796875 0.3719999999999998 3.330100341796875 0.33899999999999986 Q 3.330100341796875 0.30899999999999983 3.3203503417968747 0.29174999999999984 Q 3.310600341796875 0.27449999999999986 3.2948503417968746 0.2662499999999999 Q 3.279100341796875 0.2579999999999998 3.259600341796875 0.2579999999999998 L 3.0511003417968747 0.2579999999999998 M 4.012560791015625 0.008999999999999897 L 4.339560791015625 0.008999999999999897 L 4.678560791015625 1.0739999999999998 L 4.381560791015625 1.0739999999999998 L 4.317060791015625 0.8654999999999998 L 4.033560791015625 0.8654999999999998 L 3.970560791015625 1.0739999999999998 L 3.6720607910156247 1.0739999999999998 L 4.012560791015625 0.008999999999999897 M 4.270560791015625 0.6704999999999999 L 4.176060791015625 0.2954999999999999 L 4.077060791015625 0.6704999999999999 L 4.270560791015625 0.6704999999999999 M 5.3985556640625 0.3569999999999999 Q 5.3985556640625 0.3569999999999999 5.3730556640625 0.34199999999999986 Q 5.3475556640625 0.32699999999999985 5.305555664062499 0.3082499999999998 Q 5.263555664062499 0.28949999999999987 5.214055664062499 0.27449999999999986 Q 5.1645556640625 0.25949999999999984 5.1165556640625 0.25949999999999984 Q 5.0790556640624995 0.25949999999999984 5.0550556640624995 0.27149999999999985 Q 5.0310556640624995 0.28349999999999986 5.0310556640624995 0.31199999999999983 Q 5.0310556640624995 0.33899999999999986 5.0550556640624995 0.3554999999999998 Q 5.0790556640624995 0.3719999999999998 5.123305664062499 0.38549999999999984 Q 5.167555664062499 0.3989999999999998 5.2290556640625 0.41849999999999987 Q 5.3280556640625 0.4484999999999998 5.400055664062499 0.4874999999999998 Q 5.4720556640625 0.5264999999999999 5.5110556640625 0.5872499999999998 Q 5.5500556640625 0.6479999999999999 5.5500556640625 0.7484999999999998 Q 5.5500556640625 0.8444999999999998 5.5155556640625 0.9097499999999998 Q 5.4810556640625 0.9749999999999999 5.4225556640625 1.0139999999999998 Q 5.3640556640625 1.053 5.2920556640625 1.07025 Q 5.2200556640624995 1.0875 5.145055664062499 1.0875 Q 5.0685556640625 1.0875 4.9853056640624995 1.0717499999999998 Q 4.9020556640625 1.0559999999999998 4.8240556640625 1.0282499999999999 Q 4.746055664062499 1.0005 4.6815556640625 0.9629999999999999 L 4.8075556640625 0.7064999999999999 Q 4.8075556640625 0.7064999999999999 4.8375556640625 0.7244999999999998 Q 4.8675556640624995 0.7424999999999998 4.9170556640625 0.7649999999999999 Q 4.9665556640625 0.7874999999999999 5.027305664062499 0.8054999999999999 Q 5.0880556640625 0.8234999999999999 5.1495556640624995 0.8234999999999999 Q 5.1975556640625 0.8234999999999999 5.216305664062499 0.8107499999999999 Q 5.2350556640625 0.7979999999999998 5.2350556640625 0.7769999999999999 Q 5.2350556640625 0.7454999999999998 5.2020556640625 0.7282499999999998 Q 5.169055664062499 0.7109999999999999 5.1158056640625 0.6952499999999998 Q 5.0625556640625 0.6794999999999998 4.9980556640625 0.6584999999999999 Q 4.9050556640625 0.6269999999999998 4.8450556640624995 0.5872499999999998 Q 4.7850556640625 0.5474999999999999 4.7565556640625 0.4927499999999998 Q 4.7280556640624996 0.43799999999999983 4.7280556640624996 0.3599999999999999 Q 4.7280556640624996 0.24149999999999983 4.7835556640625 0.1619999999999998 Q 4.839055664062499 0.0824999999999998 4.9298056640625 0.04124999999999979 Q 5.0205556640625 -2.220446049250313e-16 5.1255556640624995 -2.220446049250313e-16 Q 5.2035556640625 -2.220446049250313e-16 5.2763056640625 0.018749999999999822 Q 5.3490556640625 0.03749999999999987 5.4128056640625 0.06449999999999978 Q 5.4765556640624995 0.0914999999999998 5.5245556640624995 0.11549999999999983 L 5.3985556640625 0.3569999999999999 M 6.436562255859375 0.8189999999999998 L 6.436562255859375 1.0739999999999998 L 5.677562255859375 1.0739999999999998 L 5.677562255859375 0.008999999999999897 L 6.423062255859374 0.008999999999999897 L 6.423062255859374 0.2639999999999998 L 5.970062255859375 0.2639999999999998 L 5.970062255859375 0.4139999999999998 L 6.357062255859375 0.4139999999999998 L 6.357062255859375 0.6509999999999998 L 5.970062255859375 0.6509999999999998 L 5.970062255859375 0.8189999999999998 L 6.436562255859375 0.8189999999999998" fill="#ffffff" fill-rule="nonzero"></path></g><g><path d=" M 0.28125 1.9699874999999996 Q 0.225 1.9699874999999996 0.17925 1.9474874999999996 Q 0.1335 1.9249874999999996 0.1005 1.8863624999999997 Q 0.0675 1.8477374999999996 0.0495 1.7993624999999995 Q 0.0315 1.7509874999999997 0.0315 1.6999874999999998 Q 0.0315 1.6467374999999995 0.05025 1.5983624999999997 Q 0.069 1.5499874999999996 0.10312500000000001 1.5121124999999997 Q 0.13725 1.4742374999999996 0.183 1.4521124999999997 Q 0.22875 1.4299874999999997 0.28200000000000003 1.4299874999999997 Q 0.33825 1.4299874999999997 0.384 1.4532374999999997 Q 0.42975 1.4764874999999997 0.46237500000000004 1.5154874999999997 Q 0.495 1.5544874999999996 0.513 1.6024874999999996 Q 0.531 1.6504874999999997 0.531 1.7007374999999996 Q 0.531 1.7539874999999996 0.51225 1.8023624999999996 Q 0.4935 1.8507374999999997 0.45975 1.8886124999999996 Q 0.426 1.9264874999999997 0.38025000000000003 1.9482374999999996 Q 0.3345 1.9699874999999996 0.28125 1.9699874999999996 M 0.084 1.6999874999999998 Q 0.084 1.7434874999999996 0.09825 1.7836124999999996 Q 0.1125 1.8237374999999996 0.13875 1.8548624999999996 Q 0.165 1.8859874999999997 0.201375 1.9043624999999997 Q 0.23775000000000002 1.9227374999999995 0.28125 1.9227374999999995 Q 0.327 1.9227374999999995 0.363375 1.9036124999999997 Q 0.39975 1.8844874999999996 0.42562500000000003 1.8526124999999996 Q 0.4515 1.8207374999999997 0.465 1.7809874999999997 Q 0.47850000000000004 1.7412374999999995 0.47850000000000004 1.6999874999999998 Q 0.47850000000000004 1.6564874999999997 0.46425 1.6167374999999997 Q 0.45 1.5769874999999995 0.423375 1.5454874999999997 Q 0.39675 1.5139874999999996 0.36075 1.4959874999999996 Q 0.32475 1.4779874999999996 0.28125 1.4779874999999996 Q 0.23625000000000002 1.4779874999999996 0.199875 1.4967374999999996 Q 0.1635 1.5154874999999997 0.137625 1.5473624999999998 Q 0.11175 1.5792374999999996 0.097875 1.6189874999999996 Q 0.084 1.6587374999999995 0.084 1.6999874999999998 M 0.6299824218749999 1.9662374999999996 L 0.6299824218749999 1.4337374999999997 L 0.8504824218749999 1.4337374999999997 Q 0.8849824218749999 1.4337374999999997 0.913857421875 1.4479874999999995 Q 0.942732421875 1.4622374999999996 0.9637324218749999 1.4866124999999997 Q 0.9847324218749999 1.5109874999999997 0.9967324218749999 1.5406124999999995 Q 1.008732421875 1.5702374999999997 1.008732421875 1.6009874999999996 Q 1.008732421875 1.6444874999999997 0.989607421875 1.6831124999999996 Q 0.9704824218749999 1.7217374999999997 0.9359824218749999 1.7457374999999997 Q 0.9014824218749999 1.7697374999999997 0.854982421875 1.7697374999999997 L 0.6824824218749999 1.7697374999999997 L 0.6824824218749999 1.9662374999999996 L 0.6299824218749999 1.9662374999999996 M 0.6824824218749999 1.7232374999999998 L 0.8527324218749999 1.7232374999999998 Q 0.884232421875 1.7232374999999998 0.907482421875 1.7059874999999995 Q 0.9307324218749999 1.6887374999999996 0.943482421875 1.6609874999999996 Q 0.9562324218749999 1.6332374999999997 0.9562324218749999 1.6009874999999996 Q 0.9562324218749999 1.5679874999999996 0.9412324218749999 1.5402374999999997 Q 0.9262324218749999 1.5124874999999998 0.901857421875 1.4963624999999996 Q 0.8774824218749999 1.4802374999999997 0.8482324218749999 1.4802374999999997 L 0.6824824218749999 1.4802374999999997 L 0.6824824218749999 1.7232374999999998 M 1.4542393798828126 1.9197374999999997 L 1.4542393798828126 1.9662374999999996 L 1.0964893798828126 1.9662374999999996 L 1.0964893798828126 1.4337374999999997 L 1.4474893798828126 1.4337374999999997 L 1.4474893798828126 1.4802374999999997 L 1.1489893798828126 1.4802374999999997 L 1.1489893798828126 1.6722374999999996 L 1.4092393798828124 1.6722374999999996 L 1.4092393798828124 1.7164874999999997 L 1.1489893798828126 1.7164874999999997 L 1.1489893798828126 1.9197374999999997 L 1.4542393798828126 1.9197374999999997 M 1.6057459716796876 1.5304874999999996 L 1.6057459716796876 1.9662374999999996 L 1.5532459716796876 1.9662374999999996 L 1.5532459716796876 1.4337374999999997 L 1.5967459716796875 1.4337374999999997 L 1.9462459716796876 1.8777374999999996 L 1.9462459716796876 1.4344874999999995 L 1.9987459716796874 1.4344874999999995 L 1.9987459716796874 1.9662374999999996 L 1.9499959716796875 1.9662374999999996 L 1.6057459716796876 1.5304874999999996 M 2.1847254638671876 1.5304874999999996 L 2.1847254638671876 1.9662374999999996 L 2.1322254638671874 1.9662374999999996 L 2.1322254638671874 1.4337374999999997 L 2.1757254638671877 1.4337374999999997 L 2.5252254638671876 1.8777374999999996 L 2.5252254638671876 1.4344874999999995 L 2.5777254638671874 1.4344874999999995 L 2.5777254638671874 1.9662374999999996 L 2.5289754638671873 1.9662374999999996 L 2.1847254638671876 1.5304874999999996 M 3.0689549560546876 1.9197374999999997 L 3.0689549560546876 1.9662374999999996 L 2.7112049560546874 1.9662374999999996 L 2.7112049560546874 1.4337374999999997 L 3.0622049560546873 1.4337374999999997 L 3.0622049560546873 1.4802374999999997 L 2.7637049560546876 1.4802374999999997 L 2.7637049560546876 1.6722374999999996 L 3.0239549560546877 1.6722374999999996 L 3.0239549560546877 1.7164874999999997 L 2.7637049560546876 1.7164874999999997 L 2.7637049560546876 1.9197374999999997 L 3.0689549560546876 1.9197374999999997 M 3.4761903076171876 1.5334874999999997 Q 3.4649403076171876 1.5207374999999996 3.4499403076171875 1.5106124999999997 Q 3.4349403076171874 1.5004874999999998 3.4161903076171876 1.4929874999999997 Q 3.3974403076171873 1.4854874999999996 3.3760653076171874 1.4809874999999997 Q 3.3546903076171875 1.4764874999999997 3.3306903076171874 1.4764874999999997 Q 3.2609403076171875 1.4764874999999997 3.2283153076171875 1.5031124999999996 Q 3.1956903076171876 1.5297374999999995 3.1956903076171876 1.5754874999999997 Q 3.1956903076171876 1.6069874999999996 3.2110653076171873 1.6249874999999996 Q 3.2264403076171875 1.6429874999999996 3.2594403076171874 1.6542374999999996 Q 3.2924403076171873 1.6654874999999996 3.3434403076171875 1.6774874999999996 Q 3.4004403076171874 1.6894874999999996 3.4416903076171876 1.7059874999999995 Q 3.4829403076171874 1.7224874999999997 3.5054403076171874 1.7506124999999997 Q 3.5279403076171874 1.7787374999999996 3.5279403076171874 1.8267374999999997 Q 3.5279403076171874 1.8634874999999997 3.5136903076171877 1.8904874999999997 Q 3.4994403076171876 1.9174874999999996 3.4739403076171875 1.9354874999999996 Q 3.4484403076171875 1.9534874999999996 3.4131903076171874 1.9621124999999997 Q 3.3779403076171874 1.9707374999999996 3.3359403076171876 1.9707374999999996 Q 3.2946903076171874 1.9707374999999996 3.2568153076171873 1.9621124999999997 Q 3.2189403076171876 1.9534874999999996 3.1851903076171877 1.9366124999999996 Q 3.1514403076171873 1.9197374999999997 3.1221903076171875 1.8934874999999995 L 3.1484403076171876 1.8507374999999997 Q 3.1626903076171873 1.8657374999999996 3.1825653076171876 1.8788624999999997 Q 3.2024403076171875 1.8919874999999997 3.2268153076171875 1.9024874999999997 Q 3.2511903076171875 1.9129874999999996 3.2793153076171877 1.9186124999999996 Q 3.3074403076171874 1.9242374999999996 3.3374403076171877 1.9242374999999996 Q 3.4011903076171874 1.9242374999999996 3.4368153076171875 1.9009874999999996 Q 3.4724403076171875 1.8777374999999996 3.4724403076171875 1.8319874999999997 Q 3.4724403076171875 1.7989874999999995 3.4544403076171877 1.7791124999999997 Q 3.4364403076171874 1.7592374999999996 3.4004403076171874 1.7464874999999997 Q 3.3644403076171874 1.7337374999999997 3.3119403076171876 1.7217374999999997 Q 3.2564403076171873 1.7089874999999997 3.2181903076171876 1.6932374999999995 Q 3.1799403076171875 1.6774874999999996 3.1608153076171877 1.6516124999999997 Q 3.1416903076171874 1.6257374999999996 3.1416903076171874 1.5829874999999995 Q 3.1416903076171874 1.5334874999999997 3.1660653076171874 1.4993624999999997 Q 3.1904403076171874 1.4652374999999997 3.2331903076171873 1.4476124999999995 Q 3.2759403076171876 1.4299874999999997 3.3314403076171875 1.4299874999999997 Q 3.3666903076171875 1.4299874999999997 3.3970653076171873 1.4371124999999996 Q 3.4274403076171875 1.4442374999999996 3.4533153076171876 1.4577374999999995 Q 3.4791903076171877 1.4712374999999995 3.5016903076171877 1.4914874999999996 L 3.4761903076171876 1.5334874999999997 M 3.931436279296875 1.5334874999999997 Q 3.920186279296875 1.5207374999999996 3.905186279296875 1.5106124999999997 Q 3.890186279296875 1.5004874999999998 3.871436279296875 1.4929874999999997 Q 3.852686279296875 1.4854874999999996 3.831311279296875 1.4809874999999997 Q 3.809936279296875 1.4764874999999997 3.785936279296875 1.4764874999999997 Q 3.716186279296875 1.4764874999999997 3.683561279296875 1.5031124999999996 Q 3.650936279296875 1.5297374999999995 3.650936279296875 1.5754874999999997 Q 3.650936279296875 1.6069874999999996 3.666311279296875 1.6249874999999996 Q 3.681686279296875 1.6429874999999996 3.714686279296875 1.6542374999999996 Q 3.747686279296875 1.6654874999999996 3.798686279296875 1.6774874999999996 Q 3.855686279296875 1.6894874999999996 3.896936279296875 1.7059874999999995 Q 3.938186279296875 1.7224874999999997 3.960686279296875 1.7506124999999997 Q 3.983186279296875 1.7787374999999996 3.983186279296875 1.8267374999999997 Q 3.983186279296875 1.8634874999999997 3.968936279296875 1.8904874999999997 Q 3.954686279296875 1.9174874999999996 3.929186279296875 1.9354874999999996 Q 3.903686279296875 1.9534874999999996 3.868436279296875 1.9621124999999997 Q 3.833186279296875 1.9707374999999996 3.791186279296875 1.9707374999999996 Q 3.749936279296875 1.9707374999999996 3.712061279296875 1.9621124999999997 Q 3.674186279296875 1.9534874999999996 3.640436279296875 1.9366124999999996 Q 3.606686279296875 1.9197374999999997 3.577436279296875 1.8934874999999995 L 3.603686279296875 1.8507374999999997 Q 3.617936279296875 1.8657374999999996 3.637811279296875 1.8788624999999997 Q 3.657686279296875 1.8919874999999997 3.682061279296875 1.9024874999999997 Q 3.706436279296875 1.9129874999999996 3.734561279296875 1.9186124999999996 Q 3.762686279296875 1.9242374999999996 3.792686279296875 1.9242374999999996 Q 3.856436279296875 1.9242374999999996 3.892061279296875 1.9009874999999996 Q 3.927686279296875 1.8777374999999996 3.927686279296875 1.8319874999999997 Q 3.927686279296875 1.7989874999999995 3.909686279296875 1.7791124999999997 Q 3.891686279296875 1.7592374999999996 3.855686279296875 1.7464874999999997 Q 3.819686279296875 1.7337374999999997 3.767186279296875 1.7217374999999997 Q 3.711686279296875 1.7089874999999997 3.673436279296875 1.6932374999999995 Q 3.635186279296875 1.6774874999999996 3.616061279296875 1.6516124999999997 Q 3.596936279296875 1.6257374999999996 3.596936279296875 1.5829874999999995 Q 3.596936279296875 1.5334874999999997 3.621311279296875 1.4993624999999997 Q 3.645686279296875 1.4652374999999997 3.688436279296875 1.4476124999999995 Q 3.731186279296875 1.4299874999999997 3.786686279296875 1.4299874999999997 Q 3.821936279296875 1.4299874999999997 3.852311279296875 1.4371124999999996 Q 3.882686279296875 1.4442374999999996 3.908561279296875 1.4577374999999995 Q 3.9344362792968752 1.4712374999999995 3.956936279296875 1.4914874999999996 L 3.931436279296875 1.5334874999999997 M 4.624435913085938 1.9197374999999997 L 4.624435913085938 1.9662374999999996 L 4.266685913085937 1.9662374999999996 L 4.266685913085937 1.4337374999999997 L 4.617685913085937 1.4337374999999997 L 4.617685913085937 1.4802374999999997 L 4.319185913085938 1.4802374999999997 L 4.319185913085938 1.6722374999999996 L 4.579435913085938 1.6722374999999996 L 4.579435913085938 1.7164874999999997 L 4.319185913085938 1.7164874999999997 L 4.319185913085938 1.9197374999999997 L 4.624435913085938 1.9197374999999997 M 4.888442504882812 1.4337374999999997 L 4.932692504882812 1.4337374999999997 L 5.153942504882813 1.9662374999999996 L 5.098442504882812 1.9662374999999996 L 5.029442504882812 1.7997374999999995 L 4.790192504882812 1.7997374999999995 L 4.721942504882812 1.9662374999999996 L 4.665692504882813 1.9662374999999996 L 4.888442504882812 1.4337374999999997 M 5.017442504882813 1.7584874999999995 L 4.910192504882812 1.4952374999999996 L 4.801442504882813 1.7584874999999995 L 5.017442504882813 1.7584874999999995 M 5.230461547851562 1.9662374999999996 L 5.230461547851562 1.4337374999999997 L 5.455461547851563 1.4337374999999997 Q 5.489961547851562 1.4337374999999997 5.518461547851563 1.4479874999999995 Q 5.546961547851563 1.4622374999999996 5.568336547851563 1.4866124999999997 Q 5.589711547851563 1.5109874999999997 5.601336547851562 1.5406124999999995 Q 5.612961547851563 1.5702374999999997 5.612961547851563 1.6009874999999996 Q 5.612961547851563 1.6392374999999997 5.598336547851562 1.6729874999999996 Q 5.583711547851562 1.7067374999999996 5.557086547851562 1.7299874999999996 Q 5.530461547851562 1.7532374999999996 5.494461547851563 1.7607374999999996 L 5.624961547851562 1.9662374999999996 L 5.565711547851563 1.9662374999999996 L 5.440461547851562 1.7697374999999997 L 5.282961547851563 1.7697374999999997 L 5.282961547851563 1.9662374999999996 L 5.230461547851562 1.9662374999999996 M 5.282961547851563 1.7232374999999998 L 5.456961547851563 1.7232374999999998 Q 5.488461547851562 1.7232374999999998 5.511711547851562 1.7059874999999995 Q 5.534961547851562 1.6887374999999996 5.547711547851563 1.6606124999999996 Q 5.560461547851562 1.6324874999999996 5.560461547851562 1.6009874999999996 Q 5.560461547851562 1.5687374999999997 5.545836547851563 1.5413624999999995 Q 5.531211547851562 1.5139874999999996 5.506836547851562 1.4971124999999996 Q 5.482461547851562 1.4802374999999997 5.452461547851563 1.4802374999999997 L 5.282961547851563 1.4802374999999997 L 5.282961547851563 1.7232374999999998 M 5.772722900390625 1.5304874999999996 L 5.772722900390625 1.9662374999999996 L 5.720222900390625 1.9662374999999996 L 5.720222900390625 1.4337374999999997 L 5.763722900390625 1.4337374999999997 L 6.113222900390625 1.8777374999999996 L 6.113222900390625 1.4344874999999995 L 6.165722900390625 1.4344874999999995 L 6.165722900390625 1.9662374999999996 L 6.116972900390625 1.9662374999999996 L 5.772722900390625 1.5304874999999996 M 6.610452392578125 1.5334874999999997 Q 6.599202392578125 1.5207374999999996 6.584202392578125 1.5106124999999997 Q 6.569202392578125 1.5004874999999998 6.550452392578125 1.4929874999999997 Q 6.531702392578125 1.4854874999999996 6.510327392578125 1.4809874999999997 Q 6.488952392578125 1.4764874999999997 6.464952392578125 1.4764874999999997 Q 6.395202392578125 1.4764874999999997 6.362577392578125 1.5031124999999996 Q 6.329952392578125 1.5297374999999995 6.329952392578125 1.5754874999999997 Q 6.329952392578125 1.6069874999999996 6.345327392578125 1.6249874999999996 Q 6.360702392578125 1.6429874999999996 6.393702392578125 1.6542374999999996 Q 6.426702392578125 1.6654874999999996 6.477702392578125 1.6774874999999996 Q 6.534702392578125 1.6894874999999996 6.575952392578125 1.7059874999999995 Q 6.617202392578125 1.7224874999999997 6.639702392578125 1.7506124999999997 Q 6.662202392578125 1.7787374999999996 6.662202392578125 1.8267374999999997 Q 6.662202392578125 1.8634874999999997 6.647952392578125 1.8904874999999997 Q 6.633702392578125 1.9174874999999996 6.608202392578125 1.9354874999999996 Q 6.582702392578125 1.9534874999999996 6.547452392578125 1.9621124999999997 Q 6.512202392578125 1.9707374999999996 6.470202392578125 1.9707374999999996 Q 6.428952392578125 1.9707374999999996 6.391077392578125 1.9621124999999997 Q 6.353202392578125 1.9534874999999996 6.319452392578125 1.9366124999999996 Q 6.285702392578125 1.9197374999999997 6.256452392578125 1.8934874999999995 L 6.282702392578125 1.8507374999999997 Q 6.296952392578125 1.8657374999999996 6.316827392578125 1.8788624999999997 Q 6.336702392578125 1.8919874999999997 6.3610773925781245 1.9024874999999997 Q 6.385452392578125 1.9129874999999996 6.413577392578125 1.9186124999999996 Q 6.441702392578125 1.9242374999999996 6.471702392578125 1.9242374999999996 Q 6.535452392578125 1.9242374999999996 6.571077392578125 1.9009874999999996 Q 6.606702392578125 1.8777374999999996 6.606702392578125 1.8319874999999997 Q 6.606702392578125 1.7989874999999995 6.588702392578125 1.7791124999999997 Q 6.570702392578125 1.7592374999999996 6.534702392578125 1.7464874999999997 Q 6.498702392578125 1.7337374999999997 6.446202392578125 1.7217374999999997 Q 6.390702392578125 1.7089874999999997 6.352452392578125 1.6932374999999995 Q 6.314202392578125 1.6774874999999996 6.295077392578125 1.6516124999999997 Q 6.275952392578125 1.6257374999999996 6.275952392578125 1.5829874999999995 Q 6.275952392578125 1.5334874999999997 6.300327392578125 1.4993624999999997 Q 6.324702392578125 1.4652374999999997 6.367452392578125 1.4476124999999995 Q 6.410202392578125 1.4299874999999997 6.465702392578125 1.4299874999999997 Q 6.500952392578125 1.4299874999999997 6.531327392578125 1.4371124999999996 Q 6.561702392578125 1.4442374999999996 6.587577392578125 1.4577374999999995 Q 6.613452392578125 1.4712374999999995 6.635952392578125 1.4914874999999996 L 6.610452392578125 1.5334874999999997 M 7.301958251953125 1.4802374999999997 L 7.112208251953125 1.4802374999999997 L 7.112208251953125 1.9662374999999996 L 7.059708251953125 1.9662374999999996 L 7.059708251953125 1.4802374999999997 L 6.869958251953125 1.4802374999999997 L 6.869958251953125 1.4337374999999997 L 7.301958251953125 1.4337374999999997 L 7.301958251953125 1.4802374999999997 M 7.381447265625 1.9662374999999996 L 7.381447265625 1.4337374999999997 L 7.606447265625 1.4337374999999997 Q 7.640947265625 1.4337374999999997 7.669447265625 1.4479874999999995 Q 7.697947265625 1.4622374999999996 7.719322265625 1.4866124999999997 Q 7.740697265625 1.5109874999999997 7.752322265625 1.5406124999999995 Q 7.763947265625 1.5702374999999997 7.763947265625 1.6009874999999996 Q 7.763947265625 1.6392374999999997 7.749322265625 1.6729874999999996 Q 7.734697265625 1.7067374999999996 7.708072265625 1.7299874999999996 Q 7.681447265625 1.7532374999999996 7.645447265625 1.7607374999999996 L 7.775947265625 1.9662374999999996 L 7.716697265625 1.9662374999999996 L 7.591447265625 1.7697374999999997 L 7.433947265625 1.7697374999999997 L 7.433947265625 1.9662374999999996 L 7.381447265625 1.9662374999999996 M 7.433947265625 1.7232374999999998 L 7.6079472656250005 1.7232374999999998 Q 7.639447265625 1.7232374999999998 7.662697265625 1.7059874999999995 Q 7.685947265625 1.6887374999999996 7.698697265625 1.6606124999999996 Q 7.711447265625 1.6324874999999996 7.711447265625 1.6009874999999996 Q 7.711447265625 1.5687374999999997 7.696822265625 1.5413624999999995 Q 7.682197265625 1.5139874999999996 7.657822265625 1.4971124999999996 Q 7.633447265625 1.4802374999999997 7.603447265625 1.4802374999999997 L 7.433947265625 1.4802374999999997 L 7.433947265625 1.7232374999999998 M 8.087958618164063 1.9699874999999996 Q 8.024958618164062 1.9699874999999996 7.981458618164062 1.9474874999999996 Q 7.937958618164062 1.9249874999999996 7.912458618164062 1.8871124999999997 Q 7.886958618164062 1.8492374999999996 7.8753336181640625 1.8012374999999996 Q 7.863708618164062 1.7532374999999996 7.863708618164062 1.7022374999999996 L 7.863708618164062 1.4337374999999997 L 7.915458618164062 1.4337374999999997 L 7.915458618164062 1.7022374999999996 Q 7.915458618164062 1.7434874999999996 7.924083618164063 1.7832374999999996 Q 7.932708618164063 1.8229874999999995 7.952208618164063 1.8544874999999996 Q 7.971708618164063 1.8859874999999997 8.004708618164063 1.9043624999999997 Q 8.037708618164062 1.9227374999999995 8.087208618164063 1.9227374999999995 Q 8.138208618164063 1.9227374999999995 8.171583618164062 1.9036124999999997 Q 8.204958618164062 1.8844874999999996 8.224083618164062 1.8529874999999996 Q 8.243208618164063 1.8214874999999997 8.251458618164062 1.7821124999999995 Q 8.259708618164062 1.7427374999999996 8.259708618164062 1.7022374999999996 L 8.259708618164062 1.4337374999999997 L 8.312208618164062 1.4337374999999997 L 8.312208618164062 1.7022374999999996 Q 8.312208618164062 1.7554874999999996 8.300208618164062 1.8042374999999997 Q 8.288208618164063 1.8529874999999996 8.261583618164062 1.8897374999999996 Q 8.234958618164063 1.9264874999999997 8.192208618164063 1.9482374999999996 Q 8.149458618164063 1.9699874999999996 8.087958618164063 1.9699874999999996 M 8.748712280273438 1.5334874999999997 Q 8.737462280273437 1.5207374999999996 8.722462280273437 1.5106124999999997 Q 8.707462280273438 1.5004874999999998 8.688712280273437 1.4929874999999997 Q 8.669962280273438 1.4854874999999996 8.648587280273437 1.4809874999999997 Q 8.627212280273438 1.4764874999999997 8.603212280273437 1.4764874999999997 Q 8.533462280273438 1.4764874999999997 8.500837280273437 1.5031124999999996 Q 8.468212280273438 1.5297374999999995 8.468212280273438 1.5754874999999997 Q 8.468212280273438 1.6069874999999996 8.483587280273438 1.6249874999999996 Q 8.498962280273437 1.6429874999999996 8.531962280273438 1.6542374999999996 Q 8.564962280273438 1.6654874999999996 8.615962280273438 1.6774874999999996 Q 8.672962280273438 1.6894874999999996 8.714212280273438 1.7059874999999995 Q 8.755462280273438 1.7224874999999997 8.777962280273437 1.7506124999999997 Q 8.800462280273438 1.7787374999999996 8.800462280273438 1.8267374999999997 Q 8.800462280273438 1.8634874999999997 8.786212280273437 1.8904874999999997 Q 8.771962280273437 1.9174874999999996 8.746462280273438 1.9354874999999996 Q 8.720962280273438 1.9534874999999996 8.685712280273437 1.9621124999999997 Q 8.650462280273437 1.9707374999999996 8.608462280273438 1.9707374999999996 Q 8.567212280273438 1.9707374999999996 8.529337280273438 1.9621124999999997 Q 8.491462280273437 1.9534874999999996 8.457712280273437 1.9366124999999996 Q 8.423962280273438 1.9197374999999997 8.394712280273437 1.8934874999999995 L 8.420962280273438 1.8507374999999997 Q 8.435212280273438 1.8657374999999996 8.455087280273437 1.8788624999999997 Q 8.474962280273438 1.8919874999999997 8.499337280273437 1.9024874999999997 Q 8.523712280273438 1.9129874999999996 8.551837280273437 1.9186124999999996 Q 8.579962280273438 1.9242374999999996 8.609962280273438 1.9242374999999996 Q 8.673712280273438 1.9242374999999996 8.709337280273438 1.9009874999999996 Q 8.744962280273437 1.8777374999999996 8.744962280273437 1.8319874999999997 Q 8.744962280273437 1.7989874999999995 8.726962280273437 1.7791124999999997 Q 8.708962280273438 1.7592374999999996 8.672962280273438 1.7464874999999997 Q 8.636962280273437 1.7337374999999997 8.584462280273437 1.7217374999999997 Q 8.528962280273438 1.7089874999999997 8.490712280273437 1.6932374999999995 Q 8.452462280273437 1.6774874999999996 8.433337280273438 1.6516124999999997 Q 8.414212280273437 1.6257374999999996 8.414212280273437 1.5829874999999995 Q 8.414212280273437 1.5334874999999997 8.438587280273438 1.4993624999999997 Q 8.462962280273437 1.4652374999999997 8.505712280273437 1.4476124999999995 Q 8.548462280273437 1.4299874999999997 8.603962280273437 1.4299874999999997 Q 8.639212280273437 1.4299874999999997 8.669587280273438 1.4371124999999996 Q 8.699962280273438 1.4442374999999996 8.725837280273437 1.4577374999999995 Q 8.751712280273438 1.4712374999999995 8.774212280273437 1.4914874999999996 L 8.748712280273438 1.5334874999999997 M 9.269975830078126 1.4802374999999997 L 9.080225830078126 1.4802374999999997 L 9.080225830078126 1.9662374999999996 L 9.027725830078126 1.9662374999999996 L 9.027725830078126 1.4802374999999997 L 8.837975830078125 1.4802374999999997 L 8.837975830078125 1.4337374999999997 L 9.269975830078126 1.4337374999999997 L 9.269975830078126 1.4802374999999997" fill="#faecd3" fill-rule="nonzero"></path></g><g clip-path="url(#SvgjsClipPath1002)"><g clip-path="url(#SvgjsClipPath1000f53f1cba-defc-4730-ad0c-6b9f718878ac)"><path d=" M -0.3999999999999999 1.4986381696747368 L -0.3999999999999999 1.1766896496314818 L -0.7352982372592194 0.9831835544525045 L -1.9070923474488608 1.6596124296963646 L -1.2928757466094944 2.0142223938019788 L -0.3999999999999999 1.4986381696747368 Z" fill="#a4c868" transform="matrix(1,0,0,1,0,0)" fill-rule="evenodd"></path></g><g clip-path="url(#SvgjsClipPath1000f53f1cba-defc-4730-ad0c-6b9f718878ac)"><path d=" M -0.6787887546751377 0.30662507030363517 L -1.2928757466094944 0.66110542550424 L -0.3999999999999999 1.1766896496314818 L -0.3999999999999999 0.4675993303252627 L -0.6787887546751377 0.30662507030363517 Z" fill="#67a97b" transform="matrix(1,0,0,1,0,0)" fill-rule="evenodd"></path></g><g clip-path="url(#SvgjsClipPath1000f53f1cba-defc-4730-ad0c-6b9f718878ac)"><path d=" M -2.1858811021239983 0.4675993303252627 L -2.1858811021239983 0.7895478503685176 L -1.8505828648647789 0.9830539455474951 L -0.6787887546751377 0.30662507030363517 L -1.2928757466094944 -0.04798489380197912 L -2.1858811021239983 0.4675993303252627 Z" fill="#a4c868" transform="matrix(1,0,0,1,0,0)" fill-rule="evenodd"></path></g><g clip-path="url(#SvgjsClipPath1000f53f1cba-defc-4730-ad0c-6b9f718878ac)"><path d=" M -1.2928757466094944 1.3051320744957595 L -2.1858811021239983 0.7895478503685176 L -2.1858811021239983 1.4986381696747368 L -1.9070923474488608 1.6596124296963646 L -1.2928757466094944 1.3051320744957595 Z" fill="#67a97b" transform="matrix(1,0,0,1,0,0)" fill-rule="evenodd"></path></g></g></g><defs><clipPath id="SvgjsClipPath1002"><path d=" M -2.1858811021239983 -0.04798489380197912 h 1.7858811021239984 v 2.062207287603958 h -1.7858811021239984 Z"></path></clipPath><clipPath id="SvgjsClipPath1000f53f1cba-defc-4730-ad0c-6b9f718878ac"><path d=" M -2.1858811021239983 -0.04798489380197912 L -0.3999999999999999 -0.04798489380197912 L -0.3999999999999999 2.0142223938019788 L -2.1858811021239983 2.0142223938019788 Z"></path></clipPath></defs></svg>